<?xml version="1.0" standalone="no"?>
<!-- Generator: Adobe Fireworks 10, Export SVG Extension by Aaron Beall (http://fireworks.abeall.com) . Version: 0.6.1  -->
<!DOCTYPE svg PUBLIC "-//W3C//DTD SVG 1.1//EN" "http://www.w3.org/Graphics/SVG/1.1/DTD/svg11.dtd">
<svg id="file+arrow-Page%201" viewBox="-8 -8 16 16" style="background-color:#ffffff00" version="1.1"
	xmlns="http://www.w3.org/2000/svg" xmlns:xlink="http://www.w3.org/1999/xlink" xml:space="preserve"
	x="-8px" y="-8px" width="16px" height="16px"
>
	<g id="Layer%201">
		<path d="M 5 3 L 3.5 4.5 L 4.5 5.5 L 8 2 L 4.5 -1.5 L 3.5 -0.5 L 5 1 L 1 1 L 1 3 L 5 3 ZM -1 -7 L -1 -3 L 3 -3 L -1 -7 ZM -8 -7 L -8 7 L 3 7 L 3 5 L 2.5 4.5 L 3 4 L 0 4 L 0 0 L 3 0 L 2.5 -0.5 L 3 -1 L 3 -2 L -2 -2 L -2 -7 L -8 -7 Z" fill="#000000"/>
	</g>
</svg>