<?xml version="1.0" standalone="no"?>
<!-- Generator: Adobe Fireworks 10, Export SVG Extension by Aaron Beall (http://fireworks.abeall.com) . Version: 0.6.1  -->
<!DOCTYPE svg PUBLIC "-//W3C//DTD SVG 1.1//EN" "http://www.w3.org/Graphics/SVG/1.1/DTD/svg11.dtd">
<svg id="acitivity_16-Page%201" viewBox="0 0 16 16" style="background-color:#ffffff00" version="1.1"
	xmlns="http://www.w3.org/2000/svg" xmlns:xlink="http://www.w3.org/1999/xlink" xml:space="preserve"
	x="0px" y="0px" width="16px" height="16px"
>
	<g id="Layer%201">
		<path d="M 12 9 L 15.94 9 C 15.9808 8.6724 16 8.3387 16 8 C 16 3.5817 12.4183 0 8 0 C 3.5817 0 0 3.5817 0 8 C 0 8.6906 0.0855 9.3608 0.25 10 L 2.625 10 L 5 1 L 8.4688 12 L 10 6 L 12 9 ZM 8 16 C 11.7277 16 14.8617 13.4505 15.75 10 L 11.5 10 L 10.3438 8.25 L 8.5 15.5 L 5 4.5313 L 3.5 11 L 0.58 11 C 1.7671 13.9319 4.6426 16 8 16 Z" fill="#000000"/>
	</g>
</svg>