<?xml version="1.0" standalone="no"?>
<!-- Generator: Adobe Fireworks 10, Export SVG Extension by Aaron Beall (http://fireworks.abeall.com) . Version: 0.6.1  -->
<!DOCTYPE svg PUBLIC "-//W3C//DTD SVG 1.1//EN" "http://www.w3.org/Graphics/SVG/1.1/DTD/svg11.dtd">
<svg id="addFolder_16-Page%201" viewBox="0 0 16 16" style="background-color:#ffffff00" version="1.1"
	xmlns="http://www.w3.org/2000/svg" xmlns:xlink="http://www.w3.org/1999/xlink" xml:space="preserve"
	x="0px" y="0px" width="16px" height="16px"
>
	<g id="Layer%201">
		<path d="M 11 7 L 11 10 L 8 10 L 8 12 L 11 12 L 11 15 L 13 15 L 13 12 L 16 12 L 16 10 L 13 10 L 13 7 L 11 7 Z" fill="#000000"/>
		<path d="M 0 0 L 0 2 L 6.3438 2 L 7.3438 1 L 6.3438 0 L 0 0 ZM 0 3 L 0 11 L 7 11 L 7 9 L 10 9 L 10 6 L 14 6 L 14 1 L 9 1 L 7 3 L 0 3 Z" fill="#000000"/>
	</g>
</svg>