<?xml version="1.0" standalone="no"?>
<!-- Generator: Adobe Fireworks 10, Export SVG Extension by Aaron Beall (http://fireworks.abeall.com) . Version: 0.6.1  -->
<!DOCTYPE svg PUBLIC "-//W3C//DTD SVG 1.1//EN" "http://www.w3.org/Graphics/SVG/1.1/DTD/svg11.dtd">
<svg id="addMember_40-Page%201" viewBox="0 0 40 40" style="background-color:#ffffff00" version="1.1"
	xmlns="http://www.w3.org/2000/svg" xmlns:xlink="http://www.w3.org/1999/xlink" xml:space="preserve"
	x="0px" y="0px" width="40px" height="40px"
>
	<g id="Layer%201">
		<path d="M 2 20 C 2 10.0587 10.0587 2 20 2 C 29.9413 2 38 10.0587 38 20 C 38 29.9413 29.9413 38 20 38 C 10.0587 38 2 29.9413 2 20 ZM 0 20 C 0 31.0459 8.9541 40 20 40 C 31.0459 40 40 31.0459 40 20 C 40 8.9541 31.0459 0 20 0 C 8.9541 0 0 8.9541 0 20 Z" fill="#000000"/>
		<path d="M 19 9 L 19 19 L 9 19 L 9 21 L 19 21 L 19 31 L 21 31 L 21 21 L 31 21 L 31 19 L 21 19 L 21 9 L 19 9 Z" fill="#000000"/>
	</g>
</svg>