<?xml version="1.0" encoding="utf-8"?>
<!-- Generator: Adobe Illustrator 18.1.1, SVG Export Plug-In . SVG Version: 6.00 Build 0)  -->
<!DOCTYPE svg PUBLIC "-//W3C//DTD SVG 1.1//EN" "http://www.w3.org/Graphics/SVG/1.1/DTD/svg11.dtd">
<svg version="1.1" id="assets" xmlns="http://www.w3.org/2000/svg" xmlns:xlink="http://www.w3.org/1999/xlink" x="0px" y="0px"
	 width="16px" height="16px" viewBox="0 0 16 16" enable-background="new 0 0 16 16" xml:space="preserve">
<g>
	<g id="fileIconBG_69_">
		<path id="foldedCorner_199_" fill="#FAB11C" d="M11,0l5,5h-5V0z"/>
		<path id="background_199_" fill="#FF9B0D" d="M0,0v16h16V5h-5V0H0z"/>
		<path id="white_122_" fill="#FFFFFF" d="M1,1v8h14V5h-4V1H1z"/>
		<path id="shadow_174_" opacity="0.2" fill="#1B3F63" enable-background="new    " d="M16,10l-5-5h5V10z"/>
	</g>
	<g>
		<path fill="#FFFFFF" d="M4.2,10H2.8l-1.5,5h1l0.3-1h1.8l0.3,1h1L4.2,10L4.2,10z M2.9,13l0.6-2l0.6,2H2.9L2.9,13z"/>
		<path fill="#FFFFFF" d="M14,15v-1h-2v-1h2v-1h-2v-1h2v-1h-3v5H14L14,15z"/>
		<path fill="#FFFFFF" d="M8,15v-2h2v-1H8v-1h2v-1H7v5H8L8,15z"/>
	</g>
</g>
</svg>
