<?xml version="1.0" encoding="utf-8"?>
<!-- Generator: Adobe Illustrator 18.1.0, SVG Export Plug-In . SVG Version: 6.00 Build 0)  -->
<svg version="1.1" id="Layer_1" xmlns="http://www.w3.org/2000/svg" xmlns:xlink="http://www.w3.org/1999/xlink" x="0px" y="0px"
	 viewBox="0 0 16 16" style="enable-background:new 0 0 16 16;" xml:space="preserve">
<g>
	<path d="M15,3.3c0-0.5-0.4-0.9-0.9-0.9H0.9C0.4,2.3,0,2.8,0,3.3v10.1c0,0.5,0.4,0.9,0.9,0.9h13.1c0.5,0,0.9-0.4,0.9-0.9V3.3z
		 M14,11.4c0,0.5-0.4,0.9-0.9,0.9H1.9c-0.5,0-0.9-0.4-0.9-0.9V5.3c0-0.5,0.4-0.9,0.9-0.9h11.1c0.5,0,0.9,0.4,0.9,0.9V11.4z"/>
	<path d="M6.2,10.7l3.3-2.2c0.1-0.1,0.1-0.2,0-0.3L6.2,6C6.1,5.9,6,6,6,6.2v4.4C6,10.7,6,10.8,6.2,10.7z"/>
</g>
</svg>
