<?xml version="1.0" encoding="utf-8"?>
<!-- Generator: Adobe Illustrator 18.1.0, SVG Export Plug-In . SVG Version: 6.00 Build 0)  -->
<svg version="1.1" id="Layer_1" xmlns="http://www.w3.org/2000/svg" xmlns:xlink="http://www.w3.org/1999/xlink" x="0px" y="0px"
	 viewBox="0 356.5 1980 567" style="enable-background:new 0 356.5 1980 567;" xml:space="preserve">
<g>
	<path d="M1980,866.5c0,31.5-25.5,57-57,57H57c-31.5,0-57-25.5-57-57v-453c0-31.5,25.5-57,57-57h1866c31.5,0,57,25.5,57,57V866.5
		L1980,866.5z"/>
	<g>
		<g>
			<path style="fill:#FFFFFF;" d="M435,637c0-48,39-70.5,40.5-72c-22.5-33-57-37.5-69-37.5c-30-3-57,18-72,18
				c-15,0-37.5-16.5-63-16.5c-31.5,0-61.5,19.5-78,48c-33,58.5-9,144,24,190.5c16.5,22.5,34.5,49.5,60,48c24-1.5,33-15,63-15
				c28.5,0,37.5,15,63,15c25.5,0,42-22.5,58.5-46.5c18-27,25.5-52.5,27-54C484.5,713.5,435,694,435,637z"/>
			<path style="fill:#FFFFFF;" d="M387,496c13.5-16.5,22.5-39,19.5-61.5C387,436,364.5,448,351,463c-12,13.5-22.5,37.5-19.5,58.5
				C352.5,524.5,373.5,512.5,387,496z"/>
		</g>
	</g>
	<g>
		<path style="fill:#FFFFFF;" d="M784.5,811H750l-18-58.5h-64.5l-18,58.5h-33l63-198H720L784.5,811z M726,728.5l-16.5-51
			c-1.5-6-4.5-18-10.5-37.5l0,0c-1.5,9-4.5,21-9,37.5l-16.5,51H726z"/>
		<path style="fill:#FFFFFF;" d="M948,737.5c0,24-6,43.5-19.5,57c-12,12-27,19.5-43.5,19.5c-19.5,0-33-7.5-40.5-21l0,0v75H813V715
			c0-15,0-31.5-1.5-46.5H840l1.5,22.5l0,0c10.5-16.5,27-25.5,48-25.5c16.5,0,31.5,6,42,19.5C943.5,698.5,948,716.5,948,737.5z
			 M916.5,739c0-13.5-3-25.5-9-34.5c-7.5-9-16.5-13.5-27-13.5c-7.5,0-15,3-21,7.5c-6,4.5-10.5,12-12,21c-1.5,4.5-1.5,7.5-1.5,9v24
			c0,10.5,3,19.5,9,27c6,7.5,15,10.5,25.5,10.5c12,0,21-4.5,28.5-13.5C912,766,916.5,754,916.5,739z"/>
		<path style="fill:#FFFFFF;" d="M1113,737.5c0,24-6,43.5-19.5,57c-12,12-27,19.5-43.5,19.5c-19.5,0-33-7.5-40.5-21l0,0v75H978V715
			c0-15,0-31.5-1.5-46.5h28.5l1.5,22.5l0,0c10.5-16.5,27-25.5,48-25.5c16.5,0,31.5,6,42,19.5C1107,698.5,1113,716.5,1113,737.5z
			 M1080,739c0-13.5-3-25.5-9-34.5c-7.5-9-16.5-13.5-27-13.5c-7.5,0-15,3-21,7.5c-6,4.5-10.5,12-12,21c-1.5,4.5-1.5,7.5-1.5,9v24
			c0,10.5,3,19.5,9,27c6,7.5,15,10.5,25.5,10.5c12,0,21-4.5,28.5-13.5C1077,766,1080,754,1080,739z"/>
		<path style="fill:#FFFFFF;" d="M1296,755.5c0,16.5-6,30-18,40.5c-13.5,12-31.5,18-54,18c-21,0-39-4.5-51-12l7.5-27
			c13.5,9,28.5,12,46.5,12c12,0,21-3,28.5-7.5c6-6,10.5-12,10.5-21c0-7.5-3-15-7.5-21c-6-6-15-10.5-27-15
			c-34.5-13.5-52.5-31.5-52.5-57c0-16.5,6-30,18-40.5c12-10.5,28.5-15,48-15c18,0,33,3,45,9l-7.5,25.5c-10.5-6-24-9-37.5-9
			c-10.5,0-19.5,3-25.5,7.5s-7.5,10.5-7.5,18s3,15,9,19.5s15,10.5,28.5,15c16.5,7.5,30,15,37.5,24C1291.5,730,1296,742,1296,755.5z"
			/>
		<path style="fill:#FFFFFF;" d="M1401,692.5h-34.5v69c0,18,6,27,18,27c6,0,10.5,0,13.5-1.5l1.5,24c-6,3-15,3-24,3
			c-12,0-22.5-4.5-30-12s-10.5-21-10.5-39v-72h-21v-24h21v-25.5l31.5-9v36h34.5V692.5z"/>
		<path style="fill:#FFFFFF;" d="M1558.5,739c0,22.5-6,40.5-19.5,54c-13.5,15-30,21-52.5,21c-21,0-37.5-7.5-49.5-21
			c-12-13.5-18-31.5-18-52.5c0-22.5,6-40.5,19.5-54s30-21,52.5-21c21,0,37.5,7.5,51,21C1552.5,700,1558.5,718,1558.5,739z
			 M1525.5,739c0-13.5-3-24-9-34.5c-6-12-16.5-16.5-28.5-16.5c-12,0-22.5,6-28.5,16.5c-6,9-9,21-9,34.5s3,24,9,34.5
			c7.5,12,16.5,16.5,28.5,16.5c12,0,21-6,28.5-18C1522.5,764.5,1525.5,752.5,1525.5,739z"/>
		<path style="fill:#FFFFFF;" d="M1662,697c-3,0-6-1.5-10.5-1.5c-10.5,0-19.5,4.5-25.5,12c-6,7.5-7.5,16.5-7.5,28.5v75H1587v-97.5
			c0-16.5,0-31.5-1.5-45h27l1.5,27h1.5c3-9,9-16.5,16.5-22.5c7.5-4.5,15-7.5,22.5-7.5c3,0,6,0,7.5,0L1662,697z"/>
		<path style="fill:#FFFFFF;" d="M1803,733c0,6,0,10.5-1.5,15H1707c0,13.5,4.5,25.5,13.5,33c7.5,6,18,10.5,31.5,10.5
			c13.5,0,27-1.5,39-7.5l4.5,22.5c-13.5,6-30,9-48,9c-22.5,0-39-6-52.5-19.5c-12-13.5-19.5-30-19.5-52.5c0-21,6-39,18-54
			c12-15,28.5-22.5,49.5-22.5c21,0,36,7.5,46.5,22.5C1798.5,700,1803,715,1803,733z M1773,725.5c0-9-1.5-18-6-24
			c-6-9-13.5-13.5-25.5-13.5c-10.5,0-19.5,4.5-25.5,13.5c-6,7.5-9,15-9,24H1773L1773,725.5z"/>
	</g>
	<g>
		<g>
			<path style="fill:#FFFFFF;" d="M715.5,491.5c0,18-4.5,30-15,39c-9,7.5-24,12-42,12c-9,0-16.5,0-22.5-1.5v-94.5
				c9-1.5,18-1.5,27-1.5c16.5,0,30,3,39,10.5C711,464.5,715.5,476.5,715.5,491.5z M700.5,491.5c0-12-3-19.5-9-25.5c-6-6-15-9-27-9
				c-4.5,0-9,0-12,1.5v72c1.5,0,6,0,10.5,0c12,0,21-3,27-10.5C696,514,700.5,505,700.5,491.5z"/>
			<path style="fill:#FFFFFF;" d="M804,506.5c0,10.5-3,19.5-9,27c-6,7.5-15,10.5-25.5,10.5s-18-3-24-10.5s-9-15-9-25.5s3-19.5,9-27
				c6-7.5,15-10.5,25.5-10.5c9,0,16.5,4.5,24,10.5C801,488.5,804,496,804,506.5z M787.5,508c0-6-1.5-12-4.5-16.5c-3-6-7.5-9-13.5-9
				c-6,0-10.5,3-15,9c-3,4.5-4.5,9-4.5,16.5c0,6,1.5,12,4.5,16.5c3,6,7.5,9,13.5,9c6,0,10.5-3,13.5-9C786,520,787.5,514,787.5,508z"
				/>
			<path style="fill:#FFFFFF;" d="M919.5,472L897,542.5h-15l-9-30c0-7.5-3-15-4.5-22.5l0,0c-1.5,7.5-3,15-6,22.5l-9,30h-15l-21-70.5
				H834l7.5,33c1.5,7.5,3,15,4.5,22.5l0,0c1.5-6,3-13.5,6-22.5l10.5-33h12l10.5,33c3,7.5,4.5,15,6,22.5l0,0c1.5-7.5,3-15,4.5-22.5
				l9-33H919.5L919.5,472z"/>
			<path style="fill:#FFFFFF;" d="M1000.5,542.5h-15V502c0-12-4.5-18-13.5-18c-4.5,0-9,1.5-12,4.5s-4.5,7.5-4.5,12v42h-15V493
				c0-6,0-13.5,0-19.5H954V484l0,0c1.5-3,4.5-6,7.5-9c4.5-3,9-4.5,13.5-4.5c6,0,12,1.5,16.5,6c6,4.5,7.5,13.5,7.5,22.5v43.5H1000.5z
				"/>
			<path style="fill:#FFFFFF;" d="M1044,542.5h-15v-102h15V542.5z"/>
			<path style="fill:#FFFFFF;" d="M1135.5,506.5c0,10.5-3,19.5-9,27s-15,10.5-25.5,10.5c-10.5,0-18-3-24-10.5c-6-7.5-9-15-9-25.5
				s3-19.5,9-27c6-7.5,15-10.5,25.5-10.5s18,3,25.5,10.5C1132.5,488.5,1135.5,496,1135.5,506.5z M1119,508c0-6-1.5-12-4.5-16.5
				c-3-6-7.5-9-13.5-9s-10.5,3-15,9c-3,4.5-4.5,10.5-4.5,16.5s1.5,12,4.5,16.5c3,6,7.5,9,13.5,9c6,0,10.5-3,13.5-9
				C1117.5,520,1119,514,1119,508z"/>
			<path style="fill:#FFFFFF;" d="M1210.5,542.5H1197l-1.5-7.5l0,0c-4.5,6-12,9-21,9c-6,0-12-1.5-16.5-6c-3-4.5-6-9-6-15
				c0-9,3-15,10.5-19.5s18-6,30-6V496c0-9-4.5-13.5-15-13.5c-7.5,0-13.5,1.5-18,4.5l-3-10.5c6-4.5,15-6,24-6c18,0,27,9,27,28.5v25.5
				C1210.5,532,1210.5,538,1210.5,542.5z M1195.5,518.5V508c-16.5,0-25.5,4.5-25.5,13.5c0,3,1.5,6,3,7.5c1.5,1.5,4.5,3,7.5,3
				c3,0,6-1.5,9-3c3-1.5,4.5-4.5,6-9C1195.5,520,1195.5,520,1195.5,518.5z"/>
			<path style="fill:#FFFFFF;" d="M1299,542.5h-13.5v-12l0,0c-4.5,9-12,13.5-22.5,13.5c-9,0-15-3-21-10.5c-6-6-9-15-9-25.5
				c0-12,3-21,9-27c6-6,13.5-10.5,21-10.5c9,0,16.5,3,19.5,9l0,0v-39h15v84C1299,530.5,1299,536.5,1299,542.5z M1284,512.5v-12
				c0-1.5,0-3,0-4.5c-1.5-3-3-7.5-6-9c-3-3-6-4.5-10.5-4.5c-6,0-10.5,3-13.5,7.5c-3,4.5-4.5,10.5-4.5,18c0,7.5,1.5,12,4.5,16.5
				c3,4.5,7.5,7.5,13.5,7.5c4.5,0,9-1.5,12-6S1284,518.5,1284,512.5z"/>
			<path style="fill:#FFFFFF;" d="M1432.5,506.5c0,10.5-3,19.5-9,27s-15,10.5-25.5,10.5c-10.5,0-18-3-24-10.5s-9-15-9-25.5
				s3-19.5,9-27s15-10.5,25.5-10.5c10.5,0,18,3,25.5,10.5C1429.5,488.5,1432.5,496,1432.5,506.5z M1417.5,508c0-6-1.5-12-4.5-16.5
				c-3-6-7.5-9-13.5-9c-6,0-10.5,3-15,9c-3,4.5-4.5,9-4.5,16.5c0,6,1.5,12,4.5,16.5c3,6,7.5,9,13.5,9c6,0,10.5-3,13.5-9
				C1416,520,1417.5,514,1417.5,508z"/>
			<path style="fill:#FFFFFF;" d="M1516.5,542.5h-15V502c0-12-4.5-18-13.5-18c-4.5,0-9,1.5-10.5,4.5c-3,3-4.5,7.5-4.5,12v42h-15V493
				c0-6,0-13.5,0-19.5h13.5V484l0,0c1.5-3,4.5-6,7.5-9c4.5-3,9-4.5,13.5-4.5c6,0,12,1.5,16.5,6c6,4.5,7.5,13.5,7.5,22.5V542.5z"/>
			<path style="fill:#FFFFFF;" d="M1621.5,484H1605v34.5c0,9,3,13.5,9,13.5c3,0,4.5,0,7.5,0v12c-3,1.5-7.5,1.5-12,1.5
				c-6,0-10.5-1.5-15-6c-3-3-4.5-10.5-4.5-19.5v-36h-10.5v-12h10.5v-12l15-4.5v18h16.5L1621.5,484L1621.5,484z"/>
			<path style="fill:#FFFFFF;" d="M1704,542.5h-15V502c0-12-4.5-19.5-13.5-19.5c-7.5,0-12,3-15,10.5c0,1.5,0,3,0,6v42h-15V440.5h15
				v42l0,0c4.5-7.5,12-12,21-12c6,0,12,1.5,16.5,6c6,6,7.5,13.5,7.5,24C1704,500.5,1704,542.5,1704,542.5z"/>
			<path style="fill:#FFFFFF;" d="M1789.5,503.5c0,3,0,4.5,0,7.5H1743c0,7.5,3,12,7.5,16.5c4.5,3,9,4.5,15,4.5
				c7.5,0,13.5-1.5,19.5-3l3,10.5c-6,3-15,4.5-24,4.5c-10.5,0-19.5-3-25.5-9c-6-6-9-15-9-25.5s3-19.5,9-27s13.5-10.5,24-10.5
				s18,3,22.5,10.5C1786.5,488.5,1789.5,496,1789.5,503.5z M1774.5,500.5c0-4.5-1.5-9-3-12c-3-4.5-7.5-6-12-6c-4.5,0-9,1.5-12,6
				c-3,3-4.5,7.5-4.5,12C1741.5,500.5,1774.5,500.5,1774.5,500.5z"/>
		</g>
	</g>
</g>
</svg>
