<?xml version="1.0" standalone="no"?>
<!-- Generator: Adobe Fireworks 10, Export SVG Extension by Aaron Beall (http://fireworks.abeall.com) . Version: 0.6.1  -->
<!DOCTYPE svg PUBLIC "-//W3C//DTD SVG 1.1//EN" "http://www.w3.org/Graphics/SVG/1.1/DTD/svg11.dtd">
<svg id="apps_32-Page%201" viewBox="0 0 32 32" style="background-color:#ffffff00" version="1.1"
	xmlns="http://www.w3.org/2000/svg" xmlns:xlink="http://www.w3.org/1999/xlink" xml:space="preserve"
	x="0px" y="0px" width="32px" height="32px"
>
	<g id="Layer%201">
		<path d="M 22 2 L 29 2 L 29 9 L 22 9 L 22 2 Z" fill="#000000"/>
		<path d="M 12 2 L 19 2 L 19 9 L 12 9 L 12 2 Z" fill="#000000"/>
		<path d="M 2 2 L 9 2 L 9 9 L 2 9 L 2 2 Z" fill="#000000"/>
		<path d="M 22 12 L 29 12 L 29 19 L 22 19 L 22 12 Z" fill="#000000"/>
		<path d="M 12 12 L 19 12 L 19 19 L 12 19 L 12 12 Z" fill="#000000"/>
		<path d="M 2 12 L 9 12 L 9 19 L 2 19 L 2 12 Z" fill="#000000"/>
		<path d="M 22 22 L 29 22 L 29 29 L 22 29 L 22 22 Z" fill="#000000"/>
		<path d="M 12 22 L 19 22 L 19 29 L 12 29 L 12 22 Z" fill="#000000"/>
		<path d="M 2 22 L 9 22 L 9 29 L 2 29 L 2 22 Z" fill="#000000"/>
	</g>
</svg>