<?xml version="1.0" encoding="utf-8"?>
<!-- Generator: Adobe Illustrator 18.1.1, SVG Export Plug-In . SVG Version: 6.00 Build 0)  -->
<!DOCTYPE svg PUBLIC "-//W3C//DTD SVG 1.1//EN" "http://www.w3.org/Graphics/SVG/1.1/DTD/svg11.dtd">
<svg version="1.1" id="assets" xmlns="http://www.w3.org/2000/svg" xmlns:xlink="http://www.w3.org/1999/xlink" x="0px" y="0px"
	 width="14px" height="16px" viewBox="0 0 14 16" enable-background="new 0 0 14 16" xml:space="preserve">
<g>
	<path fill="#7B8FA6" d="M0,0v16h14V5h-4v3H8v1h1v1H8v1h1v1H8v1h1v1H8v1H5v-1h1v-1H5v-1h1v-1H5v-1h1V9H5V8H4V0H0z"/>
	<path fill="#7B8FA6" d="M10,0v4h4L10,0z"/>
	<path fill="#7B8FA6" d="M6,4h2v2H6V4z M5,0v7h4V0H5z"/>
</g>
</svg>
