<?xml version="1.0" encoding="utf-8"?>
<!-- Generator: Adobe Illustrator 18.1.1, SVG Export Plug-In . SVG Version: 6.00 Build 0)  -->
<!DOCTYPE svg PUBLIC "-//W3C//DTD SVG 1.1//EN" "http://www.w3.org/Graphics/SVG/1.1/DTD/svg11.dtd">
<svg version="1.1" id="assets" xmlns="http://www.w3.org/2000/svg" xmlns:xlink="http://www.w3.org/1999/xlink" x="0px" y="0px"
	 width="78px" height="96px" viewBox="0 0 78 96" enable-background="new 0 0 78 96" xml:space="preserve">
<g>
	<g>
		<path id="background_140_" fill="#CAD5E0" d="M0,6v90h78V27H57V6H0z"/>
		<path id="shadow_88_" opacity="0.2" fill="#1B3F63" enable-background="new    " d="M78,48L57,27h21V48z"/>
		<path id="foldedCorner_140_" fill="#294769" d="M57,6l21,21H57V6z"/>
	</g>
	<g>
		<g>
			<path opacity="0.502" fill="#294769" enable-background="new    " d="M33,42h11.5c0.3,0,0.5,0.2,0.5,0.5v2c0,0.3-0.2,0.5-0.5,0.5
				H33V42z"/>
			<path opacity="0.502" fill="#294769" enable-background="new    " d="M33,60h11.5c0.3,0,0.5,0.2,0.5,0.5v2c0,0.3-0.2,0.5-0.5,0.5
				H33V60z"/>
			<path opacity="0.502" fill="#294769" enable-background="new    " d="M33,36h11.5c0.3,0,0.5,0.2,0.5,0.5v2c0,0.3-0.2,0.5-0.5,0.5
				H33V36z"/>
			<path opacity="0.502" fill="#294769" enable-background="new    " d="M33,54h11.5c0.3,0,0.5,0.2,0.5,0.5v2c0,0.3-0.2,0.5-0.5,0.5
				H33V54z"/>
			<path opacity="0.502" fill="#294769" enable-background="new    " d="M33,48h11.5c0.3,0,0.5,0.2,0.5,0.5v2c0,0.3-0.2,0.5-0.5,0.5
				H33V48z"/>
			<path opacity="0.502" fill="#294769" enable-background="new    " d="M33,66h11.5c0.3,0,0.5,0.2,0.5,0.5v2c0,0.3-0.2,0.5-0.5,0.5
				H33V66z"/>
			<path opacity="0.502" fill="#294769" enable-background="new    " d="M33,72h11.5c0.3,0,0.5,0.2,0.5,0.5v2c0,0.3-0.2,0.5-0.5,0.5
				H33V72z"/>
			<path opacity="0.502" fill="#294769" enable-background="new    " d="M30.5,33H42v3H30.5c-0.3,0-0.5-0.2-0.5-0.5v-2
				C30,33.2,30.2,33,30.5,33z"/>
			<path opacity="0.502" fill="#294769" enable-background="new    " d="M30.5,45H42v3H30.5c-0.3,0-0.5-0.2-0.5-0.5v-2
				C30,45.2,30.2,45,30.5,45z"/>
			<path opacity="0.502" fill="#294769" enable-background="new    " d="M30.5,63H42v3H30.5c-0.3,0-0.5-0.2-0.5-0.5v-2
				C30,63.2,30.2,63,30.5,63z"/>
			<path opacity="0.502" fill="#294769" enable-background="new    " d="M30.5,39H42v3H30.5c-0.3,0-0.5-0.2-0.5-0.5v-2
				C30,39.2,30.2,39,30.5,39z"/>
			<path opacity="0.502" fill="#294769" enable-background="new    " d="M30.5,57H42v3H30.5c-0.3,0-0.5-0.2-0.5-0.5v-2
				C30,57.2,30.2,57,30.5,57z"/>
			<path opacity="0.502" fill="#294769" enable-background="new    " d="M30.5,51H42v3H30.5c-0.3,0-0.5-0.2-0.5-0.5v-2
				C30,51.2,30.2,51,30.5,51z"/>
			<path opacity="0.502" fill="#294769" enable-background="new    " d="M30.5,69H42v3H30.5c-0.3,0-0.5-0.2-0.5-0.5v-2
				C30,69.2,30.2,69,30.5,69z"/>
			<path opacity="0.502" fill="#294769" enable-background="new    " d="M30.5,75H42v3H30.5c-0.3,0-0.5-0.2-0.5-0.5v-2
				C30,75.2,30.2,75,30.5,75z"/>
			<path opacity="0.502" fill="#294769" enable-background="new    " d="M33,78h11.5c0.3,0,0.5,0.2,0.5,0.5v2c0,0.3-0.2,0.5-0.5,0.5
				H33V78z"/>
			<path opacity="0.502" fill="#294769" enable-background="new    " d="M33,90h11.5c0.3,0,0.5,0.2,0.5,0.5v2c0,0.3-0.2,0.5-0.5,0.5
				H33V90z"/>
			<path opacity="0.502" fill="#294769" enable-background="new    " d="M33,84h11.5c0.3,0,0.5,0.2,0.5,0.5v2c0,0.3-0.2,0.5-0.5,0.5
				H33V84z"/>
			<path opacity="0.502" fill="#294769" enable-background="new    " d="M30.5,81H42v3H30.5c-0.3,0-0.5-0.2-0.5-0.5v-2
				C30,81.2,30.2,81,30.5,81z"/>
			<path opacity="0.502" fill="#294769" enable-background="new    " d="M30.5,93H42v3H30.5c-0.3,0-0.5-0.2-0.5-0.5v-2
				C30,93.2,30.2,93,30.5,93z"/>
			<path opacity="0.502" fill="#294769" enable-background="new    " d="M30.5,87H42v3H30.5c-0.3,0-0.5-0.2-0.5-0.5v-2
				C30,87.2,30.2,87,30.5,87z"/>
		</g>
		<path fill="#294769" d="M36,33h3v63h-3V33z"/>
	</g>
	<g>
		<path fill="#294769" d="M35,0h5v10h-5V0z"/>
		<path fill="#294769" d="M33.8,18h7.5c0.4,0,0.8,0.3,0.8,0.8v7.5c0,0.4-0.3,0.8-0.8,0.8h-7.5c-0.4,0-0.8-0.3-0.8-0.8v-7.5
			C33,18.3,33.3,18,33.8,18z M30,3.8V32c0,0.6,0.4,1,1,1h13c0.6,0,1-0.4,1-1V3.8C45,3.3,44.7,3,44.3,3H42v9h-9V3h-2.3
			C30.3,3,30,3.3,30,3.8z"/>
	</g>
</g>
</svg>
