<?xml version="1.0" encoding="utf-8"?>
<!-- Generator: Adobe Illustrator 18.1.0, SVG Export Plug-In . SVG Version: 6.00 Build 0)  -->
<svg version="1.1" id="Layer_1" xmlns="http://www.w3.org/2000/svg" xmlns:xlink="http://www.w3.org/1999/xlink" x="0px" y="0px"
	 viewBox="0 0 16 16" style="enable-background:new 0 0 16 16;" xml:space="preserve">
<g>
	<path d="M7.5,16c-2.9,0-5.4-2.4-5.4-5.3l0-6.5c0.2-1.9,1.9-3.4,3.9-3.4c2.1,0,3.9,1.7,3.9,3.9v6C10,12,8.8,13,7.5,13
		C6.2,13,5,11.9,5,10.6V6c0-0.6,0.4-1,1-1s1,0.4,1,1v4.6C7,10.8,7.3,11,7.5,11S8,10.8,8,10.6V4.7c0-1-1-1.9-2-1.9S4,3.7,4,4.7v6
		C4,12.5,5.7,14,7.5,14c1.8,0,3.5-1.5,3.5-3.3V6c0-0.6,0.4-1,1-1s1,0.4,1,1v4.7C13,13.6,10.4,16,7.5,16z"/>
</g>
</svg>
