<?xml version="1.0" encoding="utf-8"?>
<!-- Generator: Adobe Illustrator 18.1.1, SVG Export Plug-In . SVG Version: 6.00 Build 0)  -->
<!DOCTYPE svg PUBLIC "-//W3C//DTD SVG 1.1//EN" "http://www.w3.org/Graphics/SVG/1.1/DTD/svg11.dtd">
<svg version="1.1" id="assets" xmlns="http://www.w3.org/2000/svg" xmlns:xlink="http://www.w3.org/1999/xlink" x="0px" y="0px"
	 width="78px" height="94px" viewBox="0 0 78 94" enable-background="new 0 0 78 94" xml:space="preserve">
<g>
	<g>
		<path fill="#CAD5E0" d="M0,0v94h78V20H58V0H0z"/>
		<path fill="#294769" d="M58,0l20,20H58V0z"/>
		<path opacity="0.2" fill="#1B3F63" enable-background="new    " d="M58,20h20v20L58,20z"/>
	</g>
	<g>
		<path fill="#294769" d="M48.9,27.7L48.9,27.7c-0.4,0.7-0.1,1.6,0.5,2.1c5.8,4,9.6,10.6,9.6,18.2c0,7.9-4.1,14.8-10.3,18.7
			c-0.7,0.4-1,1.3-0.6,2.1l0,0c0.4,0.7,1.2,1,1.9,0.6C57.2,64.9,62,57,62,48c0-8.7-4.4-16.3-11.1-20.7C50.2,26.8,49.3,27,48.9,27.7z
			"/>
		<polygon fill="#294769" points="24,41 18,41 18,55 24,55 35,64 35,32 		"/>
		<path fill="#294769" d="M44.7,35.4L44.7,35.4c-0.4,0.7-0.2,1.6,0.5,2.1c3.1,2.4,5.1,6.2,5.1,10.4c0,4.4-2.2,8.3-5.5,10.7
			c-0.7,0.5-0.9,1.4-0.6,2.1l0,0.1c0.4,0.7,1.2,1,1.9,0.5c4.3-2.9,7.1-7.8,7.1-13.4c0-5.3-2.6-10.1-6.6-13
			C45.9,34.5,45,34.7,44.7,35.4z"/>
		<path fill="#294769" d="M40.6,50.5c-0.5,0.7-0.7,1.6-0.4,2.3l0,0c0.4,0.7,1.2,1,1.8,0.4c1.4-1.3,2.3-3.2,2.3-5.3
			c0-2-0.8-3.9-2.2-5.2c-0.6-0.6-1.5-0.4-1.8,0.4l0,0c-0.4,0.7-0.2,1.7,0.3,2.3c0.5,0.7,0.8,1.6,0.8,2.5
			C41.4,48.9,41.1,49.8,40.6,50.5z"/>
	</g>
</g>
</svg>
