<?xml version="1.0" encoding="utf-8"?>
<!-- Generator: Adobe Illustrator 18.1.1, SVG Export Plug-In . SVG Version: 6.00 Build 0)  -->
<!DOCTYPE svg PUBLIC "-//W3C//DTD SVG 1.1//EN" "http://www.w3.org/Graphics/SVG/1.1/DTD/svg11.dtd">
<svg version="1.1" id="assets" xmlns="http://www.w3.org/2000/svg" xmlns:xlink="http://www.w3.org/1999/xlink" x="0px" y="0px"
	 width="16px" height="14.5px" viewBox="0 0 16 14.5" enable-background="new 0 0 16 14.5" xml:space="preserve">
<g>
	<path fill="#7B8FA6" d="M11.6,0.2L11.6,0.2c-0.1,0.2,0,0.6,0.2,0.7c2,1.4,3.3,3.6,3.3,6.2c0,2.7-1.4,5-3.5,6.4
		c-0.2,0.1-0.3,0.5-0.2,0.7l0,0c0.1,0.2,0.4,0.3,0.7,0.2c2.4-1.5,4.1-4.2,4.1-7.3c0-2.9-1.5-5.5-3.8-7.1C12-0.1,11.7,0,11.6,0.2z"/>
	<polygon fill="#7B8FA6" points="3,4.6 0,4.6 0,9.6 3,9.6 7,12.6 7,1.6 	"/>
	<path fill="#7B8FA6" d="M10.1,2.9L10.1,2.9C10,3.1,10,3.4,10.3,3.6C11.3,4.4,12,5.7,12,7.1c0,1.5-0.7,2.8-1.9,3.6
		c-0.2,0.2-0.3,0.5-0.2,0.7l0,0c0.1,0.2,0.4,0.3,0.7,0.2C12,10.7,13,9,13,7.1c0-1.8-0.9-3.4-2.2-4.4C10.5,2.5,10.2,2.6,10.1,2.9z"/>
	<path fill="#7B8FA6" d="M8.7,8C8.6,8.2,8.5,8.6,8.6,8.8l0,0C8.7,9.1,9,9.1,9.2,9C9.7,8.5,10,7.9,10,7.1c0-0.7-0.3-1.3-0.7-1.8
		C9.1,5.2,8.8,5.3,8.6,5.5l0,0C8.5,5.7,8.6,6.1,8.7,6.3C8.9,6.5,9,6.8,9,7.1C9,7.5,8.9,7.8,8.7,8z"/>
</g>
</svg>
