<?xml version="1.0" encoding="utf-8"?>
<!-- Generator: Adobe Illustrator 18.1.1, SVG Export Plug-In . SVG Version: 6.00 Build 0)  -->
<!DOCTYPE svg PUBLIC "-//W3C//DTD SVG 1.1//EN" "http://www.w3.org/Graphics/SVG/1.1/DTD/svg11.dtd">
<svg version="1.1" id="assets" xmlns="http://www.w3.org/2000/svg" xmlns:xlink="http://www.w3.org/1999/xlink" x="0px" y="0px"
	 width="78px" height="94px" viewBox="0 0 78 94" enable-background="new 0 0 78 94" xml:space="preserve">
<path fill="#5F768C" d="M0,0v94h78V20H58V0H0z"/>
<path fill="#FFFFFF" d="M4,5h54v15h16v50H4V5z"/>
<path fill="#7B99B5" d="M58,0l20,20H58V0z"/>
<path opacity="0.2" fill="#1B3F63" enable-background="new    " d="M58,20h20v20L58,20z"/>
<path fill="#38BCAC" d="M27,49h-8c-3.1,0-4.2-2-3.7-3.6l-0.1,0.2c-0.4,1.4,0.1,2.1,0.5,2.9c1.4,2.7,5.8,10.7,5.8,10.7
	c0.5,1,1.2,1.9,2.5,1.9c2.5,0,6.5-2.9,6.5-2.9L45,49H27z"/>
<path fill="#8FC844" d="M29.5,15.1C29.5,15.1,29.5,15.1,29.5,15.1c-1.6,0-2,1-2.1,1.2L15.4,45.1c-0.7,1.6-0.1,3.8,3.1,3.8l8,0
	l9.3-22.1c-2.5-5.9-4.3-10.2-4.3-10.2C31.5,16.3,30.9,15.1,29.5,15.1z"/>
<g>
	<path fill="#038AB8" d="M44.3,16.2c-0.1-0.3-0.6-1.2-2-1.2c0,0-0.1,0-0.1,0l-12.8,0v0.1h0c0,0,1.9,1.2,2,1.5c0,0,1.8,4.3,4.3,10.2
		C41.4,39.8,50,61,50,61h13C63,61,44.4,16.5,44.3,16.2z"/>
</g>
</svg>
