<?xml version="1.0" standalone="no"?>
<!-- Generator: Adobe Fireworks 10, Export SVG Extension by Aaron Beall (http://fireworks.abeall.com) . Version: 0.6.1  -->
<!DOCTYPE svg PUBLIC "-//W3C//DTD SVG 1.1//EN" "http://www.w3.org/Graphics/SVG/1.1/DTD/svg11.dtd">
<svg id="bell-Page%201" viewBox="0 0 16 16" style="background-color:#ffffff00" version="1.1"
	xmlns="http://www.w3.org/2000/svg" xmlns:xlink="http://www.w3.org/1999/xlink" xml:space="preserve"
	x="0px" y="0px" width="16px" height="16px"
>
	<g id="Layer%201">
		<path d="M 12.0063 8.0625 L 12 8 L 12 6.0625 C 12.0063 6 12 6 12 6 C 12 4.1387 10.7222 2.5879 9.0005 2.1416 L 9.0005 0 L 6.9995 0 L 6.9995 2.1416 C 5.2778 2.5879 4 4.1387 4 6 L 4.0063 6.0625 C 4.0063 8 4 8 4 8 L 3.9937 8.0625 C 3.9668 9.3389 3.1436 10.4092 2.0005 10.8159 L 2.0005 12 L 4 12 L 5 12 L 6.2773 12 L 9.7227 12 L 11 12 L 12 12 L 13.9995 12 L 13.9995 10.8159 C 12.8564 10.4092 12.0332 9.3389 12.0063 8.0625 ZM 8 15 C 9.1045 15 10 14.1045 10 13 L 6 13 C 6 14.1045 6.8955 15 8 15 Z" fill="#000000"/>
	</g>
</svg>