<?xml version="1.0" encoding="utf-8"?>
<!-- Generator: Adobe Illustrator 16.0.0, SVG Export Plug-In . SVG Version: 6.00 Build 0)  -->
<!DOCTYPE svg PUBLIC "-//W3C//DTD SVG 1.1//EN" "http://www.w3.org/Graphics/SVG/1.1/DTD/svg11.dtd">
<svg version="1.1" id="Layer_1" xmlns="http://www.w3.org/2000/svg" xmlns:xlink="http://www.w3.org/1999/xlink" x="0px" y="0px"
	 width="16px" height="16px" viewBox="0 0 470 244" enable-background="new 0 0 470 244" xml:space="preserve">
<g>
	<g>
		<path fill="#00AEEF" d="M241.537,71.987c-32.853,0-61.441,18.479-75.839,45.611c-14.402-27.132-42.977-45.611-75.853-45.611
			c-19.305,0-37.139,6.385-51.528,17.17v-72.33C38.147,7.482,30.525,0,21.146,0C11.767,0,4.219,7.482,4.004,16.828v142.43h0.019
			c0.756,46.766,38.865,84.438,85.822,84.438c32.875,0,61.45-18.496,75.853-45.602c14.398,27.105,42.987,45.602,75.839,45.602
			c47.4,0,85.852-38.436,85.852-85.869C327.389,110.414,288.938,71.987,241.537,71.987 M89.845,209.322
			c-28.444,0-51.528-23.041-51.528-51.484c0-28.438,23.084-51.48,51.528-51.48c28.441,0,51.477,23.042,51.477,51.468
			C141.322,186.275,118.286,209.322,89.845,209.322 M241.537,209.322c-28.449,0-51.518-23.047-51.518-51.496
			c0-28.426,23.068-51.468,51.518-51.468c28.439,0,51.494,23.042,51.494,51.468C293.031,186.275,269.977,209.322,241.537,209.322"/>
		<path fill="#00AEEF" d="M460.604,214.953l-46.666-57.238l46.723-57.352c5.906-7.566,4.213-18.129-3.941-23.742
			c-8.164-5.661-19.619-4.209-25.938,3.131v-0.012l-40.197,49.265l-40.16-49.265v0.012c-6.254-7.341-17.779-8.792-25.92-3.131
			c-8.141,5.618-9.842,16.176-3.904,23.742h-0.018l46.639,57.352l-46.639,57.238h0.018c-5.938,7.588-4.236,18.121,3.904,23.756
			c8.141,5.637,19.666,4.201,25.92-3.15l40.16-49.195l40.141,49.195c6.324,7.352,17.775,8.787,25.939,3.15
			C464.82,233.074,466.521,222.541,460.604,214.953"/>
	</g>
</g>
</svg>
