<?xml version="1.0" encoding="utf-8"?>
<!-- Generator: Adobe Illustrator 16.0.4, SVG Export Plug-In . SVG Version: 6.00 Build 0)  -->
<!DOCTYPE svg PUBLIC "-//W3C//DTD SVG 1.1//EN" "http://www.w3.org/Graphics/SVG/1.1/DTD/svg11.dtd">
<svg version="1.1" id="Layer_1" xmlns="http://www.w3.org/2000/svg" xmlns:xlink="http://www.w3.org/1999/xlink" x="0px" y="0px"
	 width="110px" height="110px" viewBox="0 0 110 110" enable-background="new 0 0 110 110" xml:space="preserve">
<path fill-rule="evenodd" clip-rule="evenodd" d="M104.118,5.36l-15.52,15.519C70.175,3.423,41.182,3.467,22.815,21.016L6.997,5.198
	L5.345,6.852l15.822,15.823C3.725,41.047,3.712,69.958,21.131,88.346L5.335,104.144l1.647,1.646l15.786-15.786
	c18.378,17.603,47.432,17.644,65.867,0.14l15.492,15.491l1.652-1.652L90.297,88.497c17.607-18.433,17.599-47.566-0.04-65.981
	l15.509-15.508L104.118,5.36z M22.815,24.322l15.654,15.655c-7.935,8.823-7.947,22.229-0.034,31.066L53.988,55.49L38.462,39.964
	l1.648-1.649l15.526,15.526l15.661-15.662c-8.875-7.946-22.357-7.901-31.181,0.138L24.461,22.662
	c17.462-16.644,44.971-16.68,62.488-0.133L71.333,38.144l1.646,1.646L57.282,55.487l15.744,15.744l-1.648,1.648L55.634,57.136
	L40.061,72.709l-1.646-1.646L22.782,86.695C6.269,69.216,6.278,41.786,22.815,24.322z M24.42,88.353L40.071,72.7
	c8.836,8.089,22.376,8.137,31.265,0.143L86.99,88.497C69.462,105.093,41.888,105.051,24.42,88.353z M88.649,86.852L72.995,71.196
	c8.098-8.892,8.085-22.509-0.039-31.379l15.649-15.65C105.34,41.671,105.354,69.326,88.649,86.852z"/>
</svg>
