<?xml version="1.0" encoding="utf-8"?>
<!-- Generator: Adobe Illustrator 18.1.1, SVG Export Plug-In . SVG Version: 6.00 Build 0)  -->
<!DOCTYPE svg PUBLIC "-//W3C//DTD SVG 1.1//EN" "http://www.w3.org/Graphics/SVG/1.1/DTD/svg11.dtd">
<svg version="1.1" id="Layer_6" xmlns="http://www.w3.org/2000/svg" xmlns:xlink="http://www.w3.org/1999/xlink" x="0px" y="0px"
	 width="13px" height="14px" viewBox="0 0 13 14" enable-background="new 0 0 13 14" xml:space="preserve">
<path fill="#4D4D4D" d="M11.5,1H10V0.5C10,0.2,9.8,0,9.5,0S9,0.2,9,0.5V1H4V0.5C4,0.2,3.8,0,3.5,0S3,0.2,3,0.5V1H1.5
	C0.7,1,0,1.7,0,2.5v10C0,13.3,0.7,14,1.5,14h10c0.8,0,1.5-0.7,1.5-1.5v-10C13,1.7,12.3,1,11.5,1z M3,13H1v-2h2V13z M3,10H1V8h2V10z
	 M3,7H1V5h2V7z M2,2.5c0-0.7,0.4-1.2,1-1.4v1.4C3,2.8,3.2,3,3.5,3S4,2.8,4,2.5V1.1c0.6,0.2,1,0.8,1,1.4C5,3.3,4.3,4,3.5,4
	S2,3.3,2,2.5z M6,13H4v-2h2V13z M6,7H4V5h2V7z M9,13H7v-2h2V13z M9,10H7V8h2V10z M9,7H7V5h2V7z M8,2.5c0-0.7,0.4-1.2,1-1.4v1.4
	C9,2.8,9.2,3,9.5,3S10,2.8,10,2.5V1.1c0.6,0.2,1,0.8,1,1.4C11,3.3,10.3,4,9.5,4C8.7,4,8,3.3,8,2.5z M12,13h-2v-2h2V13z M12,10h-2V8
	h2V10z M12,7h-2V5h2V7z"/>
</svg>
