<?xml version="1.0" encoding="utf-8"?>
<!-- Generator: Adobe Illustrator 18.1.1, SVG Export Plug-In . SVG Version: 6.00 Build 0)  -->
<svg version="1.1" id="Layer_1" xmlns="http://www.w3.org/2000/svg" xmlns:xlink="http://www.w3.org/1999/xlink" x="0px" y="0px"
	 width="19.2px" height="16px" viewBox="0 0 19.2 16" enable-background="new 0 0 19.2 16" xml:space="preserve">
<g id="New_Hamburger_3_" display="none">
	<path display="inline" fill="#FFFFFF" d="M16.8,2.3H3.5c-0.5,0-1-0.4-1-1V1.3c0-0.5,0.4-1,1-1h13.3c0.5,0,1,0.4,1,1v0.1
		C17.8,1.9,17.4,2.3,16.8,2.3z"/>
	<path display="inline" fill="#FFFFFF" d="M16.8,8.8H3.5c-0.5,0-1-0.4-1-1V7.8c0-0.5,0.4-1,1-1h13.3c0.5,0,1,0.4,1,1v0.1
		C17.8,8.4,17.4,8.8,16.8,8.8z"/>
	<path display="inline" fill="#FFFFFF" d="M16.8,15.3H3.5c-0.5,0-1-0.4-1-1v-0.1c0-0.5,0.4-1,1-1h13.3c0.5,0,1,0.4,1,1v0.1
		C17.8,14.9,17.4,15.3,16.8,15.3z"/>
</g>
<g id="New_Close_Nav_2_">
	<path fill="#FFFFFF" d="M5.1,15L17.5,2c0.4-0.4,0.4-1,0-1.4l0,0c-0.4-0.4-1-0.4-1.4,0l-12.4,13c-0.4,0.4-0.4,1,0,1.4l0,0
		C4,15.4,4.7,15.4,5.1,15z"/>
	<path fill="#FFFFFF" d="M2.8,2.1l13.5,13c0.4,0.4,1,0.4,1.4,0l0,0c0.4-0.4,0.4-1,0-1.4L4.2,0.6c-0.4-0.4-1-0.4-1.4,0l0,0
		C2.4,1.1,2.4,1.7,2.8,2.1z"/>
</g>
<polygon id="closed_nav_item" display="none" fill="#353535" points="12,3.4 12,11.1 6.5,7.2 "/>
<polygon id="closed_nav_item_1_" display="none" fill="#353535" points="5.4,4.5 13.1,4.5 9.2,10 "/>
<g id="ic_x5F_reveal_x5F_code" display="none">
	<path display="inline" fill="#E4E4E4" d="M5.7,8c0-2,1.6-3.6,3.6-3.6S12.9,6,12.9,8s-1.6,3.6-3.6,3.6S5.7,10,5.7,8z M0.4,8
		c2.4,4.2,6.5,5.4,8.9,5.4s6.6-1.2,8.9-5.4c-2.4-4.2-6.5-5.4-8.9-5.4C7,2.6,2.8,3.8,0.4,8z M6.9,8c0,1.3,1.1,2.4,2.4,2.4
		s2.4-1.1,2.4-2.4s-1.1-2.4-2.4-2.4S6.9,6.7,6.9,8z"/>
</g>
<g id="ic_x5F_close_x5F_code" display="none">
	<path display="inline" fill="#DADADA" d="M15.3,12.2l-3.6-3.9l3.6-3.8c0.4-0.4,0.4-1,0-1.4l-0.1-0.1c-0.4-0.4-1-0.4-1.4,0L9.9,6.6
		L6,2.9c-0.4-0.4-1-0.4-1.4,0L4.5,3.1c-0.4,0.4-0.4,1,0,1.4l3.6,3.9l-3.6,3.9c-0.4,0.4-0.4,1,0,1.4l0.1,0.1c0.4,0.4,1,0.4,1.4,0
		l3.8-3.6l3.9,3.6c0.4,0.4,1,0.4,1.4,0l0.1-0.1C15.6,13.2,15.6,12.5,15.3,12.2z"/>
</g>
</svg>
