<?xml version="1.0" encoding="utf-8"?>
<!-- Generator: Adobe Illustrator 18.1.1, SVG Export Plug-In . SVG Version: 6.00 Build 0)  -->
<!DOCTYPE svg PUBLIC "-//W3C//DTD SVG 1.1//EN" "http://www.w3.org/Graphics/SVG/1.1/DTD/svg11.dtd">
<svg version="1.1" id="extensions" xmlns="http://www.w3.org/2000/svg" xmlns:xlink="http://www.w3.org/1999/xlink" x="0px" y="0px"
	 width="16px" height="16px" viewBox="0 0 16 16" enable-background="new 0 0 16 16" xml:space="preserve">
<g id="collabFile" display="none">
	<g id="fileIconBG_17_" display="inline">
		<path id="foldedCorner_9_" fill="#34AFF4" d="M11,0l5,5h-5V0z"/>
		<path id="background_9_" fill="#2590D8" d="M0,0v16h16V5h-5V0H0z"/>
		<path id="white_4_" fill="#FFFFFF" d="M1,1v8h14V5h-4V1H1z"/>
		<path id="shadow_4_" opacity="0.2" fill="#1B3F63" enable-background="new    " d="M16,10l-5-5h5V10z"/>
	</g>
	<g display="inline">
		<path fill="#FFFFFF" d="M1,12.5C1,14.2,1.9,15,3,15c0.8,0,1.7-0.6,2-1.5L4.2,13C4,13.5,3.7,14,3,14c-0.6,0-1-0.7-1-1.5
			S2.4,11,3,11c0.5,0,1,0.5,1.1,1L5,11.5C4.7,10.6,4.1,10,3,10C1.8,10,1,10.8,1,12.5z"/>
		<path fill="#FFFFFF" d="M15,15v-1h-2v-4h-1v5H15L15,15z"/>
		<path fill="#FFFFFF" d="M7,12.5C7,11.7,7.7,11,8.5,11s1.5,0.7,1.5,1.5S9.3,14,8.5,14S7,13.3,7,12.5z M6,12.5C6,13.9,7.1,15,8.5,15
			c1.4,0,2.5-1.1,2.5-2.5S9.9,10,8.5,10C7.1,10,6,11.1,6,12.5z"/>
	</g>
</g>
<g id="collabFile_x5F_redo">
	<path id="background_10_" fill="#2590D8" d="M0,0v16h16V5h-5V0H0z"/>
	<path id="white_5_" fill="#FFFFFF" d="M1,1v12h14V5h-4V1H1z"/>
	<g>
		<polygon fill="#2590D8" points="13,4.5 8,2 3,4.5 3,9.5 8,12 13,9.5 13,4.5 		"/>
		<path fill="#FFFFFF" d="M8.5,4.9c0,0.1,0,0.3,0.1,0.4l-2,1.2C6.4,6.3,6.2,6.2,5.9,6.2c-0.5,0-1,0.4-1,1s0.4,1,1,1
			c0.3,0,0.5-0.1,0.7-0.3l1.8,1.1c0,0.1,0,0.1,0,0.2c0,0.5,0.4,1,1,1c0.5,0,1-0.4,1-1s-0.4-1-1-1c-0.3,0-0.5,0.1-0.7,0.3L6.9,7.4
			c0-0.1,0-0.1,0-0.2c0-0.1,0-0.3-0.1-0.4l2-1.2C9,5.8,9.2,5.8,9.4,5.8c0.5,0,1-0.4,1-1s-0.4-1-1-1C8.9,3.9,8.5,4.3,8.5,4.9z"/>
	</g>
	<path id="shadow_5_" opacity="0.2" fill="#1B3F63" enable-background="new    " d="M16,10l-5-5h5V10z"/>
	<path id="foldedCorner_10_" fill="#34AFF4" d="M11,0l5,5h-5V0z"/>
</g>
</svg>
