<?xml version="1.0" encoding="utf-8"?>
<!-- Generator: Adobe Illustrator 18.1.1, SVG Export Plug-In . SVG Version: 6.00 Build 0)  -->
<!DOCTYPE svg PUBLIC "-//W3C//DTD SVG 1.1//EN" "http://www.w3.org/Graphics/SVG/1.1/DTD/svg11.dtd">
<svg version="1.1" id="assets" xmlns="http://www.w3.org/2000/svg" xmlns:xlink="http://www.w3.org/1999/xlink" x="0px" y="0px"
	 width="78px" height="94px" viewBox="0 0 78 94" enable-background="new 0 0 78 94" xml:space="preserve">
<g>
	<g>
		<path fill="#2590D8" d="M0,0v94h78V20H58V0H0z"/>
		<path fill="#FFFFFF" d="M4,4h54v16h16v50H4V4z"/>
		<path fill="#34AFF4" d="M58,0l20,20H58V0z"/>
		<path opacity="0.2" fill="#1B3F63" enable-background="new    " d="M58,20h20v20L58,20z"/>
	</g>
	<g>
		<g>
			<polygon fill="#1273C5" points="39,39 64,26.5 64,51.5 39,64 			"/>
			<polygon fill="#2590D8" points="39,39 14,26.5 14,51.5 39,64 			"/>
			<polygon fill="#34AFF4" points="38.9,39 14,26.5 39,14 64,26.5 			"/>
		</g>
		<g>
			<polygon fill="#1273C5" points="39,39 23.4,46.8 23.4,31.2 39,23.4 			"/>
			<polygon fill="#2590D8" points="39,39 54.6,46.8 54.6,31.2 39,23.4 			"/>
			<polygon fill="#34AFF4" points="39,39 54.6,46.8 39,54.6 23.4,46.8 			"/>
		</g>
		<path fill="#FFFFFF" d="M39.9,32.2c0,0.4,0.1,0.8,0.2,1.2l-6.4,3.8c-0.5-0.4-1.2-0.7-1.9-0.7c-1.7,0-3.1,1.4-3.1,3.1
			s1.4,3.1,3.1,3.1c0.9,0,1.7-0.4,2.3-1l5.8,3.5c0,0.2-0.1,0.4-0.1,0.6c0,1.7,1.4,3.1,3.1,3.1c1.7,0,3.1-1.4,3.1-3.1
			c0-1.7-1.4-3.1-3.1-3.1c-0.9,0-1.7,0.4-2.3,1l-5.8-3.5c0-0.2,0.1-0.4,0.1-0.7c0-0.4-0.1-0.8-0.2-1.2l6.4-3.8
			c0.5,0.4,1.2,0.7,1.9,0.7c1.7,0,3.1-1.4,3.1-3.1c0-1.7-1.4-3.1-3.1-3.1C41.3,29.1,39.9,30.5,39.9,32.2z"/>
	</g>
</g>
</svg>
