<?xml version="1.0" standalone="no"?>
<!-- Generator: Adobe Fireworks 10, Export SVG Extension by Aaron Beall (http://fireworks.abeall.com) . Version: 0.6.1  -->
<!DOCTYPE svg PUBLIC "-//W3C//DTD SVG 1.1//EN" "http://www.w3.org/Graphics/SVG/1.1/DTD/svg11.dtd">
<svg id="data_32-Page%201" viewBox="0 0 32 32" style="background-color:#ffffff00" version="1.1"
	xmlns="http://www.w3.org/2000/svg" xmlns:xlink="http://www.w3.org/1999/xlink" xml:space="preserve"
	x="0px" y="0px" width="32px" height="32px"
>
	<g id="Layer%201">
		<g>
			<path id="Ellipse" d="M 5 7 C 5 4.7908 9.7009 3 15.5 3 C 21.2991 3 26 4.7908 26 7 C 26 9.2092 21.2991 11 15.5 11 C 9.7009 11 5 9.2092 5 7 Z" fill="#000000"/>
			<path d="M 5 17.04 C 6.7964 18.7833 10.822 20 15.5 20 C 20.178 20 24.2036 18.7833 26 17.04 L 26 9.04 C 24.2036 10.7832 20.178 12 15.5 12 C 10.822 12 6.7964 10.7832 5 9.04 L 5 17.04 Z" fill="#000000"/>
			<path d="M 5 25.04 C 6.7964 26.7833 10.822 28 15.5 28 C 20.178 28 24.2036 26.7833 26 25.04 L 26 18.04 C 24.2036 19.7832 20.178 21 15.5 21 C 10.822 21 6.7964 19.7832 5 18.04 L 5 25.04 Z" fill="#000000"/>
		</g>
	</g>
</svg>