<?xml version="1.0" standalone="no"?>
<!-- Generator: Adobe Fireworks 10, Export SVG Extension by Aaron Beall (http://fireworks.abeall.com) . Version: 0.6.1  -->
<!DOCTYPE svg PUBLIC "-//W3C//DTD SVG 1.1//EN" "http://www.w3.org/Graphics/SVG/1.1/DTD/svg11.dtd">
<svg id="dataCard_wiki_270x230-Page%201" viewBox="0 0 270 230" style="background-color:#ffffff" version="1.1"
	xmlns="http://www.w3.org/2000/svg" xmlns:xlink="http://www.w3.org/1999/xlink" xml:space="preserve"
	x="0px" y="0px" width="270px" height="230px"
>
	<g id="Layer%201">
		<path d="M 0 0 L 270 0 L 270 230 L 0 230 L 0 0 Z" fill="#4f687c"/>
		<path opacity="0.0784" d="M 63 190 L 103 230 L 270 230 L 270 110 L 200 40 L 63 190 Z" fill="#000000"/>
		<g>
			<path d="M 113 77 L 169 77 L 169 96 L 113 96 L 113 77 ZM 68 45 L 89 45 L 89 185 L 68 185 L 68 45 ZM 63 40 L 63 190 L 200 190 L 200 40 L 63 40 Z" fill="#edeff1"/>
			<path d="M 63 40 L 89 40 L 89 190 L 63 190 L 63 40 Z" fill="#a7b4be"/>
			<path d="M 113 77 L 169 77 L 169 96 L 113 96 L 113 77 Z" fill="#a7b4be"/>
		</g>
		<path d="M 87 40 L 89 40 L 89 190 L 87 190 L 87 40 Z" fill="#4f687c"/>
	</g>
</svg>