<?xml version="1.0" encoding="utf-8"?>
<!-- Generator: Adobe Illustrator 18.1.1, SVG Export Plug-In . SVG Version: 6.00 Build 0)  -->
<!DOCTYPE svg PUBLIC "-//W3C//DTD SVG 1.1//EN" "http://www.w3.org/Graphics/SVG/1.1/DTD/svg11.dtd">
<svg version="1.1" id="assets" xmlns="http://www.w3.org/2000/svg" xmlns:xlink="http://www.w3.org/1999/xlink" x="0px" y="0px"
	 width="78px" height="94px" viewBox="0 0 78 94" enable-background="new 0 0 78 94" xml:space="preserve">
<g>
	<rect x="15" y="23" fill="#0C5089" width="48" height="3"/>
	<rect x="15" y="32" fill="#0C5089" width="48" height="3"/>
	<rect x="15" y="41" fill="#0C5089" width="48" height="3"/>
	<rect x="15" y="50" fill="#0C5089" width="36" height="3"/>
</g>
<g>
	<path fill="#0C5089" d="M0,0v94h78V20H58V0H0z"/>
	<path fill="#FFFFFF" d="M4,5h54v15h16v50H4V5z"/>
	<path fill="#1273C5" d="M58,0l20,20H58V0z"/>
	<path opacity="0.2" fill="#1B3F63" enable-background="new    " d="M58,20h20v20L58,20z"/>
</g>
<rect x="15" y="24" fill="#1273C5" fill-opacity="0.9" width="48" height="3"/>
<rect x="15" y="33" fill="#1273C5" fill-opacity="0.9" width="48" height="3"/>
<rect x="15" y="42" fill="#1273C5" fill-opacity="0.9" width="48" height="3"/>
<rect x="15" y="51" fill="#1273C5" fill-opacity="0.9" width="40" height="3"/>
</svg>
