<?xml version="1.0" standalone="no"?>
<!-- Generator: Adobe Fireworks 10, Export SVG Extension by Aaron Beall (http://fireworks.abeall.com) . Version: 0.6.1  -->
<!DOCTYPE svg PUBLIC "-//W3C//DTD SVG 1.1//EN" "http://www.w3.org/Graphics/SVG/1.1/DTD/svg11.dtd">
<svg id="A360_Drive_updatedIcon_44-Page%201" viewBox="0 0 44 44" style="background-color:#ffffff00" version="1.1"
	xmlns="http://www.w3.org/2000/svg" xmlns:xlink="http://www.w3.org/1999/xlink" xml:space="preserve"
	x="0px" y="0px" width="44px" height="44px"
>
	<g id="Layer%201">
		<path d="M 7.5 32 L 36.5 32 C 38.433 32 40 33.567 40 35.5 C 40 37.433 38.433 39 36.5 39 L 7.5 39 C 5.567 39 4 37.433 4 35.5 C 4 33.567 5.567 32 7.5 32 ZM 25 20 C 25 20 18.4901 24.0086 17.125 24.6875 C 15.747 25.3729 14.6085 24.7463 14.2378 24.0662 C 13.8707 23.3926 12.252 20.8077 11.6038 19.7831 C 11.2933 19.3071 11.2813 18.9318 11.4073 18.7815 C 11.2109 19.0907 12.0625 20 13 20 L 25 20 ZM 17.375 19 L 12.8265 19 C 11.9154 19 11.817 18.0437 12.1494 17.442 C 12.4789 16.8456 16.7919 8.7438 17.0981 8.304 C 17.4022 7.8673 18.2757 8.1035 18.483 8.4137 C 18.6912 8.7254 20.625 12.375 20.625 12.375 L 17.375 19 ZM 34.9989 25 L 28.6953 25 C 28.5377 25 19.3728 7.7292 19.2106 7.4369 C 19.049 7.1459 18.5435 6.9828 18.1059 7.1096 C 18.3136 6.9828 18.6812 7.0009 18.934 7.0009 L 23.7603 7.0009 C 24.0591 7.0009 24.7058 7.0733 25.0325 7.656 C 25.3622 8.244 35.1171 25 34.9989 25 ZM 1 30.9189 L 1 36.4594 C 1 40.0823 3.0263 42 6.5264 42 L 37.4736 42 C 41.3237 42 43 40.1707 43 36.4594 L 43 30.9189 L 39.6843 4.3243 C 39.4856 2.9248 37.7684 1 36.3684 1 L 7.6316 1 C 6.2316 1 4.5137 2.9248 4.3157 4.3243 L 1 30.9189 Z" fill="#999999"/>
		<path id="Ellipse" d="M 33 35.5 C 33 34.1193 34.1193 33 35.5 33 C 36.8807 33 38 34.1193 38 35.5 C 38 36.8807 36.8807 38 35.5 38 C 34.1193 38 33 36.8807 33 35.5 Z" fill="#999999"/>
	</g>
</svg>