<?xml version="1.0" encoding="utf-8"?>
<!-- Generator: Adobe Illustrator 16.0.4, SVG Export Plug-In . SVG Version: 6.00 Build 0)  -->
<!DOCTYPE svg PUBLIC "-//W3C//DTD SVG 1.1//EN" "http://www.w3.org/Graphics/SVG/1.1/DTD/svg11.dtd">
<svg version="1.1" id="Layer_1" xmlns="http://www.w3.org/2000/svg" xmlns:xlink="http://www.w3.org/1999/xlink" x="0px" y="0px"
	 width="34px" height="38px" viewBox="0 0 34 38" enable-background="new 0 0 34 38" xml:space="preserve">
<circle fill-rule="evenodd" clip-rule="evenodd" cx="17.011" cy="17.114" r="3.93"/>
<circle fill-rule="evenodd" clip-rule="evenodd" cx="7.895" cy="29.371" r="1.564"/>
<path fill-rule="evenodd" clip-rule="evenodd" d="M29.185,1.799H4.842c-1.68,0-3.042,1.362-3.042,3.042v28.917
	c0,1.68,1.362,3.042,3.042,3.042h24.343c1.68,0,3.042-1.362,3.042-3.042V4.842C32.227,3.162,30.864,1.799,29.185,1.799z
	 M16.633,26.15c0,0-6.361,5.374-7.647,6.105c-1.286,0.73-3.374-0.2-3.977-1.795c-0.504-1.331-0.023-2.797,1.08-3.591
	c0.215-0.156,0.455-0.285,0.715-0.385l9.145-2.038c0.377-0.083,0.783,0.077,0.995,0.426C17.211,25.313,17.072,25.884,16.633,26.15z
	 M17.011,28.737l1.286-1.289c0,0,1.402-1.501,0.587-3.405c-0.814-1.906-3.046-1.493-3.046-1.493l-7.942,1.774
	c-1.569-1.981-2.506-4.487-2.506-7.21c0-6.417,5.204-11.621,11.621-11.621c6.419,0,11.623,5.204,11.623,11.621
	C28.634,23.534,23.431,28.737,17.011,28.737z"/>
</svg>
