<?xml version="1.0" standalone="no"?>
<!-- Generator: Adobe Fireworks 10, Export SVG Extension by Aaron Beall (http://fireworks.abeall.com) . Version: 0.6.1  -->
<!DOCTYPE svg PUBLIC "-//W3C//DTD SVG 1.1//EN" "http://www.w3.org/Graphics/SVG/1.1/DTD/svg11.dtd">
<svg id="dropbox_16-Page%201" viewBox="0 0 16 16" style="background-color:#ffffff00" version="1.1"
	xmlns="http://www.w3.org/2000/svg" xmlns:xlink="http://www.w3.org/1999/xlink" xml:space="preserve"
	x="0px" y="0px" width="16px" height="16px"
>
	<g id="Layer%201">
		<g>
			<g>
				<path d="M 3.2676 5.7237 L 8 2.7914 L 4.7042 0 L 0 3.1297 L 3.2676 5.7237 Z" fill="#3179be"/>
				<path d="M 3.2676 5.7519 L 8 8.6842 L 4.7042 11.4756 L 0 8.3459 L 3.2676 5.7519 Z" fill="#3179be"/>
				<path d="M 12.7324 5.7237 L 8 2.7914 L 11.2958 0 L 16 3.1297 L 12.7324 5.7237 Z" fill="#3179be"/>
				<path d="M 12.7324 5.7519 L 8 8.6842 L 11.2958 11.4756 L 16 8.3459 L 12.7324 5.7519 Z" fill="#3179be"/>
			</g>
			<path d="M 3.2958 11.5153 L 4.7042 12.4175 L 8.0282 9.6544 L 11.3521 12.4175 L 12.7605 11.4589 L 12.7605 12.5303 L 8.0282 15.4063 L 3.2958 12.5303 L 3.2958 11.5153 Z" fill="#3179be"/>
		</g>
	</g>
</svg>