<?xml version="1.0" encoding="utf-8"?>
<!-- Generator: Adobe Illustrator 18.1.1, SVG Export Plug-In . SVG Version: 6.00 Build 0)  -->
<!DOCTYPE svg PUBLIC "-//W3C//DTD SVG 1.1//EN" "http://www.w3.org/Graphics/SVG/1.1/DTD/svg11.dtd">
<svg version="1.1" id="assets" xmlns="http://www.w3.org/2000/svg" xmlns:xlink="http://www.w3.org/1999/xlink" x="0px" y="0px"
	 width="79px" height="95px" viewBox="0 0 79 95" enable-background="new 0 0 79 95" xml:space="preserve">
<g>
	<path fill="#0C5089" d="M0,0v95h79V20l-18-2L59,0H0z"/>
	<path fill="#FFFFFF" d="M4,4h55l16,16v50H4V4z"/>
	<path fill="#1273C5" d="M59,0l20,20H59V0z"/>
	<path opacity="0.2" fill="#1B3F63" enable-background="new    " d="M59,20h20v20L59,20z"/>
</g>
<g>
	<circle fill="#059DD2" cx="39" cy="38" r="23"/>
	<path fill="#37B9E5" d="M39,15c-1.3,0-2.5,0.1-3.7,0.3C29.2,18.6,25,25,25,32.5C25,43.3,33.7,52,44.5,52c7.5,0,13.9-4.2,17.2-10.3
		c0.2-1.2,0.3-2.4,0.3-3.7C62,25.3,51.7,15,39,15z"/>
	<g>
		<path fill="#FF9B0D" d="M60,47.4c-0.9-12.2-19.3-22.7-34.5-21.2C25,28.3,25,29.3,25,29.3l-5.2-2.7l7.9-5.2c0,0-0.7,1.5-1.6,3.1
			C40.1,23.5,60.1,32.5,60,47.4z"/>
		<path fill="#FFE44D" d="M17.6,47.7c10.6,6.6,30.3-2.1,38.4-15.5c-1.4-1.7-2.3-2.2-2.3-2.2l5.4-2.6L58.6,37c0,0-0.8-1.4-1.5-3.2
			C49.3,45.9,29.7,56.8,17.6,47.7z"/>
		<g>
			<path fill="#EB3434" d="M31,24.5c1.4-4.1,3.6-7.5,6.8-9.5c-3.9,2-6.6,5.4-8.2,9.4C30.1,24.4,30.6,24.4,31,24.5z"/>
			<path fill="#EB3434" d="M30.5,26.1c-0.5,0-1-0.1-1.4-0.1c-2.9,9.4-0.7,21.7,4.2,29.7c-1.9-0.1-3.5,0-3.5,0l8.3,4.6v-5.9
				c0,0-0.9,0.5-2.9,1.1C29.7,47.1,28.1,35.2,30.5,26.1z"/>
		</g>
	</g>
</g>
</svg>
