<?xml version="1.0" encoding="utf-8"?>
<!-- Generator: Adobe Illustrator 18.1.1, SVG Export Plug-In . SVG Version: 6.00 Build 0)  -->
<!DOCTYPE svg PUBLIC "-//W3C//DTD SVG 1.1//EN" "http://www.w3.org/Graphics/SVG/1.1/DTD/svg11.dtd">
<svg version="1.1" id="assets" xmlns="http://www.w3.org/2000/svg" xmlns:xlink="http://www.w3.org/1999/xlink" x="0px" y="0px"
	 width="16px" height="16px" viewBox="0 0 16 16" enable-background="new 0 0 16 16" xml:space="preserve">
<g>
	<g id="fileIconBG_1_">
		<path id="foldedCorner_1_" fill="#1273C5" d="M11,0l5,5h-5V0z"/>
		<path id="background_1_" fill="#0C5089" d="M0,0v16h16V5h-5V0H0z"/>
		<path id="white_1_" fill="#FFFFFF" d="M1,1v8h14V5h-4V1H1z"/>
		<path id="shadow_1_" opacity="0.2" fill="#1B3F63" enable-background="new    " d="M16,10l-5-5h5V10z"/>
	</g>
	<g>
		<path fill="#FFFFFF" d="M7.5,15l1-3l1,3h1.2l1.3-5h-1l-1,3.5L9,10H8l-1,3.4L6,10H5l1.3,5H7.5z"/>
		<path fill="#FFFFFF" d="M1,15h2c0.4,0,2,0,2-2.5C5,10,3.4,10,3,10H1V15L1,15z M3,11c0.3,0,1,0,1,1.5C4,14,3.2,14,3,14
			c-0.2,0-1,0-1,0v-3C2,11,2.7,11,3,11z"/>
		<path fill="#FFFFFF" d="M13,15v-2h2v-1h-2v-1h2v-1h-3v5H13L13,15z"/>
	</g>
	<g>
		<circle fill="#059DD2" cx="8" cy="5" r="3"/>
		<circle fill="#37B9E5" cx="9" cy="4" r="2"/>
	</g>
</g>
</svg>
