<?xml version="1.0" encoding="utf-8"?>
<!-- Generator: Adobe Illustrator 18.1.1, SVG Export Plug-In . SVG Version: 6.00 Build 0)  -->
<!DOCTYPE svg PUBLIC "-//W3C//DTD SVG 1.1//EN" "http://www.w3.org/Graphics/SVG/1.1/DTD/svg11.dtd">
<svg version="1.1" id="assets" xmlns="http://www.w3.org/2000/svg" xmlns:xlink="http://www.w3.org/1999/xlink" x="0px" y="0px"
	 width="26px" height="30px" viewBox="0 0 26 30" enable-background="new 0 0 26 30" xml:space="preserve">
<g>
	<path id="foldedCorner_160_" fill="#1273C5" d="M19,0l7,7h-7V0z"/>
	<path id="background_160_" fill="#0C5089" d="M0,0v30h26V7h-7V0H0z"/>
	<path id="white_110_" fill="#FFFFFF" d="M1,1v20h24V7h-6V1H1z"/>
	<path id="shadow_136_" opacity="0.2" fill="#1B3F63" enable-background="new    " d="M26,14l-7-7h7V14z"/>
</g>
<g>
	<circle fill="#059DD2" cx="13" cy="11" r="7"/>
	<path fill="#37B9E5" d="M13,4c-0.4,0-0.8,0-1.1,0.1c-1.9,1-3.1,3-3.1,5.2c0,3.3,2.7,5.9,5.9,5.9c2.3,0,4.2-1.3,5.2-3.1
		C20,11.8,20,11.4,20,11C20,7.1,16.9,4,13,4z"/>
	<g>
		<path fill="#FF9B0D" d="M19.4,13.9C19.1,10.2,13.5,7,8.9,7.4C8.7,8,8.8,8.3,8.8,8.3L7.2,7.5l2.4-1.6c0,0-0.2,0.4-0.5,0.9
			C13.3,6.6,19.4,9.3,19.4,13.9z"/>
		<path fill="#FFE44D" d="M6.5,13.9c3.2,2,9.2-0.6,11.7-4.7c-0.4-0.5-0.7-0.7-0.7-0.7l1.6-0.8L19,10.7c0,0-0.2-0.4-0.5-1
			C16.1,13.4,10.2,16.7,6.5,13.9z"/>
		<g>
			<path fill="#EB3434" d="M10.6,6.9C11,5.6,11.7,4.6,12.6,4c-1.2,0.6-2,1.6-2.5,2.9C10.3,6.9,10.4,6.9,10.6,6.9z"/>
			<path fill="#EB3434" d="M10.4,7.4c-0.1,0-0.3,0-0.4,0c-0.9,2.9-0.2,6.6,1.3,9c-0.6,0-1.1,0-1.1,0l2.5,1.4V16c0,0-0.3,0.2-0.9,0.3
				C10.2,13.8,9.7,10.1,10.4,7.4z"/>
		</g>
	</g>
</g>
<g>
	<path fill="#FFFFFF" d="M10.5,28l1-3l1,3h1.2l1.3-5h-1l-1,3.5L12,23h-1l-1,3.4L9,23H8l1.3,5H10.5z"/>
	<path fill="#FFFFFF" d="M4,28h2c0.4,0,2,0,2-2.5C8,23,6.4,23,6,23H4V28L4,28z M6,24c0.3,0,1,0,1,1.5C7,27,6.2,27,6,27
		c-0.2,0-1,0-1,0v-3C5,24,5.7,24,6,24z"/>
	<path fill="#FFFFFF" d="M16,28v-2h2v-1h-2v-1h2v-1h-3v5H16L16,28z"/>
	<path fill="#FFFFFF" d="M20,26.3l1,1.7h1l-1.5-2.5L22,23h-1l-1,1.7L19,23h-1l1.5,2.5L18,28h1L20,26.3z"/>
</g>
</svg>
