<?xml version="1.0" encoding="utf-8"?>
<!-- Generator: Adobe Illustrator 18.1.1, SVG Export Plug-In . SVG Version: 6.00 Build 0)  -->
<!DOCTYPE svg PUBLIC "-//W3C//DTD SVG 1.1//EN" "http://www.w3.org/Graphics/SVG/1.1/DTD/svg11.dtd">
<svg version="1.1" id="assets" xmlns="http://www.w3.org/2000/svg" xmlns:xlink="http://www.w3.org/1999/xlink" x="0px" y="0px"
	 width="16px" height="16px" viewBox="0 0 16 16" enable-background="new 0 0 16 16" xml:space="preserve">
<g id="DWG_2_">
	<g id="fileIconBG_36_">
		<path id="foldedCorner_40_" fill="#9BB9D9" d="M11,0l5,5h-5V0z"/>
		<path id="background_40_" fill="#C8D8EA" d="M0,0v16h16V5h-5V0H0z"/>
		<path id="white_82_" fill="#2F649F" d="M1,1v14h14V5h-4V1H1z"/>
		<path id="shadow_85_" opacity="0.2" fill="#1B3F63" enable-background="new    " d="M16,10l-5-5h5V10z"/>
	</g>
	<path id="white_72_" fill="#FDC137" d="M0,9v7h16v-3L7,9H0z"/>
	<g opacity="0.8">
		<rect x="4" y="1" fill="#FFFFFF" width="1" height="2"/>
		<rect x="4" y="6" fill="#FFFFFF" width="1" height="3"/>
		<rect x="1" y="4" fill="#FFFFFF" width="2" height="1"/>
		<rect x="6" y="4" fill="#FFFFFF" width="5" height="1"/>
		<path fill="#FFFFFF" d="M3,3v3h3V3H3z M5,5H4V4h1V5z"/>
	</g>
</g>
</svg>
