<?xml version="1.0" encoding="utf-8"?>
<!-- Generator: Adobe Illustrator 18.1.1, SVG Export Plug-In . SVG Version: 6.00 Build 0)  -->
<!DOCTYPE svg PUBLIC "-//W3C//DTD SVG 1.1//EN" "http://www.w3.org/Graphics/SVG/1.1/DTD/svg11.dtd">
<svg version="1.1" id="assets" xmlns="http://www.w3.org/2000/svg" xmlns:xlink="http://www.w3.org/1999/xlink" x="0px" y="0px"
	 width="26px" height="30px" viewBox="0 0 26 30" enable-background="new 0 0 26 30" xml:space="preserve">
<g>
	<g>
		<path id="background_18_" fill="#C8D8EA" d="M0,0v30h26V8h-8V0H0z"/>
		<path id="white_70_" fill="#2F649F" d="M1,1v28h24V8h-7V1H1z"/>
		<path id="white_15_" fill="#FDC137" d="M0,15v15h26v-4.7L9,15H0z"/>
		<g opacity="0.8">
			<path fill="#FFFFFF" d="M10,5v5H5V5h3 M11,4H4v7h7V4L11,4z"/>
			<rect x="1" y="7" fill="#FFFFFF" width="3" height="1"/>
			<rect x="7" y="7" fill="#FFFFFF" width="1" height="1"/>
			<rect x="7" y="10" fill="#FFFFFF" width="1" height="5"/>
			<rect x="7" y="1" fill="#FFFFFF" width="1" height="3"/>
			<rect x="10" y="7" fill="#FFFFFF" width="16" height="1"/>
		</g>
		<path id="shadow_36_" opacity="0.2" fill="#1B3F63" enable-background="new    " d="M26,16l-8-8h8V16z"/>
		<path id="foldedCorner_18_" fill="#9BB9D9" d="M18,0l8,8h-8V0z"/>
	</g>
	<g opacity="0.8">
		<path d="M2,28h2c0.4,0,2,0,2-2.5C6,23,4.4,23,4,23H2V28L2,28z M4,24c0.3,0,1,0,1,1.5C5,27,4.2,27,4,27c-0.2,0-1,0-1,0v-3
			C3,24,3.7,24,4,24z"/>
		<path d="M13,25.5c0,1.4,1.1,2.5,2.5,2.5s2.5-1.3,2.5-2c0-0.6,0-1,0-1h-2v1h1c0,0.4-0.8,1-1.5,1c-0.8,0-1.5-0.7-1.5-1.5
			s0.7-1.5,1.5-1.5c0.4,0,0.8,0.2,1.1,0.4l0.7-0.7c-0.5-0.5-1.1-0.7-1.8-0.7C14.1,23,13,24.1,13,25.5z"/>
		<path d="M8.5,28l1-3l1,3h1.2l1.3-5h-1l-1,3.5L10,23H9l-1,3.4L7,23H6l1.3,5H8.5z"/>
	</g>
</g>
</svg>
