<?xml version="1.0" encoding="utf-8"?>
<!-- Generator: Adobe Illustrator 18.1.1, SVG Export Plug-In . SVG Version: 6.00 Build 0)  -->
<!DOCTYPE svg PUBLIC "-//W3C//DTD SVG 1.1//EN" "http://www.w3.org/Graphics/SVG/1.1/DTD/svg11.dtd">
<svg version="1.1" id="Layer_1" xmlns="http://www.w3.org/2000/svg" xmlns:xlink="http://www.w3.org/1999/xlink" x="0px" y="0px"
	 width="79px" height="95px" viewBox="-578 354 79 95" enable-background="new -578 354 79 95" xml:space="preserve">
<g id="assets">
	<g>
		<g>
			<g>
				<path fill="#C8D8EA" d="M-578,354v95h79v-69h-26v-26H-578z"/>
				<path fill="#9BB9D9" d="M-525,354l25.7,25.9H-525V354z"/>
				<path fill="#2F649F" d="M-574,358.1v42h17l54,29v-49h-22v-22H-574z"/>
				<path opacity="0.302" fill="#1B3F63" enable-background="new    " d="M-525,380h26v26L-525,380z"/>
			</g>
			<path fill="#FFFFFF" fill-opacity="0.9" d="M-566,368h16v16h-16V368z M-568,366v9h-6v2h6v9h9v17h2v-17h9v-9h23v-2h-23v-9h-9v-8
				h-2v8H-568z M-559,375v2h2v-2H-559z"/>
			<path fill="#FDC137" d="M-578,400h21l58,31v18h-79V400z"/>
		</g>
		<g opacity="0.9">
			<g>
				<path d="M-573.5,444.3V430h4.9c1.1,0,2,0.1,2.5,0.2c0.8,0.2,1.5,0.5,2.1,1c0.8,0.6,1.3,1.5,1.7,2.4c0.4,1,0.6,2.1,0.6,3.4
					c0,1.1-0.1,2.1-0.4,2.9c-0.3,0.8-0.6,1.5-1,2.1c-0.4,0.6-0.8,1-1.3,1.3c-0.5,0.3-1,0.6-1.7,0.7c-0.7,0.2-1.4,0.2-2.3,0.2
					L-573.5,444.3L-573.5,444.3z M-571.6,442.6h3.1c0.9,0,1.7-0.1,2.2-0.3s1-0.4,1.3-0.7c0.4-0.4,0.8-1.1,1-1.8
					c0.3-0.8,0.4-1.7,0.4-2.8c0-1.5-0.2-2.6-0.7-3.5c-0.5-0.8-1.1-1.3-1.8-1.6c-0.5-0.2-1.3-0.3-2.5-0.3h-3V442.6z"/>
				<path d="M-556.5,444.3l-3.8-14.3h1.9l2.2,9.4c0.2,1,0.4,2,0.6,2.9c0.4-1.5,0.6-2.4,0.6-2.6l2.7-9.7h2.3l2.1,7.2
					c0.5,1.8,0.9,3.5,1.1,5.1c0.2-0.9,0.4-1.9,0.7-3.1l2.2-9.2h1.9l-3.9,14.3h-1.8l-3-10.9c-0.3-0.9-0.4-1.5-0.4-1.7
					c-0.2,0.7-0.3,1.2-0.4,1.7l-3,10.9L-556.5,444.3z"/>
				<path d="M-533.4,438.7V437h6.1v5.3c-0.9,0.7-1.9,1.3-2.9,1.7s-2,0.6-3,0.6c-1.4,0-2.7-0.3-3.8-0.9c-1.1-0.6-2-1.5-2.6-2.6
					c-0.6-1.1-0.9-2.4-0.9-3.8c0-1.4,0.3-2.7,0.9-3.9c0.6-1.2,1.4-2.1,2.5-2.7c1.1-0.6,2.4-0.9,3.8-0.9c1,0,2,0.2,2.8,0.5
					c0.8,0.3,1.5,0.8,2,1.4c0.5,0.6,0.8,1.4,1.1,2.3l-1.7,0.5c-0.2-0.7-0.5-1.3-0.8-1.7c-0.3-0.4-0.8-0.8-1.4-1
					c-0.6-0.3-1.3-0.4-2-0.4c-0.9,0-1.6,0.1-2.2,0.4c-0.6,0.3-1.1,0.6-1.5,1c-0.4,0.4-0.7,0.9-0.9,1.4c-0.4,0.9-0.5,1.8-0.5,2.9
					c0,1.3,0.2,2.3,0.7,3.2c0.4,0.9,1.1,1.5,1.9,1.9c0.8,0.4,1.7,0.6,2.7,0.6c0.8,0,1.6-0.2,2.4-0.5c0.8-0.3,1.4-0.7,1.8-1v-2.7
					h-4.5V438.7z"/>
			</g>
		</g>
		<g>
			<path fill="#2F649F" d="M-505,362v-2.7l1,2.7h1l1-2.7v2.7h1v-5h-1l-1.5,3l-1.5-3h-1v5H-505z"/>
			<path fill="#2F649F" d="M-508,358h1.3v-1h-3.7v1h1.4v4h1V358z"/>
		</g>
	</g>
</g>
<g id="fileExtensions">
</g>
</svg>
