<?xml version="1.0" standalone="no"?>
<!-- Generator: Adobe Fireworks 10, Export SVG Extension by Aaron Beall (http://fireworks.abeall.com) . Version: 0.6.1  -->
<!DOCTYPE svg PUBLIC "-//W3C//DTD SVG 1.1//EN" "http://www.w3.org/Graphics/SVG/1.1/DTD/svg11.dtd">
<svg id="data_zeroStateImage_480x290-Page%201" viewBox="0 0 480 290" style="background-color:#ffffff00" version="1.1"
	xmlns="http://www.w3.org/2000/svg" xmlns:xlink="http://www.w3.org/1999/xlink" xml:space="preserve"
	x="0px" y="0px" width="480px" height="290px"
>
	<g id="Layer%201">
		<g>
			<g id="%5BinventorFile%5D">
				<path d="M 1 79.8374 L 73.0547 283.8869 L 243.226 222.0537 L 190.7293 73.389 L 116.3705 37.9164 L 1 79.8374 Z" fill="#e9ebec"/>
				<path d="M 8.8272 83.5713 L 76.7643 275.9609 L 235.399 218.3198 L 185.9903 78.4 L 115.5449 44.7946 L 8.8272 83.5713 Z" fill="#f0f2f3"/>
				<path d="M 20.0534 87.7147 L 130.6584 47.5254 L 172.4025 67.5692 L 208.218 168.994 L 66.889 220.3469 L 20.0534 87.7147 Z" fill="#e9ebec"/>
				<path d="M 118.1076 98.1321 L 136.8558 91.3201 L 127.5911 65.085 L 69.9063 86.0454 L 73.402 114.3763 L 92.15 107.5643 L 110.1634 158.5766 L 91.4152 165.3887 L 100.1651 190.1663 L 163.6187 167.1099 L 154.8696 142.3322 L 136.1216 149.1444 L 118.1076 98.1321 Z" fill="#f0f2f3"/>
				<path d="M 115.5449 44.7946 L 185.9903 78.4 L 134.0733 97.2645 L 115.5449 44.7946 Z" fill="#eceeef"/>
				<path opacity="0.0118" d="M 134.0733 97.2645 L 185.9903 78.4 L 204.5184 130.87 L 134.0733 97.2645 Z" fill="#000000"/>
			</g>
			<g id="%5B%20DWG%20%5D">
				<path d="M 160.4398 1 L 160.4398 217.4163 L 341.3433 217.4163 L 341.3433 59.7416 L 283.0862 1 L 160.4398 1 Z" fill="#e9ebec"/>
				<path d="M 166.572 7.1833 L 166.572 211.233 L 335.2108 211.233 L 335.2108 62.8333 L 296.8835 45.8291 L 280.0198 7.1833 L 166.572 7.1833 Z" fill="#f0f2f3"/>
				<path d="M 280.0198 7.1833 L 335.2108 62.8333 L 280.0198 62.8333 L 280.0198 7.1833 Z" fill="#eceeef"/>
				<path d="M 174.2375 16.4584 L 174.2375 106.1165 L 211.0314 106.1165 L 327.5457 167.9497 L 327.5457 62.8333 L 280.0198 62.8333 L 280.0198 16.4584 L 174.2375 16.4584 Z" fill="#e9ebec"/>
				<path opacity="0.0118" d="M 280.0198 62.8333 L 335.2108 62.8333 L 335.2108 118.4831 L 280.0198 62.8333 Z" fill="#000000"/>
				<path d="M 189.5685 30.3707 L 227.8953 30.3707 L 227.8953 67.4706 L 189.5685 67.4706 L 189.5685 30.3707 ZM 186.5022 27.2791 L 186.5022 47.3749 L 174.2375 47.3749 L 174.2375 50.4667 L 186.5022 50.4667 L 186.5022 70.5624 L 207.9654 70.5624 L 207.9654 106.1165 L 211.0314 106.1165 L 211.0314 70.5624 L 230.9613 70.5624 L 230.9613 50.4667 L 280.0198 50.4667 L 280.0198 47.3749 L 230.9613 47.3749 L 230.9613 27.2791 L 211.0314 27.2791 L 211.0314 14.9125 L 207.9654 14.9125 L 207.9654 27.2791 L 186.5022 27.2791 ZM 206.4324 45.8291 L 206.4324 50.4667 L 211.0314 50.4667 L 211.0314 45.8291 L 206.4324 45.8291 Z" fill="#f0f2f3"/>
			</g>
			<g id="%5Bimage%20%5D">
				<path d="M 324.5359 27.9514 L 254.2864 231.6415 L 425.8181 290 L 477 141.5971 L 440.8289 67.5165 L 324.5359 27.9514 Z" fill="#e9ebec"/>
				<path d="M 328.3434 35.7491 L 262.1085 227.8 L 422.0105 282.2021 L 470.1816 142.5289 L 439.36 114.1603 L 435.9142 72.3469 L 328.3434 35.7491 Z" fill="#f0f2f3"/>
				<path d="M 344.2666 93.1874 L 438.7549 125.3341 L 411.1566 205.3553 L 316.6685 173.2086 L 344.2666 93.1874 ZM 341.4113 87.3391 L 306.2864 189.1841 L 409.4963 224.2981 L 444.6211 122.453 L 341.4113 87.3391 ZM 403.8798 138.1011 C 402.1567 143.097 404.8066 148.5237 409.7982 150.2218 C 414.7897 151.92 420.2328 149.2469 421.9554 144.2509 C 423.6785 139.2548 421.0289 133.8281 416.0375 132.1302 C 411.0464 130.4318 405.6028 133.105 403.8798 138.1011 ZM 331.0654 145.5938 L 322.5349 170.3276 L 385.0425 191.5939 L 358.4415 132.1486 L 331.0654 145.5938 ZM 408.3007 199.5069 L 411.3118 190.7772 L 397.9855 163.4843 L 382.3423 171.1672 L 392.3108 194.0667 L 408.3007 199.5069 Z" fill="#e9ebec"/>
				<path opacity="0.2" d="M 417.8503 124.7244 L 470.1816 142.5289 L 452.1174 194.9064 L 417.8503 124.7244 Z" fill="#e9ebec"/>
				<path d="M 435.9142 72.3469 L 470.1816 142.5289 L 417.8503 124.7244 L 435.9142 72.3469 Z" fill="#eceeef"/>
			</g>
		</g>
	</g>
</svg>