<?xml version="1.0" encoding="utf-8"?>
<!-- Generator: Adobe Illustrator 19.0.1, SVG Export Plug-In . SVG Version: 6.00 Build 0)  -->
<svg version="1.1" id="assets" xmlns="http://www.w3.org/2000/svg" xmlns:xlink="http://www.w3.org/1999/xlink" x="0px" y="0px"
	 viewBox="187.5 -58.6 125 150.6" style="enable-background:new 187.5 -58.6 125 150.6;" xml:space="preserve">
<g>
	<g>
		<path style="fill:#FF9B0D;" d="M187.5-58.6V92h125V-26.5h-32.1v-32.1H187.5z"/>
		<path style="fill:#FFFFFF;" d="M193.9-50.6h86.5v24H306v80.1H193.9V-50.6z"/>
		<path style="fill:#FAB11C;" d="M280.4-58.6l32.1,32.1h-32.1V-58.6z"/>
		<path style="opacity:0.2;fill:#1B3F63;enable-background:new    ;" d="M280.4-26.5h32.1v32L280.4-26.5z"/>
	</g>
	<path style="fill:#FFFFFF;" d="M222.1,84.5V61.6h15.5v2.7h-12.5v7.1h10.7v2.7h-10.7v10.4C225.2,84.5,222.1,84.5,222.1,84.5z"/>
	<path style="fill:#FFFFFF;" d="M240.5,78.4l2.9-0.3c0.3,1.6,0.8,2.7,1.6,3.5c0.8,0.6,1.8,1.1,2.9,1.1c1.3,0,2.4-0.5,3.4-1.4
		s1.4-2.1,1.4-3.4s-0.5-2.4-1.3-3.2s-1.9-1.3-3.2-1.3c-0.5,0-1.1,0.2-1.9,0.3l0.3-2.4c0.2,0,0.3,0,0.5,0c1.1,0,2.2-0.3,3.2-1
		c1-0.6,1.4-1.6,1.4-2.9c0-1-0.3-1.9-1.1-2.6c-0.6-0.6-1.6-1-2.7-1s-2.1,0.3-2.7,1c-0.8,0.6-1.1,1.8-1.4,3l-2.9-0.5
		c0.3-1.9,1.1-3.4,2.4-4.3c1.3-1,2.7-1.6,4.5-1.6c1.3,0,2.4,0.3,3.5,0.8s1.9,1.3,2.4,2.2c0.5,0.9,0.8,1.9,0.8,2.9s-0.3,1.9-0.8,2.7
		s-1.3,1.4-2.4,1.9c1.3,0.3,2.4,1,3.2,1.9c0.8,1,1.1,2.2,1.1,3.7c0,2.1-0.8,3.7-2.2,5.1c-1.4,1.4-3.4,2.1-5.6,2.1
		c-2.1,0-3.7-0.6-5-1.8C241.3,81.9,240.7,80.3,240.5,78.4z"/>
	<path style="fill:#FFFFFF;" d="M259.5,84.5V61.6h7.9c1.8,0,3.2,0.2,4,0.3c1.3,0.3,2.4,0.8,3.4,1.6c1.3,1,2.1,2.4,2.7,3.8
		c0.6,1.6,1,3.4,1,5.4c0,1.8-0.2,3.4-0.6,4.6c-0.4,1.2-1,2.4-1.6,3.4c-0.6,1-1.3,1.6-2.1,2.1s-1.6,1-2.7,1.1
		c-1.1,0.3-2.2,0.3-3.7,0.3h-8.2L259.5,84.5L259.5,84.5z M262.5,81.8h5c1.4,0,2.7-0.2,3.5-0.5s1.6-0.6,2.1-1.1
		c0.6-0.6,1.3-1.8,1.6-2.9c0.5-1.3,0.6-2.7,0.6-4.5c0-2.4-0.3-4.2-1.1-5.6c-0.8-1.3-1.8-2.1-2.9-2.6c-0.8-0.3-2.1-0.5-4-0.5h-4.8
		C262.5,64.2,262.5,81.8,262.5,81.8z"/>
	<g>
		<polygon style="fill:#FF9B0D;" points="253.2,-33 227.6,-23.3 227.6,40.8 253.2,40.8 		"/>
		<polygon style="fill:#D36705;" points="227.6,40.8 242,11.9 227.6,14 		"/>
		<polygon style="fill:#E07412;" points="227.2,-23.3 227.2,15.9 252.9,10.3 252.9,-9.6 		"/>
		<polygon style="fill:#FF9B0D;" points="227.6,-23.3 227.6,15.9 222.8,16.7 		"/>
		<polygon style="fill:#FF9B0D;" points="278.8,-26.9 253.2,-8.9 253.2,-37.8 		"/>
		<polygon style="fill:#E07412;" points="253.2,-9.7 227.6,-23.3 253.2,-37.8 		"/>
		<polygon style="fill:#FF9B0D;" points="253.2,10.3 278.8,3.9 253.2,-9.4 		"/>
		<polygon style="fill:#D36705;" points="253.2,-9.7 227.6,7.1 227.6,-23.3 		"/>
	</g>
</g>
</svg>
