<?xml version="1.0" encoding="utf-8"?>
<!-- Generator: Adobe Illustrator 18.1.1, SVG Export Plug-In . SVG Version: 6.00 Build 0)  -->
<!DOCTYPE svg PUBLIC "-//W3C//DTD SVG 1.1//EN" "http://www.w3.org/Graphics/SVG/1.1/DTD/svg11.dtd">
<svg version="1.1" id="assets" xmlns="http://www.w3.org/2000/svg" xmlns:xlink="http://www.w3.org/1999/xlink" x="0px" y="0px"
	 width="26px" height="30px" viewBox="0 0 26 30" enable-background="new 0 0 26 30" xml:space="preserve">
<g>
	<g>
		<path id="foldedCorner_119_" fill="#FAB11C" d="M19,0l7,7h-7V0z"/>
		<path id="background_119_" fill="#FF9B0D" d="M0,0v30h26V7h-7V0H0z"/>
		<path id="white_87_" fill="#FFFFFF" d="M1,1v20h24V7h-6V1H1z"/>
		<path id="shadow_102_" opacity="0.2" fill="#1B3F63" enable-background="new    " d="M26,14l-7-7h7V14z"/>
	</g>
	<path fill="#FFFFFF" d="M15,28h2c0.4,0,2,0,2-2.5c0-2.5-1.6-2.5-2-2.5h-2V28L15,28z M17,24c0.3,0,1,0,1,1.5c0,1.5-0.8,1.5-1,1.5
		c-0.2,0-1,0-1,0v-3C16,24,16.7,24,17,24z"/>
	<path fill="#FFFFFF" d="M8,28v-2h2v-1H8v-1h2v-1H7v5H8L8,28z"/>
	<path fill="#FFFFFF" d="M12.5,28c1.4,0,1.5-1,1.5-1.5c0-0.5-0.2-1-0.6-1c0.4,0,0.6-0.5,0.6-1c0-0.4-0.2-1.4-1.5-1.4
		c-1.3,0-1.5,0.8-1.5,1l0.7,0.3c0.1-0.2,0.3-0.5,0.7-0.5c0.5,0,0.6,0.2,0.6,0.7c0,0.6-0.5,0.7-0.9,0.7c0,0.4,0,0.6,0,0.6
		c0.4,0,0.9,0.1,0.9,0.7c0,0.3-0.2,0.7-0.6,0.7c-0.5,0-0.6-0.1-0.8-0.4L11,27C11,27.2,11.2,28,12.5,28z"/>
	<g>
		<polygon fill="#FF9B0D" points="14,4 9,7 9,19 14,19 		"/>
		<polygon fill="#D36705" points="9,19 12,13 9,13 		"/>
		<polygon fill="#E07412" points="9,6 9,14 14,13 14,9 		"/>
		<polygon fill="#FF9B0D" points="9,6 9,14 7,14 		"/>
		<polygon fill="#FF9B0D" points="19,6 14,9 14,3 		"/>
		<polygon fill="#E07412" points="14,9 9,6 14,3 		"/>
		<polygon fill="#FF9B0D" points="14,13 19,11 14,9 		"/>
		<polygon fill="#D36705" points="14,9 9,12 9,6 		"/>
	</g>
</g>
</svg>
