<?xml version="1.0" encoding="utf-8"?>
<!-- Generator: Adobe Illustrator 18.1.1, SVG Export Plug-In . SVG Version: 6.00 Build 0)  -->
<!DOCTYPE svg PUBLIC "-//W3C//DTD SVG 1.1//EN" "http://www.w3.org/Graphics/SVG/1.1/DTD/svg11.dtd">
<svg version="1.1" id="assets" xmlns="http://www.w3.org/2000/svg" xmlns:xlink="http://www.w3.org/1999/xlink" x="0px" y="0px"
	 width="16px" height="16px" viewBox="0 0 16 16" enable-background="new 0 0 16 16" xml:space="preserve">
<g>
	<g id="fileIconBG_10_">
		<path id="foldedCorner_85_" fill="#FAB11C" d="M11,0l5,5h-5V0z"/>
		<path id="background_85_" fill="#FF9B0D" d="M0,0v16h16V5h-5V0H0z"/>
		<path id="white_13_" fill="#FFFFFF" d="M1,1v8h14V5h-4V1H1z"/>
		<path id="shadow_72_" opacity="0.2" fill="#1B3F63" enable-background="new    " d="M16,10l-5-5h5V10z"/>
	</g>
	<path fill="#FFFFFF" d="M10,15h2c0.4,0,2,0,2-2.5c0-2.5-1.6-2.5-2-2.5h-2V15L10,15z M12,11c0.3,0,1,0,1,1.5c0,1.5-0.8,1.5-1,1.5
		c-0.2,0-1,0-1,0v-3C11,11,11.7,11,12,11z"/>
	<path fill="#FFFFFF" d="M3,15v-2h2v-1H3v-1h2v-1H2v5H3L3,15z"/>
	<path fill="#FFFFFF" d="M7.5,15C8.9,15,9,14,9,13.5c0-0.5-0.2-1-0.6-1c0.4,0,0.6-0.5,0.6-1C9,11,8.8,10,7.5,10C6.2,10,6,10.8,6,11
		l0.7,0.3c0.1-0.2,0.3-0.5,0.7-0.5c0.5,0,0.6,0.2,0.6,0.7c0,0.6-0.5,0.7-0.9,0.7c0,0.4,0,0.6,0,0.6c0.4,0,0.9,0.1,0.9,0.7
		c0,0.3-0.2,0.7-0.6,0.7c-0.5,0-0.6-0.1-0.8-0.4L6,14C6,14.2,6.2,15,7.5,15z"/>
</g>
</svg>
