<?xml version="1.0" encoding="utf-8"?>
<!-- Generator: Adobe Illustrator 18.1.1, SVG Export Plug-In . SVG Version: 6.00 Build 0)  -->
<!DOCTYPE svg PUBLIC "-//W3C//DTD SVG 1.1//EN" "http://www.w3.org/Graphics/SVG/1.1/DTD/svg11.dtd">
<svg version="1.1" id="assets" xmlns="http://www.w3.org/2000/svg" xmlns:xlink="http://www.w3.org/1999/xlink" x="0px" y="0px"
	 width="78px" height="94px" viewBox="0 0 78 94" enable-background="new 0 0 78 94" xml:space="preserve">
<g>
	<path fill="#30A295" d="M0,0v94h78V20H58V0H0z"/>
	<path fill="#FFFFFF" d="M4,5h54v15h16v50H4V5z"/>
	<path fill="#38BCAC" d="M58,0l20,20H58V0z"/>
	<path opacity="0.2" fill="#1B3F63" enable-background="new    " d="M58,20h20v20L58,20z"/>
</g>
<g>
	<polygon fill="#147A6F" points="55,18 39,13 38.3,20 39,25 52.3,24.8 	"/>
	<polygon fill="#1F8277" points="50,42.3 50,33 44.3,38.5 39,46 	"/>
	<polygon fill="#34BFAE" points="26,25 26,33 33.3,23.8 39,13 	"/>
	<polygon fill="#23998B" points="39,25 39,33 26,33 34,26.8 	"/>
	<polygon fill="#136B61" points="39,33 50,33 39,46 	"/>
	<polygon fill="#136B61" points="26,33 39,25 39,13 	"/>
	<polygon fill="#23998B" points="39,46 39,63 26,56 31.5,50 	"/>
	<polygon fill="#147A6F" points="39,33 26,33 26,56 39,46 	"/>
</g>
</svg>
