<?xml version="1.0" encoding="utf-8"?>
<!-- Generator: Adobe Illustrator 16.0.4, SVG Export Plug-In . SVG Version: 6.00 Build 0)  -->
<!DOCTYPE svg PUBLIC "-//W3C//DTD SVG 1.1//EN" "http://www.w3.org/Graphics/SVG/1.1/DTD/svg11.dtd">
<svg version="1.1" id="folder_x5F_dataPage-Page_x25_201"
	 xmlns="http://www.w3.org/2000/svg" xmlns:xlink="http://www.w3.org/1999/xlink" x="0px" y="0px" width="200px" height="150px"
	 viewBox="0 0 200 150" enable-background="new 0 0 200 150" xml:space="preserve">
<g id="Layer_x25_201">
	<path fill="#CBCBCB" d="M198,14h-96L89,33H2v115h196V14z"/>
	<path display="none" fill="#979797" d="M2,2v31h87l11-16L83,2H2z"/>
	<path fill="#979797" d="M2,138h196v10H2V138z"/>
	<path display="none" fill="none" stroke="#FFFFFF" stroke-width="2" d="M198,14h-96L89,33H2v116h196V14z"/>
	<path fill="#979797" d="M2,2v29h86l10.49-15.33L83,2H2z"/>
</g>
<g id="Layer_x25_201_1_">
	<path fill="#979797" d="M87.374,103.139c-0.561-2.152-1.773-4.057-3.415-5.479L98.271,72.55c1.055,0.328,2.175,0.505,3.339,0.505
		c1.4,0,2.739-0.252,3.972-0.716l16.122,25.635c-1.474,1.382-2.554,3.158-3.076,5.164H87.374z M65.5,105.866
		c0,6.043,4.974,10.94,11.112,10.94c5.178,0,9.529-3.487,10.762-8.203h31.254c1.23,4.716,5.585,8.203,10.758,8.203
		c6.143,0,11.114-4.897,11.114-10.94c0-6.039-4.972-10.931-11.114-10.931c-1.062,0-2.088,0.146-3.058,0.421l-16.517-25.862
		c1.804-1.943,2.911-4.531,2.911-7.374c0-6.043-4.975-10.938-11.112-10.938c-6.136,0-11.109,4.896-11.109,10.938
		c0,3.081,1.291,5.866,3.374,7.853l-14.66,25.258c-0.833-0.196-1.708-0.296-2.603-0.296C70.474,94.936,65.5,99.827,65.5,105.866z"/>
</g>
</svg>
