<?xml version="1.0" encoding="utf-8"?>
<!-- Generator: Adobe Illustrator 19.1.0, SVG Export Plug-In . SVG Version: 6.00 Build 0)  -->
<svg version="1.1" id="Layer_1" xmlns="http://www.w3.org/2000/svg" xmlns:xlink="http://www.w3.org/1999/xlink" x="0px" y="0px"
	 viewBox="0 0 28 16" style="enable-background:new 0 0 28 16;" xml:space="preserve">
<symbol  id="icon_x5F_project_x5F_16_2" viewBox="-8 -7 16 14">
	<g id="Layer_x25_201_1_">
		<path style="fill:#50697D;" d="M-3.3-4.1C-3.4-3.6-3.7-3.2-4-2.9l3,5.3c0.2-0.1,0.5-0.1,0.7-0.1c0.3,0,0.6,0.1,0.8,0.2L4-3
			C3.7-3.3,3.4-3.7,3.3-4.1H-3.3z M-8-4.7C-8-6-6.9-7-5.6-7c1.1,0,2,0.7,2.3,1.8h6.7C3.6-6.3,4.5-7,5.6-7C6.9-7,8-6,8-4.7
			S6.9-2.3,5.6-2.3c-0.2,0-0.4,0-0.7-0.1L1.5,3.1c0.4,0.4,0.6,1,0.6,1.6C2.1,6,1,7-0.3,7s-2.4-1-2.4-2.3C-2.7,4-2.4,3.4-1.9,3
			L-5-2.4c-0.2,0-0.4,0.1-0.6,0.1C-6.9-2.3-8-3.4-8-4.7z"/>
	</g>
</symbol>
<g>
	<g>
		<rect x="3.5" y="1" style="fill:#4F687C;" width="21" height="15"/>
		<g>
			<path style="fill:#4F687C;" d="M3.5,0v4h9l2-2l-2-2L3.5,0z"/>
			<path style="fill:#B0C0CD;" d="M26.5,4h-12l-2,2h-11l2,10h21L26.5,4z"/>
			
				<use xlink:href="#icon_x5F_project_x5F_16_2"  width="16" height="14" id="XMLID_3_" x="-8" y="-7" transform="matrix(0.5357 0 0 -0.3929 14.3307 10.2795)" style="overflow:visible;"/>
		</g>
	</g>
	<g>
		<defs>
			<path id="SVGID_1_" d="M26.5,4h-12l-2,2h-11l2,10h21L26.5,4z"/>
		</defs>
		<clipPath id="SVGID_2_">
			<use xlink:href="#SVGID_1_"  style="overflow:visible;"/>
		</clipPath>
		<polygon style="opacity:0.502;clip-path:url(#SVGID_2_);fill:#7A95A9;enable-background:new    ;" points="1.6,14 2,16 25,16 
			25.3,14 		"/>
	</g>
</g>
</svg>
