<?xml version="1.0" encoding="utf-8"?>
<!-- Generator: Adobe Illustrator 18.1.1, SVG Export Plug-In . SVG Version: 6.00 Build 0)  -->
<!DOCTYPE svg PUBLIC "-//W3C//DTD SVG 1.1//EN" "http://www.w3.org/Graphics/SVG/1.1/DTD/svg11.dtd">
<svg version="1.1" id="assets" xmlns="http://www.w3.org/2000/svg" xmlns:xlink="http://www.w3.org/1999/xlink" x="0px" y="0px"
	 width="78px" height="94px" viewBox="0 0 78 94" enable-background="new 0 0 78 94" xml:space="preserve">
<g>
	<path fill="#FF9B0D" d="M0,0v94h78V20H58V0H0z"/>
	<path fill="#FFFFFF" d="M4,5h54v15h16v50H4V5z"/>
	<path fill="#FAB11C" d="M58,0l20,20H58V0z"/>
	<path opacity="0.2" fill="#1B3F63" enable-background="new    " d="M58,20h20v20L58,20z"/>
</g>
<g>
	<polygon fill="#F28E00" points="38,46.4 31.1,53.4 23,58 24.4,39 31.4,42.1 	"/>
	<polygon fill="#D46A0B" points="25,26 31.4,26.2 38,23.9 39,18.7 37.9,13 	"/>
	<path fill="#FF9B0D" d="M37.5,38L36,31.5l1.5-7.5l2.5-2l3,1c0,0,9,15,9,15C52,38,37.5,38,37.5,38z"/>
	<polygon fill="#D46A0B" points="38,46 38,37.3 31.2,36 24.1,37.3 24,39 	"/>
	<polygon fill="#FF9B0D" points="38,63 38,46 23,58 	"/>
	<polygon fill="#FF9B0D" points="56,20.1 43,23 40,20 38,13 56,13 	"/>
	<path fill="#CE00E9" d="M32.3,25.3"/>
	<path fill="#E6740E" d="M38,24c-0.1-0.2,0-11,0-11l5,10L38,24z"/>
	<polygon fill="#C76105" points="38,38 24.3,38 24,33 25,26 38,24 	"/>
	<polygon fill="#E07412" points="25,26 24,39 22,38 	"/>
</g>
</svg>
