<?xml version="1.0" encoding="utf-8"?>
<!-- Generator: Adobe Illustrator 18.1.1, SVG Export Plug-In . SVG Version: 6.00 Build 0)  -->
<!DOCTYPE svg PUBLIC "-//W3C//DTD SVG 1.1//EN" "http://www.w3.org/Graphics/SVG/1.1/DTD/svg11.dtd">
<svg version="1.1" id="assets" xmlns="http://www.w3.org/2000/svg" xmlns:xlink="http://www.w3.org/1999/xlink" x="0px" y="0px"
	 width="26px" height="30px" viewBox="0 0 26 30" enable-background="new 0 0 26 30" xml:space="preserve">
<g>
	<g>
		<path id="foldedCorner_96_" fill="#FAB11C" d="M19,0l7,7h-7V0z"/>
		<path id="background_96_" fill="#FF9B0D" d="M0,0v30h26V7h-7V0H0z"/>
		<path id="white_86_" fill="#FFFFFF" d="M1,1v20h24V7h-6V1H1z"/>
		<path id="shadow_101_" opacity="0.2" fill="#1B3F63" enable-background="new    " d="M26,14l-7-7h7V14z"/>
	</g>
	<path fill="#FFFFFF" d="M8.5,28c1.4,0,1.5-1,1.5-1.5c0-0.5-0.2-1-0.6-1c0.4,0,0.6-0.5,0.6-1C10,24,9.8,23,8.5,23
		C7.2,23,7,23.8,7,24l0.7,0.3c0.1-0.2,0.3-0.5,0.7-0.5c0.5,0,0.6,0.2,0.6,0.7c0,0.6-0.5,0.7-0.9,0.7c0,0.4,0,0.6,0,0.6
		c0.4,0,0.9,0.1,0.9,0.7c0,0.3-0.2,0.7-0.6,0.7c-0.5,0-0.6-0.1-0.8-0.4L7,27C7,27.2,7.2,28,8.5,28z"/>
	<path fill="#FFFFFF" d="M12.7,23c-1.1,0-1.7,0.8-1.7,2.5c0,0.9,0.3,2.5,1.5,2.5c1.1,0,1.5-0.8,1.5-1.5c0-1.1-0.5-1.8-1.3-1.8
		c-0.3,0-0.5,0.1-0.7,0.4c0-0.6,0.2-1.2,0.7-1.2c0.6,0,0.6,0.5,0.6,0.5l0.8,0C14,23.4,13.4,23,12.7,23z M12.5,25.5
		c0.3,0,0.5,0.3,0.5,0.8s-0.2,0.8-0.5,0.8c-0.3,0-0.5-0.3-0.5-0.8C12,25.8,12.2,25.5,12.5,25.5z"/>
	<path fill="#FFFFFF" d="M15,25.5c0,0.9,0.3,2.5,1.5,2.5c1.3,0,1.5-1.6,1.5-2.5S17.7,23,16.5,23C15.3,23,15,24.6,15,25.5z M17,25.5
		c0,0.6,0,1.8-0.5,1.8c-0.5,0-0.5-1.2-0.5-1.8c0-0.6,0-1.8,0.5-1.8C17,23.7,17,24.9,17,25.5z"/>
	<g>
		<polygon fill="#FF9B0D" points="14,4 9,7 9,19 14,19 		"/>
		<polygon fill="#D36705" points="9,19 12,13 9,13 		"/>
		<polygon fill="#E07412" points="9,6 9,14 14,13 14,9 		"/>
		<polygon fill="#FF9B0D" points="9,6 9,14 7,14 		"/>
		<polygon fill="#FF9B0D" points="19,6 14,9 14,3 		"/>
		<polygon fill="#E07412" points="14,9 9,6 14,3 		"/>
		<polygon fill="#FF9B0D" points="14,13 19,11 14,9 		"/>
		<polygon fill="#D36705" points="14,9 9,12 9,6 		"/>
	</g>
</g>
</svg>
