<?xml version="1.0" encoding="utf-8"?>
<!-- Generator: Adobe Illustrator 18.1.1, SVG Export Plug-In . SVG Version: 6.00 Build 0)  -->
<!DOCTYPE svg PUBLIC "-//W3C//DTD SVG 1.1//EN" "http://www.w3.org/Graphics/SVG/1.1/DTD/svg11.dtd">
<svg version="1.1" id="assets" xmlns="http://www.w3.org/2000/svg" xmlns:xlink="http://www.w3.org/1999/xlink" x="0px" y="0px"
	 width="78px" height="94px" viewBox="0 0 78 94" enable-background="new 0 0 78 94" xml:space="preserve">
<g>
	<path fill="#FF9B0D" d="M0,0v94h78V20H58V0H0z"/>
	<path fill="#FFFFFF" d="M4,5h54v15h16v50H4V5z"/>
	<path fill="#FAB11C" d="M58,0l20,20H58V0z"/>
	<path opacity="0.2" fill="#1B3F63" enable-background="new    " d="M58,20h20v20L58,20z"/>
</g>
<g>
	<polygon fill="#FF9B0D" points="41,16 25,22 25,62 41,62 	"/>
	<polygon fill="#D36705" points="25,62 34,44 25,45.3 	"/>
	<polygon fill="#E07412" points="24.8,22 24.8,46.5 40.8,43 40.8,30.6 	"/>
	<polygon fill="#FF9B0D" points="25,22 25,46.5 22,47 	"/>
	<polygon fill="#FF9B0D" points="57,19.8 41,31 41,13 	"/>
	<polygon fill="#E07412" points="41,30.5 25,22 41,13 	"/>
	<polygon fill="#FF9B0D" points="41,43 57,39 41,30.7 	"/>
	<polygon fill="#D36705" points="41,30.5 25,41 25,22 	"/>
</g>
</svg>
