<?xml version="1.0" encoding="utf-8"?>
<!-- Generator: Adobe Illustrator 18.1.0, SVG Export Plug-In . SVG Version: 6.00 Build 0)  -->
<svg version="1.1" id="SemiBold" xmlns="http://www.w3.org/2000/svg" xmlns:xlink="http://www.w3.org/1999/xlink" x="0px" y="0px"
	 viewBox="0 301.1 1980 677.8" style="enable-background:new 0 301.1 1980 677.8;" xml:space="preserve">
<g>
	<path d="M1980,880.8c0,60.6-44.6,98.1-103.5,98.1H110.6C48.2,978.9,0,930.8,0,870.1V409.9c0-60.6,48.2-108.8,108.8-108.8h1765.9
		c60.6,0,103.5,48.2,103.5,108.8v470.9H1980z"/>
	<g>
		<g>
			<path style="fill:#FFFFFF;" d="M1353.9,788.1l-16.1,14.3c-3.6,1.8-7.1,3.6-10.7,5.4c-10.7,5.4-21.4,5.4-30.3,5.4
				c-10.7,0-25,0-41-12.5c-21.4-16.1-32.1-42.8-32.1-66c0-48.2,39.2-71.4,71.4-71.4c10.7,0,23.2,3.6,32.1,8.9
				c16.1,10.7,19.6,23.2,21.4,30.3l-73.1,30.3l-23.2,1.8c7.1,39.2,33.9,62.4,64.2,62.4C1330.7,797,1343.2,791.6,1353.9,788.1
				C1352.1,788.1,1353.9,786.3,1353.9,788.1z M1309.3,709.6c5.4-1.8,8.9-3.6,8.9-8.9c0-12.5-14.3-26.8-30.3-26.8
				c-12.5,0-35.7,8.9-35.7,42.8c0,5.4,0,10.7,1.8,16.1L1309.3,709.6z"/>
			<path style="fill:#FFFFFF;" d="M1200.5,784.5c0,12.5,1.8,14.3,12.5,14.3c5.4,0,10.7,1.8,16.1,1.8l-10.7,7.1H1163
				c7.1-8.9,8.9-10.7,8.9-16.1v-7.1V599h-25l23.2-10.7h44.6c-8.9,5.4-12.5,8.9-14.3,19.6V784.5z"/>
			<path style="fill:#FFFFFF;" d="M1114.9,679.2c7.1,5.4,21.4,17.8,21.4,42.8c0,23.2-12.5,33.9-26.8,44.6c-3.6,3.6-8.9,8.9-8.9,16.1
				s5.4,10.7,8.9,14.3l10.7,8.9c14.3,10.7,26.8,21.4,26.8,42.8c0,28.5-28.5,58.9-82.1,58.9c-44.6,0-66-21.4-66-44.6
				c0-10.7,5.4-26.8,23.2-37.5c19.6-12.5,44.6-12.5,58.9-14.3c-3.6-5.4-8.9-10.7-8.9-21.4c0-5.4,1.8-8.9,3.6-12.5
				c-3.6,0-7.1,0-10.7,0c-32.1,0-51.7-25-51.7-48.2c0-14.3,7.1-30.3,19.6-41c17.8-14.3,39.2-17.8,55.3-17.8h64.2l-19.6,10.7h-17.8
				V679.2z M1093.5,816.6c-1.8,0-3.6,0-7.1,0c-3.6,0-19.6,0-32.1,5.4c-7.1,1.8-26.8,10.7-26.8,32.1s21.4,37.5,55.3,37.5
				c30.3,0,46.4-14.3,46.4-33.9C1127.4,841.6,1116.6,834.4,1093.5,816.6z M1102.4,757.7c7.1-7.1,7.1-17.8,7.1-23.2
				c0-23.2-12.5-57.1-39.2-57.1c-8.9,0-16.1,3.6-21.4,10.7s-7.1,14.3-7.1,23.2c0,21.4,12.5,55.3,39.2,55.3
				C1088.1,766.6,1097,763.1,1102.4,757.7z"/>
			<path style="fill:#FFFFFF;" d="M922.2,813c-49.9,0-76.7-39.2-76.7-73.1c0-41,33.9-74.9,80.3-74.9c46.4,0,74.9,35.7,74.9,73.1
				C1002.5,773.8,973.9,813,922.2,813z M961.5,788.1c7.1-10.7,8.9-23.2,8.9-33.9c0-26.8-12.5-80.3-51.7-80.3
				c-10.7,0-21.4,3.6-28.5,10.7c-12.5,10.7-14.3,25-14.3,37.5c0,30.3,16.1,82.1,53.5,82.1C941.8,802.3,954.3,797,961.5,788.1z"/>
			<path style="fill:#FFFFFF;" d="M758.1,813c-49.9,0-74.9-39.2-74.9-73.1c0-41,33.9-74.9,80.3-74.9s74.9,35.7,74.9,73.1
				C836.6,773.8,808.1,813,758.1,813z M795.6,788.1c7.1-10.7,8.9-23.2,8.9-33.9c0-26.8-12.5-80.3-51.7-80.3
				c-10.7,0-19.6,3.6-28.5,10.7c-12.5,10.7-14.3,25-14.3,37.5c0,30.3,16.1,82.1,53.5,82.1C775.9,802.3,788.4,797,795.6,788.1z"/>
			<path style="fill:#FFFFFF;" d="M661.8,802.3l-41,8.9c-16.1,1.8-32.1,5.4-48.2,5.4c-80.3,0-110.6-58.9-110.6-105.2
				c0-57.1,42.8-108.8,117.7-108.8c16.1,0,30.3,1.8,44.6,5.4c21.4,5.4,32.1,14.3,39.2,17.8l-25,23.2l-10.7,1.8l7.1-12.5
				c-10.7-8.9-28.5-26.8-62.4-26.8c-46.4,0-80.3,35.7-80.3,85.6c0,55.3,39.2,107,103.5,107c17.8,0,28.5-3.6,37.5-7.1v-46.4
				l-44.6,1.8l23.2-12.5h62.4l-8.9,7.1c-1.8,1.8-1.8,1.8-3.6,5.4c0,1.8,0,10.7,0,14.3V802.3z"/>
		</g>
		<g>
			<path style="fill:#FFFFFF;" d="M1443.1,789.8v78.5H1427V666.8h16.1v23.2c10.7-14.3,28.5-26.8,49.9-26.8c39.2,0,66,30.3,66,76.7
				c0,46.4-26.8,76.7-66,76.7C1473.4,816.6,1453.8,805.9,1443.1,789.8z M1541.2,739.9c0-35.7-17.8-62.4-51.7-62.4
				c-19.6,0-39.2,16.1-48.2,30.3V772c8.9,14.3,28.5,30.3,48.2,30.3C1523.4,802.3,1541.2,775.6,1541.2,739.9z"/>
			<path style="fill:#FFFFFF;" d="M1580.4,813V611.5h16.1V813H1580.4z"/>
			<path style="fill:#FFFFFF;" d="M1771.3,855.8c3.6,1.8,8.9,1.8,12.5,1.8c8.9,0,16.1-3.6,23.2-17.8l10.7-26.8l-62.4-146.3h17.8
				l53.5,126.6l51.7-126.6h17.8l-74.9,178.4c-7.1,17.8-19.6,26.8-37.5,26.8c-5.4,0-12.5-1.8-16.1-1.8L1771.3,855.8z"/>
			<path style="fill:#FFFFFF;" d="M1726.7,811.2c-1.8-5.4-1.8-8.9-1.8-12.5c0-3.6,0-7.1,0-10.7c-5.4,7.1-12.5,14.3-23.2,19.6
				c-8.9,5.4-19.6,7.1-32.1,7.1c-16.1,0-26.8-3.6-35.7-10.7s-12.5-17.8-12.5-30.3s5.4-23.2,17.8-32.1c12.5-8.9,28.5-12.5,48.2-12.5
				h37.5v-17.8c0-10.7-3.6-17.8-10.7-25c-7.1-5.4-17.8-8.9-30.3-8.9c-12.5,0-21.4,3.6-28.5,8.9c-7.1,5.4-10.7,12.5-10.7,19.6h-16.1
				l0,0c0-10.7,5.4-21.4,16.1-28.5c10.7-8.9,25-12.5,41-12.5c17.8,0,30.3,3.6,41,12.5c10.7,8.9,16.1,19.6,16.1,35.7v71.4
				c0,5.4,0,10.7,0,14.3c0,5.4,1.8,8.9,3.6,14.3h-19.6V811.2z M1669.6,800.5c12.5,0,23.2-3.6,32.1-8.9c8.9-5.4,16.1-14.3,19.6-23.2
				v-28.5h-37.5c-14.3,0-25,3.6-35.7,8.9c-8.9,7.1-14.3,14.3-14.3,23.2c0,8.9,3.6,14.3,8.9,19.6
				C1651.8,798.8,1660.7,800.5,1669.6,800.5z"/>
		</g>
	</g>
	<g>
		<g>
			<path style="fill:#FFFFFF;" d="M549.4,495.5l-7.1-19.6h-44.6l-7.1,19.6h-19.6l39.2-98.1h21.4l39.2,98.1H549.4z M519.1,413.5
				l-17.8,46.4h35.7L519.1,413.5z"/>
			<path style="fill:#FFFFFF;" d="M651.1,495.5l-51.7-69.6v69.6h-17.8v-98.1h17.8l49.9,67.8v-67.8h17.8v98.1H651.1z"/>
			<path style="fill:#FFFFFF;" d="M692.1,495.5v-98.1h35.7c30.3,0,51.7,19.6,51.7,49.9c0,28.5-21.4,49.9-51.7,49.9h-35.7V495.5z
				 M761.7,445.6c0-19.6-12.5-33.9-33.9-33.9h-19.6v67.8h19.6C749.2,479.5,761.7,465.2,761.7,445.6z"/>
			<path style="fill:#FFFFFF;" d="M856.2,495.5l-21.4-37.5H817v37.5h-17.8v-98.1h42.8c19.6,0,32.1,12.5,32.1,30.3
				c0,17.8-10.7,26.8-23.2,28.5l25,39.2H856.2L856.2,495.5z M858,427.7c0-8.9-7.1-16.1-16.1-16.1h-23.2v32.1h23.2
				C850.9,443.8,858,436.6,858,427.7z"/>
			<path style="fill:#FFFFFF;" d="M891.9,445.6c0-28.5,21.4-51.7,49.9-51.7c28.5,0,49.9,21.4,49.9,51.7c0,28.5-21.4,51.7-49.9,51.7
				C913.3,497.3,891.9,475.9,891.9,445.6z M975.7,445.6c0-19.6-12.5-35.7-32.1-35.7c-19.6,0-32.1,16.1-32.1,35.7
				c0,19.6,12.5,35.7,32.1,35.7C963.2,481.2,975.7,465.2,975.7,445.6z"/>
			<path style="fill:#FFFFFF;" d="M1013.2,495.5v-98.1h17.8v98.1H1013.2z"/>
			<path style="fill:#FFFFFF;" d="M1054.2,495.5v-98.1h35.7c30.3,0,51.7,19.6,51.7,49.9c0,28.5-21.4,49.9-51.7,49.9h-35.7V495.5z
				 M1125.6,445.6c0-19.6-12.5-33.9-33.9-33.9h-19.6v67.8h19.6C1113.1,479.5,1125.6,465.2,1125.6,445.6z"/>
			<path style="fill:#FFFFFF;" d="M1273.6,495.5l-7.1-19.6h-44.6l-7.1,19.6h-19.6l39.2-98.1h21.4l39.2,98.1H1273.6L1273.6,495.5z
				 M1245.1,413.5l-17.8,46.4h35.7L1245.1,413.5z"/>
			<path style="fill:#FFFFFF;" d="M1307.5,495.5v-98.1h42.8c21.4,0,32.1,14.3,32.1,30.3s-10.7,30.3-32.1,30.3h-26.8v37.5H1307.5z
				 M1366.4,427.7c0-8.9-7.1-16.1-16.1-16.1h-23.2v32.1h23.2C1359.2,443.8,1366.4,436.6,1366.4,427.7z"/>
			<path style="fill:#FFFFFF;" d="M1402.1,495.5v-98.1h42.8c21.4,0,32.1,14.3,32.1,30.3s-10.7,30.3-32.1,30.3h-26.8v37.5H1402.1z
				 M1459.1,427.7c0-8.9-7.1-16.1-16.1-16.1h-23.2v32.1h23.2C1452,443.8,1459.1,436.6,1459.1,427.7z"/>
			<path style="fill:#FFFFFF;" d="M1532.3,445.6c0-28.5,21.4-51.7,49.9-51.7c28.5,0,49.9,21.4,49.9,51.7c0,28.5-21.4,51.7-49.9,51.7
				S1532.3,475.9,1532.3,445.6z M1614.3,445.6c0-19.6-12.5-35.7-32.1-35.7c-19.6,0-32.1,16.1-32.1,35.7c0,19.6,12.5,35.7,32.1,35.7
				S1614.3,465.2,1614.3,445.6z"/>
			<path style="fill:#FFFFFF;" d="M1721.4,495.5l-51.7-69.6v69.6h-17.8v-98.1h17.8l49.9,67.8v-67.8h17.8v98.1H1721.4z"/>
		</g>
	</g>
	<g>
		<polygon style="fill:none;" points="255.1,731 306.8,681 306.8,681 255.1,731 94.5,570.4 94.5,570.4 255.1,731 94.5,893.3 
			94.5,893.3 255.1,731 306.8,782.7 306.8,782.7 		"/>
		
			<linearGradient id="SVGID_1_" gradientUnits="userSpaceOnUse" x1="485.2337" y1="1721.031" x2="473.3203" y2="1728.4868" gradientTransform="matrix(12.6131 12.6131 12.6131 -12.6131 -27605.0977 16305.334)">
			<stop  offset="0" style="stop-color:#D6FFA1"/>
			<stop  offset="0.3264" style="stop-color:#93E2A7"/>
			<stop  offset="1" style="stop-color:#00A3B5"/>
		</linearGradient>
		<path style="fill:url(#SVGID_1_);" d="M306.8,681L110.6,572.2c-5.4-3.6-10.7-3.6-14.3-1.8L256.9,731L306.8,681z"/>
		
			<linearGradient id="SVGID_2_" gradientUnits="userSpaceOnUse" x1="478.2926" y1="1727.4102" x2="493.7386" y2="1723.3723" gradientTransform="matrix(12.6131 12.6131 12.6131 -12.6131 -27605.0977 16305.334)">
			<stop  offset="0" style="stop-color:#FF177B"/>
			<stop  offset="0.6721" style="stop-color:#FFA976"/>
			<stop  offset="1" style="stop-color:#FFEC73"/>
		</linearGradient>
		<path style="fill:url(#SVGID_2_);" d="M306.8,782.7l67.8-37.5c14.3-7.1,14.3-19.6,0-26.8L306.8,681L256.9,731L306.8,782.7z"/>
		
			<linearGradient id="SVGID_3_" gradientUnits="userSpaceOnUse" x1="486.832" y1="1715.2123" x2="470.0827" y2="1725.0665" gradientTransform="matrix(12.6131 12.6131 12.6131 -12.6131 -27605.0977 16305.334)">
			<stop  offset="0" style="stop-color:#63FFD4"/>
			<stop  offset="0.4854" style="stop-color:#32A0BA"/>
			<stop  offset="0.8349" style="stop-color:#1262A9"/>
			<stop  offset="1" style="stop-color:#064AA2"/>
		</linearGradient>
		<path style="fill:url(#SVGID_3_);" d="M94.5,570.4c-5.4,1.8-10.7,7.1-10.7,17.8v289c0,8.9,3.6,14.3,8.9,17.8l160.5-160.5
			L94.5,570.4z"/>
		
			<linearGradient id="SVGID_4_" gradientUnits="userSpaceOnUse" x1="493.0282" y1="1723.1173" x2="482.7153" y2="1709.5305" gradientTransform="matrix(12.6131 12.6131 12.6131 -12.6131 -27605.0977 16305.334)">
			<stop  offset="0" style="stop-color:#FF4521"/>
			<stop  offset="0.3411" style="stop-color:#D43E65"/>
			<stop  offset="0.7935" style="stop-color:#9F36B9"/>
			<stop  offset="1" style="stop-color:#8A33DB"/>
		</linearGradient>
		<path style="fill:url(#SVGID_4_);" d="M94.5,893.3c3.6,1.8,8.9,0,14.3-1.8L305,782.7l-49.9-49.9L94.5,893.3z"/>
	</g>
</g>
</svg>
