<?xml version="1.0" encoding="UTF-8" standalone="no"?>
<svg width="31px" height="31px" viewBox="0 0 31 31" version="1.1" xmlns="http://www.w3.org/2000/svg" xmlns:xlink="http://www.w3.org/1999/xlink" xmlns:sketch="http://www.bohemiancoding.com/sketch/ns">
    <!-- Generator: Sketch 3.3.3 (12081) - http://www.bohemiancoding.com/sketch -->
    <title>lifesaver_help </title>
    <desc>Created with Sketch.</desc>
    <defs></defs>
    <g id="Page-1" stroke="none" stroke-width="1" fill="none" fill-rule="evenodd" sketch:type="MSPage">
        <g id="lifesaver_help-" sketch:type="MSLayerGroup" fill="#02A7DF">
            <path d="M15.4801045,7.1679403 C17.2258209,7.1679403 18.8489254,7.70835821 20.1902537,8.63002985 L25.1479403,3.67280597 C22.427806,1.43849254 19.0478806,0.223940299 15.4801045,0.223940299 C11.8147015,0.223940299 8.35010448,1.50558209 5.5901791,3.85695522 L10.5316716,8.79844776 C11.9178806,7.77544776 13.6293582,7.1679403 15.4801045,7.1679403 L15.4801045,7.1679403 Z" id="Fill-1" sketch:type="MSShapeGroup"></path>
            <path d="M7.14804478,15.5 C7.14804478,13.5678209 7.80968657,11.7878657 8.91597015,10.3743582 L3.98326866,5.4421194 C1.5398209,8.22702985 0.204044776,11.7605672 0.204044776,15.5 C0.204044776,19.3643582 1.63004478,23.009403 4.23265672,25.8364179 L9.15240299,20.9166716 C7.90361194,19.4582836 7.14804478,17.5658955 7.14804478,15.5 L7.14804478,15.5 Z" id="Fill-2" sketch:type="MSShapeGroup"></path>
            <path d="M15.4801045,23.8320597 C13.7649254,23.8320597 12.1691194,23.3096866 10.842597,22.4185522 L5.87935821,27.381791 C8.58838806,29.581403 11.9428657,30.7760597 15.4801045,30.7760597 C18.9197164,30.7760597 22.1853582,29.6461791 24.8550597,27.5640896 L19.8719254,22.5795672 C18.5958358,23.3730746 17.0907164,23.8320597 15.4801045,23.8320597 L15.4801045,23.8320597 Z" id="Fill-3" sketch:type="MSShapeGroup"></path>
            <path d="M26.7853881,5.22697015 L21.863791,10.1485672 C23.080194,11.5977015 23.8140149,13.4651045 23.8140149,15.5 C23.8140149,17.6690746 22.9807164,19.6479851 21.6162537,21.1318209 L26.5304478,26.0460149 C29.2575224,23.1921642 30.7561642,19.4601343 30.7561642,15.5 C30.7561642,11.6629403 29.3519104,8.0428806 26.7853881,5.22697015 L26.7853881,5.22697015 Z" id="Fill-4" sketch:type="MSShapeGroup"></path>
        </g>
    </g>
</svg>