<?xml version="1.0" standalone="no"?>
<!-- Generator: Adobe Fireworks 10, Export SVG Extension by Aaron Beall (http://fireworks.abeall.com) . Version: 0.6.1  -->
<!DOCTYPE svg PUBLIC "-//W3C//DTD SVG 1.1//EN" "http://www.w3.org/Graphics/SVG/1.1/DTD/svg11.dtd">
<svg id="hub-Page%201" viewBox="0 0 32 32" version="1.1"
	xmlns="http://www.w3.org/2000/svg" xmlns:xlink="http://www.w3.org/1999/xlink" xml:space="preserve"
	x="0px" y="0px" width="32px">
	<g id="Layer%201">
		<path d="M 14.6 7.2471 L 14.6 11.135 C 13.498 11.3617 12.5424 11.9971 11.9 12.8721 L 7.355 10.568 C 7.3818 10.4152 7.4 10.261 7.4 10.1 C 7.4 8.6088 6.1912 7.4 4.7 7.4 C 3.2089 7.4 2 8.6088 2 10.1 C 2 11.5912 3.2089 12.8 4.7 12.8 C 5.5148 12.8 6.248 12.4346 6.743 11.864 L 11.27 14.0869 C 11.1212 14.5316 11.045 15.0054 11.045 15.5 C 11.045 16.0008 11.1267 16.4818 11.2791 16.9311 L 6.797 19.199 C 6.302 18.5883 5.5474 18.2 4.7 18.2 C 3.2089 18.2 2 19.4088 2 20.9 C 2 22.3912 3.2089 23.6 4.7 23.6 C 6.1912 23.6 7.4 22.3912 7.4 20.9 C 7.4 20.6751 7.3711 20.4522 7.319 20.243 L 11.837 18.0381 C 12.4782 18.9609 13.4601 19.6311 14.6 19.865 L 14.6 23.7529 C 13.5514 24.1236 12.8 25.1245 12.8 26.3 C 12.8 27.7912 14.0088 29 15.5 29 C 16.9912 29 18.2 27.7912 18.2 26.3 C 18.2 25.1245 17.4486 24.1236 16.4 23.7529 L 16.4 19.865 C 17.5685 19.6252 18.5687 18.9264 19.208 17.966 L 23.699 20.1619 C 23.6326 20.3964 23.6 20.6443 23.6 20.9 C 23.6 22.3912 24.8088 23.6 26.3 23.6 C 27.7911 23.6 29 22.3912 29 20.9 C 29 19.4088 27.7911 18.2 26.3 18.2 C 25.4861 18.2 24.7529 18.5577 24.257 19.127 L 19.748 16.841 C 19.883 16.4165 19.955 15.9688 19.955 15.5 C 19.955 15.0355 19.8878 14.5892 19.757 14.168 L 24.3201 11.936 C 24.8118 12.4688 25.5177 12.8 26.3 12.8 C 27.7911 12.8 29 11.5912 29 10.1 C 29 8.6088 27.7911 7.4 26.3 7.4 C 24.8088 7.4 23.6 8.6088 23.6 10.1 C 23.6 10.2926 23.6246 10.4768 23.663 10.658 L 19.1541 12.9439 C 18.5127 12.0296 17.534 11.3672 16.4 11.135 L 16.4 7.2471 C 17.4486 6.8764 18.2 5.8755 18.2 4.7 C 18.2 3.2088 16.9912 2 15.5 2 C 14.0088 2 12.8 3.2088 12.8 4.7 C 12.8 5.8755 13.5514 6.8764 14.6 7.2471 Z"/>
	</g>
</svg>
