<?xml version="1.0" encoding="utf-8"?>
<!-- Generator: Adobe Illustrator 19.0.1, SVG Export Plug-In . SVG Version: 6.00 Build 0)  -->
<svg version="1.1" id="Layer_1" xmlns="http://www.w3.org/2000/svg" xmlns:xlink="http://www.w3.org/1999/xlink" x="0px" y="0px"
	 viewBox="-491 493 16 16" style="enable-background:new -491 493 16 16;" xml:space="preserve">
<style type="text/css">
	.st0{fill:#999999;}
</style>
<g>
	<g>
		<polygon class="st0" points="-483,498.8 -478.5,496.4 -483,493.9 -487.5,496.4 		"/>
		<g>
			<polygon class="st0" points="-483.5,499.4 -488.4,496.8 -488.4,502.6 -483.5,505.2 			"/>
			<polygon class="st0" points="-482.6,499.4 -482.6,505.2 -477.7,502.6 -477.7,496.8 			"/>
		</g>
	</g>
	<g>
		<path class="st0" d="M-477.7,503.2L-477.7,503.2l-1.1,0.6c1.1,0.3,1.8,0.5,1.8,0.9c0,0.7-2.3,1.3-5.2,1.4l0,0l1.2,0.9
			c3.4-0.2,6-1.1,6-2.1C-475,504.2-476.1,503.6-477.7,503.2z"/>
	</g>
	<g>
		<path class="st0" d="M-483,506.5l-2.5-1.5v1.1c-2.1-0.2-3.6-0.7-3.6-1.3c0-0.4,0.8-0.8,2-1l-1.3-0.8c-1.6,0.4-2.6,1.2-2.6,1.9
			c0,1,2.3,1.8,5.5,2.1v1.1L-483,506.5z"/>
	</g>
</g>
</svg>
