<svg id="finals_24px" xmlns="http://www.w3.org/2000/svg" viewBox="0 0 24 24">
	<path fill="#fff" d="M14.5,12.17h-6a0.5,0.5,0,0,1,0-1h6A0.5,0.5,0,0,1,14.5,12.17Z"/>
	<path fill="#fff" d="M11.5,15.17a0.5,0.5,0,0,1-.5-0.5v-6a0.5,0.5,0,0,1,1,0v6A0.5,0.5,0,0,1,11.5,15.17Z"/>
	<path fill="#fff" d="M11.5,19.17a7.5,7.5,0,1,1,5.3-12.8h0A7.5,7.5,0,0,1,11.5,19.17Zm0-14a6.5,6.5,0,1,0,4.6,1.9h0A6.46,6.46,0,0,0,11.5,5.17Z"/>
	<path fill="#fff" d="M20.5,21.17A0.5,0.5,0,0,1,20.15,21l-4-4a0.5,0.5,0,0,1,.71-0.71l4,4A0.5,0.5,0,0,1,20.5,21.17Z"/>
</svg>