<?xml version="1.0" standalone="no"?>
<!-- Generator: Adobe Fireworks 10, Export SVG Extension by Aaron Beall (http://fireworks.abeall.com) . Version: 0.6.1  -->
<!DOCTYPE svg PUBLIC "-//W3C//DTD SVG 1.1//EN" "http://www.w3.org/Graphics/SVG/1.1/DTD/svg11.dtd">
<svg id="info_32-Page%201" viewBox="0 0 32 32" style="background-color:#ffffff00" version="1.1"
	xmlns="http://www.w3.org/2000/svg" xmlns:xlink="http://www.w3.org/1999/xlink" xml:space="preserve"
	x="0px" y="0px" width="32px" height="32px"
>
	<g id="Layer%201">
		<path d="M 13 10 C 13 8.3431 14.3431 7 16 7 C 17.6569 7 19 8.3431 19 10 C 19 11.6569 17.6569 13 16 13 C 14.3431 13 13 11.6569 13 10 ZM 13 16 L 11 16 L 11 15 L 19 15 L 19 23 L 21 23 L 21 24 L 11 24 L 11 23 L 13 23 L 13 16 ZM 4 16 C 4 22.6275 9.3725 28 16 28 C 22.6275 28 28 22.6275 28 16 C 28 9.3725 22.6275 4 16 4 C 9.3725 4 4 9.3725 4 16 Z" fill="#000000"/>
	</g>
</svg>