<?xml version="1.0" encoding="utf-8"?>
<!-- Generator: Adobe Illustrator 18.1.1, SVG Export Plug-In . SVG Version: 6.00 Build 0)  -->
<!DOCTYPE svg PUBLIC "-//W3C//DTD SVG 1.1//EN" "http://www.w3.org/Graphics/SVG/1.1/DTD/svg11.dtd">
<svg version="1.1" id="assets" xmlns="http://www.w3.org/2000/svg" xmlns:xlink="http://www.w3.org/1999/xlink" x="0px" y="0px"
	 width="78px" height="94px" viewBox="0 0 78 94" enable-background="new 0 0 78 94" xml:space="preserve">
<g>
	<path fill="#FF9B0D" d="M0,0v94h78V20H58V0H0z"/>
	<path fill="#FFFFFF" d="M4,5h54v15h16v50H4V5z"/>
	<path fill="#FAB11C" d="M58,0l20,20H58V0z"/>
	<path opacity="0.2" fill="#1B3F63" enable-background="new    " d="M58,20h20v20L58,20z"/>
</g>
<g>
	<rect x="20" y="50" fill="#FF9B0D" width="23" height="13"/>
	<rect x="30" y="26" fill="#F08729" width="13" height="24"/>
	<polygon fill="#FF9B0D" points="52,13 52,26 20,26 22.5,13 	"/>
	<polygon fill="#D36705" points="30,13 30,26 43,26 	"/>
	<polygon fill="#D36705" points="30,63 30,50 43,50 	"/>
	<polygon fill="#F08729" points="43,63 51.5,63 53,50 43,50 	"/>
</g>
</svg>
