<?xml version="1.0" encoding="utf-8"?>
<!-- Generator: Adobe Illustrator 18.1.1, SVG Export Plug-In . SVG Version: 6.00 Build 0)  -->
<!DOCTYPE svg PUBLIC "-//W3C//DTD SVG 1.1//EN" "http://www.w3.org/Graphics/SVG/1.1/DTD/svg11.dtd">
<svg version="1.1" id="assets" xmlns="http://www.w3.org/2000/svg" xmlns:xlink="http://www.w3.org/1999/xlink" x="0px" y="0px"
	 width="16px" height="16px" viewBox="0 0 16 16" enable-background="new 0 0 16 16" xml:space="preserve">
<g>
	<g id="fileIconBG_79_">
		<path id="foldedCorner_212_" fill="#FAB11C" d="M11,0l5,5h-5V0z"/>
		<path id="background_212_" fill="#FF9B0D" d="M0,0v16h16V5h-5V0H0z"/>
		<path id="white_168_" fill="#FFFFFF" d="M1,1v8h14V5h-4V1H1z"/>
		<path id="shadow_192_" opacity="0.2" fill="#1B3F63" enable-background="new    " d="M16,10l-5-5h5V10z"/>
	</g>
	<path fill="#FFFFFF" d="M5,15v-5H4v5H5L5,15z"/>
	<path fill="#FFFFFF" d="M10,13v0.8c0,0.6,0.4,1.3,1,1.3h1c0.6,0,1-0.7,1-1.3V10h-1v3.7c0,0.3-0.2,0.5-0.5,0.5S11,13.9,11,13.7V13
		H10z"/>
	<path fill="#FFFFFF" d="M7,11h1.5C8.8,11,9,11.2,9,11.5C9,11.8,8.8,12,8.5,12H7V11z M6,10v5h1v-2h1.5c0.8,0,1.5-0.7,1.5-1.5
		S9.3,10,8.5,10H6z"/>
</g>
</svg>
