<?xml version="1.0" encoding="utf-8"?>
<!-- Generator: Adobe Illustrator 18.1.1, SVG Export Plug-In . SVG Version: 6.00 Build 0)  -->
<!DOCTYPE svg PUBLIC "-//W3C//DTD SVG 1.1//EN" "http://www.w3.org/Graphics/SVG/1.1/DTD/svg11.dtd">
<svg version="1.1" id="assets" xmlns="http://www.w3.org/2000/svg" xmlns:xlink="http://www.w3.org/1999/xlink" x="0px" y="0px"
	 width="16px" height="16px" viewBox="0 0 16 16" enable-background="new 0 0 16 16" xml:space="preserve">
<g>
	<g id="fileIconBG_73_">
		<path id="foldedCorner_205_" fill="#FAB11C" d="M11,0l5,5h-5V0z"/>
		<path id="background_205_" fill="#FF9B0D" d="M0,0v16h16V5h-5V0H0z"/>
		<path id="white_162_" fill="#FFFFFF" d="M1,1v8h14V5h-4V1H1z"/>
		<path id="shadow_181_" opacity="0.2" fill="#1B3F63" enable-background="new    " d="M16,10l-5-5h5V10z"/>
	</g>
	<g>
		<path fill="#FFFFFF" d="M4,15v-5H3v5H4L4,15z"/>
		<path fill="#FFFFFF" d="M6,11h1.5C7.8,11,8,11.2,8,11.5C8,11.8,7.8,12,7.5,12H6V11z M5,10v5h1v-2h1.5C8.3,13,9,12.3,9,11.5
			C9,10.7,8.3,10,7.5,10H5z"/>
		<path fill="#FFFFFF" d="M12,11h1.3v-1H9.7v1H11v4h1V11z"/>
	</g>
</g>
</svg>
