<?xml version="1.0" standalone="no"?>
<!-- Generator: Adobe Fireworks 10, Export SVG Extension by Aaron Beall (http://fireworks.abeall.com) . Version: 0.6.1  -->
<!DOCTYPE svg PUBLIC "-//W3C//DTD SVG 1.1//EN" "http://www.w3.org/Graphics/SVG/1.1/DTD/svg11.dtd">
<svg id="lock-Page%201" viewBox="0 0 16 16" style="background-color:#ffffff00" version="1.1"
	xmlns="http://www.w3.org/2000/svg" xmlns:xlink="http://www.w3.org/1999/xlink" xml:space="preserve"
	x="0px" y="0px" width="16px" height="16px"
>
	<g id="Layer%201">
		<path d="M 8 8 C 8.5523 8 9 8.4477 9 9 L 9 12 C 9 12.5523 8.5523 13 8 13 C 7.4477 13 7 12.5523 7 12 L 7 9 C 7 8.4477 7.4477 8 8 8 ZM 11 4.8888 L 11 6 L 5 6 L 5 4.8837 C 5 3.2668 6.3567 1.9445 8 1.9445 C 9.6433 1.9445 11 3.2668 11 4.8888 ZM 13 4.8889 C 13 2.1888 10.7615 0 8 0 C 5.2385 0 3 2.1888 3 4.8889 L 3 6 L 2.5 6 C 2.2239 6 2 6.2239 2 6.5 L 2 14.5 C 2 14.7761 2.2239 15 2.5 15 L 13.5 15 C 13.7761 15 14 14.7761 14 14.5 L 14 6.5 C 14 6.2239 13.7761 6 13.5 6 L 13 6 L 13 4.8889 Z" fill="#000000"/>
	</g>
</svg>