<?xml version="1.0" encoding="utf-8"?>
<!-- Generator: Adobe Illustrator 18.1.0, SVG Export Plug-In . SVG Version: 6.00 Build 0)  -->
<svg version="1.1" id="Layer_1" xmlns="http://www.w3.org/2000/svg" xmlns:xlink="http://www.w3.org/1999/xlink" x="0px" y="0px"
	 viewBox="0 0 26 20.3" style="enable-background:new 0 0 26 20.3;" xml:space="preserve">
<style type="text/css">
	.Drop_x0020_Shadow{fill:none;}
	.Outer_x0020_Glow_x0020_5_x0020_pt{fill:none;}
	.Blue_x0020_Neon{fill:none;stroke:#8AACDA;stroke-width:7;stroke-linecap:round;stroke-linejoin:round;}
	.Chrome_x0020_Highlight{fill:url(#SVGID_1_);stroke:#FFFFFF;stroke-width:0.3629;stroke-miterlimit:1;}
	.Jive_GS{fill:#FFDD00;}
	.Alyssa_GS{fill:#A6D0E4;}
	.st0{fill-rule:evenodd;clip-rule:evenodd;fill:#6AC3ED;}
	.st1{fill-rule:evenodd;clip-rule:evenodd;fill:#3871B8;}
	.st2{fill-rule:evenodd;clip-rule:evenodd;fill:#329FD2;}
	.st3{fill-rule:evenodd;clip-rule:evenodd;fill:#1D59A3;}
</style>
<linearGradient id="SVGID_1_" gradientUnits="userSpaceOnUse" x1="-978.2432" y1="-630.7252" x2="-978.2432" y2="-631.7252">
	<stop  offset="0" style="stop-color:#656565"/>
	<stop  offset="0.618" style="stop-color:#1B1B1B"/>
	<stop  offset="0.6292" style="stop-color:#545454"/>
	<stop  offset="0.9831" style="stop-color:#3E3E3E"/>
</linearGradient>
<g>
	<path class="st0" d="M6.1,4.2c1.7-4,9-5.5,14.4-2.8c5.4,2.8,6.5,8.1,4.7,11.4c-1.9,3.3-2.8,3.7-4.2,4.4c-1.9-7-4-9.1-4-9.1
		S12,5.3,6.1,4.2z"/>
	<path class="st1" d="M0,8.2c-0.3,2.5,1.8,4.5,5,6.1c1.5,0.8,3.5,2.9,5.4,3.5c6.5,2.1,11.9,0.6,13.3-3.6C25.3,9.6,20.4,4.6,13,3.3
		C5.7,2.1,0.4,5.4,0,8.2z M9.9,10.9c2.8-1.2,6.7-0.1,7.2,1.4C14,13.2,10.9,12.4,9.9,10.9z"/>
	<path class="st2" d="M17.3,12.1c-2.6,0.8-6-0.1-7.4-1.2c-0.7,2.3,0.3,4.5,4.3,5.1C17.9,16.4,19.3,13.7,17.3,12.1z"/>
	<path class="st3" d="M20.9,17.6c-6.7,4.2-16.5,3.2-17.7-0.7s3.5-6.1,4.4-6.7c0.9-0.6,2.3,0.6,2.3,0.6C8.2,16.2,12.7,20.8,20.9,17.6
		z"/>
	<path class="st0" d="M3.2,14.5c0-0.1,1.3-3.4,1.6-4.6c0.3-1.1,1-2.3,3.7-3.8c1.8-1,6.3-1.6,10.5,0.8c4.1,2.4,3,8.9-3.7,9
		c2.3-0.1,3.4-2.7,1-4.4c-2.1-1.4-7.2-0.8-9.2,0C4.9,12.6,4.4,12.9,3.2,14.5z"/>
</g>
</svg>
