<?xml version="1.0" encoding="utf-8"?>
<!-- Generator: Adobe Illustrator 16.0.4, SVG Export Plug-In . SVG Version: 6.00 Build 0)  -->
<!DOCTYPE svg PUBLIC "-//W3C//DTD SVG 1.1//EN" "http://www.w3.org/Graphics/SVG/1.1/DTD/svg11.dtd">
<svg version="1.1" id="Layer_1" xmlns="http://www.w3.org/2000/svg" xmlns:xlink="http://www.w3.org/1999/xlink" x="0px" y="0px"
	 width="42px" height="42px" viewBox="0 0 42 42" enable-background="new 0 0 42 42" xml:space="preserve">
<path fill-rule="evenodd" clip-rule="evenodd" d="M24.227,1.5c0,0,1.262,0,1.85,1.521L41.484,39.5H30.514L15.105,3.021
	C14.519,1.5,13.256,1.5,13.256,1.5H24.227z"/>
<path fill-rule="evenodd" clip-rule="evenodd" d="M25.111,29.603H2.963c0,0-0.853-0.048-1.463-0.751
	c1.526,3.074,4.753,8.929,5.164,9.742s2.568,2.118,5.73-0.071S25.111,29.603,25.111,29.603z"/>
<path fill-rule="evenodd" clip-rule="evenodd" d="M18.064,12.704l-6.602,15.832H3.519c0,0-2.835-0.154-1.479-3.575
	s8.346-20.139,8.875-21.383s2.641-1.833,3.575,0.367C15.547,6.436,18.064,12.704,18.064,12.704z"/>
</svg>
