<?xml version="1.0" standalone="no"?>
<!-- Generator: Adobe Fireworks 10, Export SVG Extension by Aaron Beall (http://fireworks.abeall.com) . Version: 0.6.1  -->
<!DOCTYPE svg PUBLIC "-//W3C//DTD SVG 1.1//EN" "http://www.w3.org/Graphics/SVG/1.1/DTD/svg11.dtd">
<svg id="maginfyingGlass-Page%201" viewBox="0 0 32 32" style="background-color:#ffffff00" version="1.1"
	xmlns="http://www.w3.org/2000/svg" xmlns:xlink="http://www.w3.org/1999/xlink" xml:space="preserve"
	x="0px" y="0px" width="32px" height="32px"
>
	<g id="Layer%201">
		<path d="M 5 12 C 5 8.134 8.134 5 12 5 C 15.866 5 19 8.134 19 12 C 19 15.866 15.866 19 12 19 C 8.134 19 5 15.866 5 12 ZM 2 12 C 2 17.5229 6.4771 22 12 22 C 14.3577 22 16.5253 21.1846 18.235 19.82 L 18.7925 20.3775 C 18.6716 21.007 18.8558 21.6842 19.3431 22.1716 L 25.8284 28.6569 C 26.6095 29.4379 27.8758 29.4379 28.6569 28.6569 C 29.4379 27.8758 29.4379 26.6095 28.6569 25.8284 L 22.1716 19.3431 C 21.6842 18.8558 21.007 18.6716 20.3775 18.7925 L 19.82 18.235 C 21.1848 16.5255 22 14.3577 22 12 C 22 6.4771 17.5229 2 12 2 C 6.4771 2 2 6.4771 2 12 Z" fill="#000000"/>
	</g>
</svg>