<?xml version="1.0" encoding="utf-8"?>
<!-- Generator: Adobe Illustrator 18.0.0, SVG Export Plug-In . SVG Version: 6.00 Build 0)  -->
<!DOCTYPE svg PUBLIC "-//W3C//DTD SVG 1.1//EN" "http://www.w3.org/Graphics/SVG/1.1/DTD/svg11.dtd">
<svg version="1.1" id="Layer_1" xmlns="http://www.w3.org/2000/svg" xmlns:xlink="http://www.w3.org/1999/xlink" x="0px" y="0px"
	 width="260px" height="152px" viewBox="0 0 260 152" enable-background="new 0 0 16 16" xml:space="preserve">
<path fill="#02A7DF" d="M184.2,152c-3.5,0-7.3-1.1-11-4.4c-13.5-11.7-1.9-25.3-1.9-25.3l24.6-24H21.6c0,0-21.6,0-21.6-22
	c0-21.5,21.6-21.5,21.6-21.5h174.6l-25.7-25.7c0,0-9.9-12.4,1.9-24c3.9-3.8,8.1-5.1,11.7-5.1c6.7,0,11.9,4.1,11.9,4.1l56.5,57.1
	c0,0,6.5,5.1,7.3,13.1c0.6,6.7-3.5,12.4-3.5,12.4L198,146.2C198,146.2,192,152,184.2,152"/>
</svg>
