<?xml version="1.0" encoding="utf-8"?>
<!-- Generator: Adobe Illustrator 18.1.1, SVG Export Plug-In . SVG Version: 6.00 Build 0)  -->
<!DOCTYPE svg PUBLIC "-//W3C//DTD SVG 1.1//EN" "http://www.w3.org/Graphics/SVG/1.1/DTD/svg11.dtd">
<svg version="1.1" id="assets" xmlns="http://www.w3.org/2000/svg" xmlns:xlink="http://www.w3.org/1999/xlink" x="0px" y="0px"
	 width="26px" height="30px" viewBox="0 0 26 30" enable-background="new 0 0 26 30" xml:space="preserve">
<g>
	<g>
		<path id="foldedCorner_158_" fill="#38BCAC" d="M19,0l7,7h-7V0z"/>
		<path id="background_158_" fill="#30A295" d="M0,0v30h26V7h-7V0H0z"/>
		<path id="white_132_" fill="#FFFFFF" d="M1,1v20h24V7h-6V1H1z"/>
		<path id="shadow_149_" opacity="0.2" fill="#1B3F63" enable-background="new    " d="M26,14l-7-7h7V14z"/>
	</g>
	<g>
		<path fill="#FFFFFF" d="M14.2,23h-1.4l-1.5,5h1l0.3-1h1.8l0.3,1h1L14.2,23L14.2,23z M12.9,26l0.6-2l0.6,2H12.9L12.9,26z"/>
		<path fill="#FFFFFF" d="M7,28v-2.7L8,28h1l1-2.7V28h1v-5h-1l-1.5,3L7,23H6v5H7z"/>
		<path fill="#FFFFFF" d="M18,26.3l1,1.7h1l-1.5-2.5L20,23h-1l-1,1.7L17,23h-1l1.5,2.5L16,28h1L18,26.3z"/>
	</g>
	<g>
		<polygon fill="#1F8277" points="19.8,11 15.7,19 11.6,15.1 11.6,5.9 15.7,3 		"/>
		<path fill="#34BFAE" d="M7.3,11.1c0.1,0,4.6-4.4,4.6-4.4l1,0.6c0,0,0.2,7,0.1,7c-0.1,0-1.4,0.8-1.4,0.8L7.3,11.1z"/>
		<path fill="#34BFAE" d="M15.7,3l-3.3,3.2H7L8.4,3C8.4,3,15.7,3,15.7,3z"/>
		<polygon fill="#34BFAE" points="7,15.8 8.4,19 15.7,19 12.4,15.8 		"/>
		<polygon fill="#1F8277" points="13.7,13.3 7,15.8 12.4,15.8 		"/>
		<polygon fill="#1F8277" points="13.7,8.7 7,6.2 12.4,6.2 		"/>
		<path fill="#15756A" d="M12.4,15.8c0-0.1,0-9.6,0-9.6l7.4,4.8L12.4,15.8z"/>
		<polygon fill="#136B61" points="19.8,11 12.4,6.2 12.4,8.2 		"/>
		<polygon fill="#136B61" points="19.8,11 12.4,15.8 12.4,13.7 		"/>
	</g>
</g>
</svg>
