<?xml version="1.0" encoding="utf-8"?>
<!-- Generator: Adobe Illustrator 18.1.1, SVG Export Plug-In . SVG Version: 6.00 Build 0)  -->
<!DOCTYPE svg PUBLIC "-//W3C//DTD SVG 1.1//EN" "http://www.w3.org/Graphics/SVG/1.1/DTD/svg11.dtd">
<svg version="1.1" id="assets" xmlns="http://www.w3.org/2000/svg" xmlns:xlink="http://www.w3.org/1999/xlink" x="0px" y="0px"
	 width="16px" height="16px" viewBox="0 0 16 16" enable-background="new 0 0 16 16" xml:space="preserve">
<g>
	<g id="fileIconBG_38_">
		<path id="foldedCorner_41_" fill="#38BCAC" d="M11,0l5,5h-5V0z"/>
		<path id="background_41_" fill="#30A295" d="M0,0v16h16V5h-5V0H0z"/>
		<path id="white_97_" fill="#FFFFFF" d="M1,1v8h14V5h-4V1H1z"/>
		<path id="shadow_111_" opacity="0.2" fill="#1B3F63" enable-background="new    " d="M16,10l-5-5h5V10z"/>
	</g>
	<g>
		<path fill="#FFFFFF" d="M9.2,10H7.8l-1.5,5h1l0.3-1h1.8l0.3,1h1L9.2,10L9.2,10z M7.9,13l0.6-2l0.6,2H7.9L7.9,13z"/>
		<path fill="#FFFFFF" d="M2,15v-2.7L3,15h1l1-2.7V15h1v-5H5l-1.5,3L2,10H1v5H2z"/>
		<path fill="#FFFFFF" d="M13,13.3l1,1.7h1l-1.5-2.5L15,10h-1l-1,1.7L12,10h-1l1.5,2.5L11,15h1L13,13.3z"/>
	</g>
</g>
</svg>
