<?xml version="1.0" standalone="no"?>
<!-- Generator: Adobe Fireworks 10, Export SVG Extension by Aaron Beall (http://fireworks.abeall.com) . Version: 0.6.1  -->
<!DOCTYPE svg PUBLIC "-//W3C//DTD SVG 1.1//EN" "http://www.w3.org/Graphics/SVG/1.1/DTD/svg11.dtd">
<svg id="feedback_16-Page%201" viewBox="0 0 16 16" style="background-color:#ffffff00" version="1.1"
	xmlns="http://www.w3.org/2000/svg" xmlns:xlink="http://www.w3.org/1999/xlink" xml:space="preserve"
	x="0px" y="0px" width="16px" height="16px"
>
	<g id="Layer%201">
		<path d="M 2 8.579 L 3.4211 12.1579 L 8.2546 15.5421 L 9.2979 14.4013 L 5.6 11.305 L 5.8421 11.2105 L 4.4211 7.6316 L 2 8.579 ZM 6.9075 10.9776 C 6.9075 10.9776 7.8296 10.5219 8.1342 10.4051 C 11.0811 9.2742 13.4543 9.6276 15.1074 12.1719 L 15.7529 11.9241 L 11.2937 0.3071 C 11.2937 0.3071 10.9182 0.4744 10.6482 0.5548 C 11.122 3.5517 9.5947 5.4018 6.6478 6.5327 C 6.3433 6.6496 5.4211 7.1053 5.4211 7.1053 L 6.9075 10.9776 ZM 0.1177 9.7791 L 1.1086 12.3607 L 2.1579 12 L 1.074 9.3979 L 0.1177 9.7791 Z" fill="#4675a8"/>
	</g>
</svg>