<?xml version="1.0" encoding="utf-8"?>
<!-- Generator: Adobe Illustrator 16.0.4, SVG Export Plug-In . SVG Version: 6.00 Build 0)  -->
<!DOCTYPE svg PUBLIC "-//W3C//DTD SVG 1.1//EN" "http://www.w3.org/Graphics/SVG/1.1/DTD/svg11.dtd">
<svg version="1.1" id="Layer_1" xmlns="http://www.w3.org/2000/svg" xmlns:xlink="http://www.w3.org/1999/xlink" x="0px" y="0px"
	 width="20px" height="20px" viewBox="0 0 20 20" enable-background="new 0 0 20 20" xml:space="preserve">
<path fill-rule="evenodd" clip-rule="evenodd" d="M9.97,10.769c0.329,0.008,8.052-6.007,8.199-6.122s0.452-0.875-0.448-0.875
	c-0.899,0-7.73,0-7.73,0s-6.831,0-7.73,0s-0.595,0.76-0.448,0.875C1.952,4.755,9.641,10.761,9.97,10.769z"/>
<path fill-rule="evenodd" clip-rule="evenodd" d="M1.405,5.598c0,0,4.068,3.045,4.345,3.241c0.266,0.189,0.679,0.333,0.272,0.903
	s-4.136,5.17-4.469,5.513s-0.887,0.494-0.887-0.247s0-8.401,0-8.913S1.013,5.316,1.405,5.598z"/>
<path fill-rule="evenodd" clip-rule="evenodd" d="M18.576,5.598c0,0-4.068,3.045-4.345,3.241c-0.267,0.189-0.679,0.333-0.272,0.903
	s4.136,5.17,4.469,5.513s0.887,0.494,0.887-0.247s0-8.401,0-8.913S18.969,5.316,18.576,5.598z"/>
<path fill-rule="evenodd" clip-rule="evenodd" d="M17.139,16.565c0.271,0,0.907-0.226,0.398-0.873s-4.187-5.181-4.187-5.181
	s-0.268-0.608-0.827-0.138s-2.322,1.993-2.542,1.993s-1.964-1.522-2.523-1.993s-0.827,0.138-0.827,0.138s-3.678,4.534-4.187,5.181
	s0.127,0.873,0.398,0.873S16.867,16.565,17.139,16.565z"/>
</svg>
