<?xml version="1.0" encoding="utf-8"?>
<!-- Generator: Adobe Illustrator 18.1.1, SVG Export Plug-In . SVG Version: 6.00 Build 0)  -->
<!DOCTYPE svg PUBLIC "-//W3C//DTD SVG 1.1//EN" "http://www.w3.org/Graphics/SVG/1.1/DTD/svg11.dtd">
<svg version="1.1" id="assets" xmlns="http://www.w3.org/2000/svg" xmlns:xlink="http://www.w3.org/1999/xlink" x="0px" y="0px"
	 width="78px" height="94px" viewBox="0 0 78 94" enable-background="new 0 0 78 94" xml:space="preserve">
<g>
	<path fill="#74A137" d="M0,0v94h78V20H58V0H0z"/>
	<path fill="#FFFFFF" d="M4,5h54v15h16v50H4V5z"/>
	<path fill="#86BB40" d="M58,0l20,20H58V0z"/>
	<path opacity="0.2" fill="#1B3F63" enable-background="new    " d="M58,20h20v20L58,20z"/>
</g>
<g>
	<polygon fill="#77AB32" points="32,13 20,14 29.5,23.8 34,20.3 	"/>
	<polygon fill="#679627" points="32,13 32,23.5 40.7,28 	"/>
	<polygon fill="#3B5C10" points="55,13 40.5,26.3 55,33.5 	"/>
	<polygon fill="#5B8722" points="39.8,43.8 48.8,36 55,51 40.3,46.3 	"/>
	<polygon fill="#618F22" points="37,48 44,62 55,51.3 40,43 	"/>
	<polygon fill="#77AB32" points="33,51.5 37,48 34.5,39 30.5,39.8 	"/>
	<polygon fill="#618F22" points="20,63 33,63 33,50.8 26.3,54.3 	"/>
	<polygon fill="#587B2A" points="55,51 44,62 55,63 	"/>
	<polygon fill="#3B5C10" points="55,33.5 47.8,38.3 55,51 	"/>
	<polygon fill="#4A6E1A" points="20,14 55,33.5 37,48 32.5,40.5 33,51.5 20,63 	"/>
</g>
</svg>
