<?xml version="1.0" encoding="utf-8"?>
<!-- Generator: Adobe Illustrator 18.1.1, SVG Export Plug-In . SVG Version: 6.00 Build 0)  -->
<!DOCTYPE svg PUBLIC "-//W3C//DTD SVG 1.1//EN" "http://www.w3.org/Graphics/SVG/1.1/DTD/svg11.dtd">
<svg version="1.1" id="assets" xmlns="http://www.w3.org/2000/svg" xmlns:xlink="http://www.w3.org/1999/xlink" x="0px" y="0px"
	 width="16px" height="16px" viewBox="0 0 16 16" enable-background="new 0 0 16 16" xml:space="preserve">
<g>
	<g id="fileIconBG_67_">
		<path id="foldedCorner_165_" fill="#86BB40" d="M11,0l5,5h-5V0z"/>
		<path id="background_165_" fill="#74A137" d="M0,0v16h16V5h-5V0H0z"/>
		<path id="white_115_" fill="#FFFFFF" d="M1,1v8h14V5h-4V1H1z"/>
		<path id="shadow_135_" opacity="0.2" fill="#1B3F63" enable-background="new    " d="M16,10l-5-5h5V10z"/>
	</g>
	<g>
		<path fill="#FFFFFF" d="M11,12.5c0,1.7,0.9,2.5,2,2.5c0.8,0,1.7-0.6,2-1.5L14.2,13c-0.2,0.5-0.5,1-1.2,1c-0.6,0-1-0.7-1-1.5
			c0-0.8,0.4-1.5,1-1.5c0.5,0,1,0.5,1.1,1l0.9-0.5c-0.3-0.9-0.9-1.5-2-1.5C11.8,10,11,10.8,11,12.5z"/>
		<path fill="#FFFFFF" d="M2,15v-3l2,3h1v-5H4v3l-2-3H1v5H2z"/>
		<path fill="#FFFFFF" d="M7.1,15L8,12l0.8,3h1.1l1.2-5h-0.9l-0.9,3.5L8.4,10H7.6l-0.9,3.4L5.8,10H4.9l1.2,5H7.1z"/>
	</g>
</g>
</svg>
