<?xml version="1.0" encoding="utf-8"?>
<!-- Generator: Adobe Illustrator 18.1.1, SVG Export Plug-In . SVG Version: 6.00 Build 0)  -->
<!DOCTYPE svg PUBLIC "-//W3C//DTD SVG 1.1//EN" "http://www.w3.org/Graphics/SVG/1.1/DTD/svg11.dtd">
<svg version="1.1" id="assets" xmlns="http://www.w3.org/2000/svg" xmlns:xlink="http://www.w3.org/1999/xlink" x="0px" y="0px"
	 width="26px" height="30px" viewBox="0 0 26 30" enable-background="new 0 0 26 30" xml:space="preserve">
<g>
	<g>
		<path id="foldedCorner_155_" fill="#86BB40" d="M19,0l7,7h-7V0z"/>
		<path id="background_155_" fill="#74A137" d="M0,0v30h26V7h-7V0H0z"/>
		<path id="white_125_" fill="#FFFFFF" d="M1,1v20h24V7h-6V1H1z"/>
		<path id="shadow_141_" opacity="0.2" fill="#1B3F63" enable-background="new    " d="M26,14l-7-7h7V14z"/>
	</g>
	<g>
		<path fill="#FFFFFF" d="M16,25.5c0,1.7,0.9,2.5,2,2.5c0.8,0,1.7-0.6,2-1.5L19.2,26c-0.2,0.5-0.5,1-1.2,1c-0.6,0-1-0.7-1-1.5
			c0-0.8,0.4-1.5,1-1.5c0.5,0,1,0.5,1.1,1l0.9-0.5c-0.3-0.9-0.9-1.5-2-1.5C16.8,23,16,23.8,16,25.5z"/>
		<path fill="#FFFFFF" d="M7,28v-3l2,3h1v-5H9v3l-2-3H6v5H7z"/>
		<path fill="#FFFFFF" d="M12.1,28l0.9-3l0.8,3h1.1l1.2-5h-0.9l-0.9,3.5L13.4,23h-0.9l-0.9,3.4L10.8,23H9.9l1.2,5H12.1z"/>
	</g>
	<g>
		<polygon fill="#77AB32" points="10.8,3 7,3.3 10,6.4 11.4,5.3 		"/>
		<polygon fill="#679627" points="10.8,3 10.8,6.4 13.5,7.8 		"/>
		<polygon fill="#3B5C10" points="18,3 13.4,7.2 18,9.6 		"/>
		<polygon fill="#5B8722" points="13.2,12.8 16,10.4 18,15.2 13.4,13.6 		"/>
		<polygon fill="#618F22" points="12.3,14.2 14.5,18.7 18,15.2 13.3,12.6 		"/>
		<polygon fill="#77AB32" points="11.1,15.3 12.3,14.2 11.6,11.3 10.3,11.6 		"/>
		<polygon fill="#618F22" points="7,19 11,19 11,15 8.9,16.1 		"/>
		<polygon fill="#587B2A" points="18,15.2 14.5,18.7 18,19 		"/>
		<polygon fill="#3B5C10" points="18,9.6 15.7,11.1 18,15.2 		"/>
		<polygon fill="#4A6E1A" points="7,3.3 18,9.6 12.3,14.2 10.9,11.8 11.1,15.3 7,19 		"/>
	</g>
</g>
</svg>
