<?xml version="1.0" encoding="utf-8"?>
<!-- Generator: Adobe Illustrator 18.1.1, SVG Export Plug-In . SVG Version: 6.00 Build 0)  -->
<!DOCTYPE svg PUBLIC "-//W3C//DTD SVG 1.1//EN" "http://www.w3.org/Graphics/SVG/1.1/DTD/svg11.dtd">
<svg version="1.1" id="assets" xmlns="http://www.w3.org/2000/svg" xmlns:xlink="http://www.w3.org/1999/xlink" x="0px" y="0px"
	 width="16px" height="16px" viewBox="0 0 16 16" enable-background="new 0 0 16 16" xml:space="preserve">
<g>
	<g id="fileIconBG_14_">
		<path id="foldedCorner_22_" fill="#38BCAC" d="M11,0l5,5h-5V0z"/>
		<path id="background_22_" fill="#30A295" d="M0,0v16h16V5h-5V0H0z"/>
		<path id="white_58_" fill="#FFFFFF" d="M1,1v8h14V5h-4V1H1z"/>
		<path id="shadow_71_" opacity="0.2" fill="#1B3F63" enable-background="new    " d="M16,10l-5-5h5V10z"/>
	</g>
	<g>
		<path fill="#FFFFFF" d="M8,13h1.5c0.3,0,0.5,0.2,0.5,0.5S9.8,14,9.5,14H8V13z M9.5,12H8v-1h1.5c0.3,0,0.5,0.2,0.5,0.5
			S9.8,12,9.5,12z M7,15h2.5c0.8,0,1.5-0.7,1.5-1.5c0-0.4-0.1-0.7-0.4-1c0.2-0.3,0.4-0.6,0.4-1c0-0.8-0.7-1.5-1.5-1.5H7V15z"/>
		<path fill="#FFFFFF" d="M12,13v0.8c0,0.6,0.4,1.3,1,1.3h1c0.6,0,1-0.7,1-1.3V10h-1v3.7c0,0.3-0.2,0.5-0.5,0.5
			c-0.3,0-0.5-0.2-0.5-0.5V13H12z"/>
		<path fill="#FFFFFF" d="M2,12.5C2,11.7,2.7,11,3.5,11C4.3,11,5,11.7,5,12.5S4.3,14,3.5,14C2.7,14,2,13.3,2,12.5z M1,12.5
			C1,13.9,2.1,15,3.5,15C4.9,15,6,13.9,6,12.5S4.9,10,3.5,10C2.1,10,1,11.1,1,12.5z"/>
	</g>
</g>
</svg>
