<?xml version="1.0" encoding="utf-8"?>
<!-- Generator: Adobe Illustrator 18.1.1, SVG Export Plug-In . SVG Version: 6.00 Build 0)  -->
<!DOCTYPE svg PUBLIC "-//W3C//DTD SVG 1.1//EN" "http://www.w3.org/Graphics/SVG/1.1/DTD/svg11.dtd">
<svg version="1.1" id="assets" xmlns="http://www.w3.org/2000/svg" xmlns:xlink="http://www.w3.org/1999/xlink" x="0px" y="0px"
	 width="26px" height="30px" viewBox="0 0 26 30" enable-background="new 0 0 26 30" xml:space="preserve">
<g>
	<g>
		<path id="foldedCorner_163_" fill="#38BCAC" d="M19,0l7,7h-7V0z"/>
		<path id="background_163_" fill="#30A295" d="M0,0v30h26V7h-7V0H0z"/>
		<path id="white_134_" fill="#FFFFFF" d="M1,1v20h24V7h-6V1H1z"/>
		<path id="shadow_163_" opacity="0.2" fill="#1B3F63" enable-background="new    " d="M26,14l-7-7h7V14z"/>
	</g>
	<g>
		<path fill="#FFFFFF" d="M13,26h1.5c0.3,0,0.5,0.2,0.5,0.5S14.8,27,14.5,27H13V26z M14.5,25H13v-1h1.5c0.3,0,0.5,0.2,0.5,0.5
			S14.8,25,14.5,25z M12,28h2.5c0.8,0,1.5-0.7,1.5-1.5c0-0.4-0.1-0.7-0.4-1c0.2-0.3,0.4-0.6,0.4-1c0-0.8-0.7-1.5-1.5-1.5H12V28z"/>
		<path fill="#FFFFFF" d="M17,26v0.8c0,0.6,0.4,1.3,1,1.3h1c0.6,0,1-0.7,1-1.3V23h-1v3.7c0,0.3-0.2,0.5-0.5,0.5
			c-0.3,0-0.5-0.2-0.5-0.5V26H17z"/>
		<path fill="#FFFFFF" d="M7,25.5C7,24.7,7.7,24,8.5,24c0.8,0,1.5,0.7,1.5,1.5S9.3,27,8.5,27C7.7,27,7,26.3,7,25.5z M6,25.5
			C6,26.9,7.1,28,8.5,28c1.4,0,2.5-1.1,2.5-2.5S9.9,23,8.5,23C7.1,23,6,24.1,6,25.5z"/>
	</g>
	<g>
		<polygon fill="#147A6F" points="18,4.6 12.9,3 12,6 13,7 17,7 		"/>
		<polygon fill="#1F8277" points="17,12 17,9 14,11 13,13 		"/>
		<polygon fill="#34BFAE" points="9,6.6 9,9 11.2,6.2 13,3 		"/>
		<polygon fill="#23998B" points="13,6 13,9 9,9 11.5,6.7 		"/>
		<polygon fill="#136B61" points="13,9 17,9 13,13 		"/>
		<polygon fill="#136B61" points="9,9 13,6.6 13,3 		"/>
		<polygon fill="#23998B" points="13,13 13,19 9,16.8 11,14 		"/>
		<polygon fill="#147A6F" points="13,9 9,9 9,16 13,13 		"/>
	</g>
</g>
</svg>
