<?xml version="1.0" standalone="no"?>
<!-- Generator: Adobe Fireworks 10, Export SVG Extension by Aaron Beall (http://fireworks.abeall.com) . Version: 0.6.1  -->
<!DOCTYPE svg PUBLIC "-//W3C//DTD SVG 1.1//EN" "http://www.w3.org/Graphics/SVG/1.1/DTD/svg11.dtd">
<svg id="defaultAvatar_32-Page%201" viewBox="0 0 32 32" style="background-color:#ffffff00" version="1.1"
	xmlns="http://www.w3.org/2000/svg" xmlns:xlink="http://www.w3.org/1999/xlink" xml:space="preserve"
	x="0px" y="0px" width="32px" height="32px"
>
	<g id="Layer%201">
		<path d="M 1.5 15.9999 C 1.5 7.9897 7.9897 1.5 16 1.5 C 24.0103 1.5 30.5 7.9897 30.5 16 C 30.5 19.9893 28.8904 23.6038 26.2849 26.225 C 25.7911 25.3555 24.9872 24.5613 23.6943 24.5613 C 21.2275 24.5613 19.5588 23.2535 18.8879 22.8083 C 18.5851 22.3521 18.5063 21.7079 18.5708 20.3555 C 19.0907 19.8496 19.6217 19.3373 19.6581 19.1978 C 19.7211 18.9558 19.8469 18.4498 19.9098 18.2297 C 20.0778 18.3398 20.5183 18.0318 20.5812 17.7898 C 20.6442 17.5479 20.6442 17.3938 20.833 17.0858 C 21.0217 16.7778 21.2737 16.3378 21.2527 15.9418 C 21.2317 15.5458 21.1534 14.3786 21.2584 14.2026 C 21.3633 14.0266 21.4556 13.9333 21.3927 13.7573 C 21.3297 13.5813 21.2527 13.4558 21.0847 13.3017 C 21.1057 13.1036 21.3157 10.9476 21.2527 10.3096 C 21.1897 9.6716 20.5812 8.5496 20.5812 8.5496 L 20.4135 8.5496 C 20.4135 8.5496 20.4553 8.3296 20.2455 8.1095 C 20.0356 7.8895 18.4412 6.8336 17.7278 6.3495 C 17.0144 5.8655 16.2802 5.9975 15.7136 6.0854 C 15.1471 6.1735 13.6785 6.7235 13.1119 6.9655 C 12.5454 7.2076 12.8182 6.8115 12.3566 7.1415 C 11.8951 7.4716 10.5942 9.8697 10.3425 10.3976 C 10.0907 10.9256 10.2795 11.2996 10.3425 11.7176 C 10.4054 12.1357 10.4264 13.3237 10.3425 13.4778 C 10.2585 13.6317 10.1326 13.6977 10.1746 13.8297 C 10.2166 13.9617 10.1685 13.9837 10.3153 14.2697 C 10.3153 14.7537 10.3844 15.3037 10.3425 15.8538 C 10.3005 16.4037 10.5732 16.8658 10.6781 17.0858 C 10.783 17.3058 10.8459 17.6138 10.9929 17.8339 C 11.1398 18.0538 11.2446 18.0758 11.5383 18.0318 C 11.6012 18.3178 11.8112 19.2198 12.021 19.3738 C 12.1344 19.4572 12.5797 19.85 13.0211 20.2659 C 13.0765 21.4737 13.0552 22.2275 12.7157 22.7614 C 11.7764 23.3004 10.734 24.5613 8.2672 24.5613 C 6.946 24.5613 6.1575 25.34 5.6899 26.2 C 3.0986 23.5808 1.5 19.977 1.5 15.9999 ZM 0 16 C 0 24.8367 7.1633 32 16 32 C 24.8367 32 32 24.8367 32 16 C 32 7.1633 24.8367 0 16 0 C 7.1633 0 0 7.1633 0 16 Z" fill="#000000"/>
	</g>
</svg>