<?xml version="1.0" encoding="utf-8"?>
<!-- Generator: Adobe Illustrator 18.1.1, SVG Export Plug-In . SVG Version: 6.00 Build 0)  -->
<!DOCTYPE svg PUBLIC "-//W3C//DTD SVG 1.1//EN" "http://www.w3.org/Graphics/SVG/1.1/DTD/svg11.dtd">
<svg version="1.1" id="assets" xmlns="http://www.w3.org/2000/svg" xmlns:xlink="http://www.w3.org/1999/xlink" x="0px" y="0px"
	 width="26px" height="30px" viewBox="0 0 26 30" enable-background="new 0 0 26 30" xml:space="preserve">
<g>
	<path id="foldedCorner_118_" fill="#EB4D4D" d="M19,0l7,7h-7V0z"/>
	<path id="background_118_" fill="#DB4747" d="M0,0v30h26V7h-7V0H0z"/>
	<path id="white_85_" fill="#FFFFFF" d="M1,1v20h24V7h-6V1H1z"/>
	<path id="shadow_92_" opacity="0.2" fill="#1B3F63" enable-background="new    " d="M26,14l-7-7h7V14z"/>
</g>
<path fill="#DB4747" d="M7,7v7h3.4l-2.1,3.2c-0.2,0.2-0.1,0.6,0.1,0.8c0.2,0.2,0.6,0.1,0.7-0.1c0,0,2.4-3.9,2.4-3.9h0.9l0,3.7
	c0,0.3,0.2,0.5,0.5,0.5s0.5-0.2,0.5-0.5l0-3.7h1c0,0,2.4,3.9,2.4,3.9c0.2,0.2,0.5,0.3,0.7,0.1c0.2-0.2,0.3-0.5,0.1-0.8L15.7,14H19V7
	h1V6h-6V5h-2v1H6v1H7z M8,7h10v6L8,13.1L8,7z"/>
</svg>
