<?xml version="1.0" encoding="utf-8"?>
<!-- Generator: Adobe Illustrator 18.1.1, SVG Export Plug-In . SVG Version: 6.00 Build 0)  -->
<!DOCTYPE svg PUBLIC "-//W3C//DTD SVG 1.1//EN" "http://www.w3.org/Graphics/SVG/1.1/DTD/svg11.dtd">
<svg version="1.1" id="assets" xmlns="http://www.w3.org/2000/svg" xmlns:xlink="http://www.w3.org/1999/xlink" x="0px" y="0px"
	 width="16px" height="16px" viewBox="0 0 16 16" enable-background="new 0 0 16 16" xml:space="preserve">
<path fill="#EB4D4D" d="M1,4v8h4.3l-2,2.9c-0.2,0.3-0.1,0.7,0.1,0.9c0.3,0.2,0.6,0.2,0.8-0.1l2.4-3.5c0,0,0-0.1,0.1-0.1h0.7l0,3.4
	C7.4,15.7,7.7,16,8,16s0.6-0.3,0.6-0.6l0-3.4h0.6c0,0,0,0.1,0.1,0.1l2.4,3.5c0.2,0.3,0.6,0.3,0.8,0.1c0.3-0.2,0.3-0.6,0.1-0.9
	l-2-2.9H15V4h1V2H9V0H7v2H0v2H1z M3,4h10v6H3V4z"/>
</svg>
