<?xml version="1.0" encoding="utf-8"?>
<!-- Generator: Adobe Illustrator 16.0.4, SVG Export Plug-In . SVG Version: 6.00 Build 0)  -->
<!DOCTYPE svg PUBLIC "-//W3C//DTD SVG 1.1//EN" "http://www.w3.org/Graphics/SVG/1.1/DTD/svg11.dtd">
<svg version="1.1" id="Layer_1" xmlns="http://www.w3.org/2000/svg" xmlns:xlink="http://www.w3.org/1999/xlink" x="0px" y="0px"
	 width="70px" height="70px" viewBox="0 0 70 70" enable-background="new 0 0 70 70" xml:space="preserve">
<g>
	<path d="M34.691,28.328c-0.684,0-1.34-0.109-1.96-0.309l-8.398,15.31c0.964,0.868,1.675,2.026,2.005,3.339h18.336
		c0.307-1.22,0.943-2.303,1.807-3.146L37.021,27.89C36.298,28.174,35.513,28.328,34.691,28.328z"/>
	<path d="M0,0v70h70V0H0z M50.99,55.004c-3.038,0-5.594-2.125-6.316-5.001H26.338c-0.724,2.876-3.279,5.001-6.316,5.001
		c-3.601,0-6.52-2.985-6.52-6.67c0-3.682,2.919-6.668,6.52-6.668c0.525,0,1.038,0.063,1.528,0.184l8.602-15.402
		c-1.222-1.212-1.981-2.911-1.981-4.789c0-3.684,2.919-6.669,6.52-6.669c3.602,0,6.519,2.986,6.519,6.669
		c0,1.733-0.647,3.312-1.706,4.498l9.689,15.768c0.57-0.166,1.172-0.258,1.797-0.258c3.602,0,6.52,2.986,6.52,6.668
		C57.51,52.019,54.592,55.004,50.99,55.004z"/>
</g>
</svg>
