<?xml version="1.0" standalone="no"?>
<!-- Generator: Adobe Fireworks 10, Export SVG Extension by Aaron Beall (http://fireworks.abeall.com) . Version: 0.6.1  -->
<!DOCTYPE svg PUBLIC "-//W3C//DTD SVG 1.1//EN" "http://www.w3.org/Graphics/SVG/1.1/DTD/svg11.dtd">
<svg id="pinProject_selected_48-Page%201" viewBox="0 0 48 48" style="background-color:#ffffff00" version="1.1"
	xmlns="http://www.w3.org/2000/svg" xmlns:xlink="http://www.w3.org/1999/xlink" xml:space="preserve"
	x="0px" y="0px" width="48px" height="48px"
>
	<g id="Layer%201">
		<path id="whiteFill" d="M 26 4 L 44 4 L 44 22 L 26 22 L 26 4 Z" fill="#ffffff"/>
		<path d="M 36.3115 19.0328 L 33.4262 16.1475 L 27 21 L 31.8525 14.5738 L 28.9672 11.6885 C 29.7541 10.918 30.9262 10.2459 31.9836 10.2459 L 33.2951 11.5574 L 37.0984 7.7541 L 35.7869 6.4426 L 37.2295 5 L 43 10.7705 L 41.5574 12.2131 L 40.2459 10.9016 L 36.4426 14.7049 L 37.7541 16.0164 C 37.7377 17.0984 37.0984 18.2541 36.3115 19.0328 ZM 0 0 L 48 48 L 48 0 L 0 0 Z" fill="#77bd0d"/>
	</g>
</svg>