<?xml version="1.0" standalone="no"?>
<!-- Generator: Adobe Fireworks 10, Export SVG Extension by Aaron Beall (http://fireworks.abeall.com) . Version: 0.6.1  -->
<!DOCTYPE svg PUBLIC "-//W3C//DTD SVG 1.1//EN" "http://www.w3.org/Graphics/SVG/1.1/DTD/svg11.dtd">
<svg id="project_outline_32-Page%201" viewBox="0 0 32 32" style="background-color:#ffffff00" version="1.1"
	xmlns="http://www.w3.org/2000/svg" xmlns:xlink="http://www.w3.org/1999/xlink" xml:space="preserve"
	x="0px" y="0px" width="32px" height="32px"
>
	<g id="Layer%201">
		<path d="M 12.75 8.1875 C 12.75 6.8068 13.6818 5.75 15.0625 5.75 C 16.4432 5.75 17.4375 6.7443 17.4375 8.125 C 17.4375 9.5057 16.6307 10.5 15.25 10.5 C 13.8693 10.5 12.75 9.5682 12.75 8.1875 ZM 22 23.25 C 22 21.8693 23.1193 20.75 24.5 20.75 C 25.8807 20.75 27 21.8693 27 23.25 C 27 24.6307 25.8807 25.75 24.5 25.75 C 23.1193 25.75 22 24.6307 22 23.25 ZM 4.1875 23.25 C 4.1875 21.8693 5.3068 20.75 6.6875 20.75 C 8.0682 20.75 9.1875 21.8693 9.1875 23.25 C 9.1875 24.6307 8.0682 25.75 6.6875 25.75 C 5.3068 25.75 4.1875 24.6307 4.1875 23.25 ZM 10.2626 22.2667 C 10.0728 21.5217 9.6637 20.8645 9.1095 20.371 L 13.9397 11.6783 C 14.2957 11.7914 14.674 11.8534 15.067 11.8534 C 15.5395 11.8534 15.9913 11.766 16.4076 11.6049 L 21.8472 20.4799 C 21.3518 20.9592 20.9854 21.5747 20.8089 22.2667 L 10.2626 22.2667 ZM 2.8801 23.2133 C 2.8801 25.3047 4.5589 27 6.6299 27 C 8.3772 27 9.8463 25.7932 10.2626 24.16 L 20.8089 24.16 C 21.2252 25.7932 22.6942 27 24.4415 27 C 26.5126 27 28.1914 25.3047 28.1914 23.2133 C 28.1914 21.122 26.5126 19.4267 24.4415 19.4267 C 24.0826 19.4267 23.7366 19.4784 23.408 19.5734 L 17.8348 10.6204 C 18.4442 9.9471 18.8168 9.0508 18.8168 8.0667 C 18.8168 5.9754 17.138 4.2801 15.067 4.2801 C 12.996 4.2801 11.3171 5.9754 11.3171 8.0667 C 11.3171 9.1335 11.7533 10.0978 12.4562 10.786 L 7.5088 19.5308 C 7.2272 19.4626 6.9321 19.4267 6.6299 19.4267 C 4.5589 19.4267 2.8801 21.122 2.8801 23.2133 Z"/>
	</g>
</svg>
