<?xml version="1.0" standalone="no"?>
<!-- Generator: Adobe Fireworks 10, Export SVG Extension by Aaron Beall (http://fireworks.abeall.com) . Version: 0.6.1  -->
<!DOCTYPE svg PUBLIC "-//W3C//DTD SVG 1.1//EN" "http://www.w3.org/Graphics/SVG/1.1/DTD/svg11.dtd">
<svg id="publicShare_on-Page%201" viewBox="0 0 16 16" style="background-color:#ffffff00" version="1.1"
	xmlns="http://www.w3.org/2000/svg" xmlns:xlink="http://www.w3.org/1999/xlink" xml:space="preserve"
	x="0px" y="0px" width="16px" height="16px"
>
	<g id="Layer%201">
		<path d="M 12.9 13 C 11.6374 14.2377 9.9077 15 8 15 C 6.0923 15 4.3626 14.2377 3.1 13 C 3.5636 10.7181 5.5813 9 8 9 C 10.4187 9 12.4364 10.7181 12.9 13 ZM 5 6 C 5 4.3431 6.3431 3 8 3 C 9.6569 3 11 4.3431 11 6 C 11 7.6569 9.6569 9 8 9 C 6.3431 9 5 7.6569 5 6 ZM 0 8 C 0 12.4183 3.5817 16 8 16 C 12.4183 16 16 12.4183 16 8 C 16 3.5817 12.4183 0 8 0 C 3.5817 0 0 3.5817 0 8 Z" fill="#cfcccc"/>
	</g>
</svg>