<?xml version="1.0" encoding="utf-8"?>
<!-- Generator: Adobe Illustrator 18.1.1, SVG Export Plug-In . SVG Version: 6.00 Build 0)  -->
<svg version="1.1" id="Layer_1" xmlns="http://www.w3.org/2000/svg" xmlns:xlink="http://www.w3.org/1999/xlink" x="0px" y="0px"
	 viewBox="0 0 10 10" style="enable-background:new 0 0 10 10;" xml:space="preserve">
<style type="text/css">
	.st0{display:none;}
	.st1{display:inline;}
	.st2{fill:#86BB40;}
	.st3{fill:#CFCCCC;}
	.st4{fill:#7F7F7F;}
</style>
<g id="icon_x5F_checkmark_x5F_green_x5F_smaller_x5F_16.graphic" class="st0">
	<g id="Layer_x25_201_14_" class="st1">
		<path class="st2" d="M0.1,4.7l0.9-0.9l1.6,1.6l4.5-4.6l0.9,0.9L2.6,7.3L0.1,4.7z"/>
	</g>
</g>
<g id="icon_x5F_checkmark_x5F_light_x5F_grey_x5F_smaller_x5F_16.graphic" class="st0">
	<g id="Layer_x25_201_1_" class="st1">
		<path class="st3" d="M0.1,4.7l0.9-0.9l1.6,1.6l4.5-4.6l0.9,0.9L2.6,7.3L0.1,4.7z"/>
	</g>
</g>
<g id="icon_x5F_delete_x5F_light_x5F_grey_x5F_smaller_x5F_16.graphic" class="st0">
	<g id="Layer_x25_201_21_" class="st1">
		<path class="st3" d="M6.3,1.1L4,3.4L1.7,1.1L0.9,1.9l2.3,2.3L0.9,6.5l0.8,0.8L4,4.9l2.3,2.3l0.8-0.8L4.8,4.2l2.3-2.3L6.3,1.1z"/>
	</g>
</g>
<g id="icon_x5F_delete_x5F_dark_x5F_grey_x5F_smaller_x5F_16.graphic" class="st0">
	<g id="Layer_x25_201_2_" class="st1">
		<path class="st4" d="M6.3,1.1L4,3.4L1.7,1.1L0.9,1.9l2.3,2.3L0.9,6.5l0.8,0.8L4,4.9l2.3,2.3l0.8-0.8L4.8,4.2l2.3-2.3L6.3,1.1z"/>
	</g>
</g>
<g id="icon_x5F_eye_x5F_light_x5F_grey_x5F_smaller_x5F_16.graphic" class="st0">
	<g id="Layer_x25_201_46_" class="st1">
		<path class="st3" d="M2.1,4.2c0-1.1,0.8-1.9,1.9-1.9s1.9,0.8,1.9,1.9S5.1,6.1,4,6.1S2.1,5.2,2.1,4.2z M-1,4.2
			c1.3,2.4,3.7,3.1,5,3.1s3.7-0.7,5-3.1C7.7,1.8,5.3,1.1,4,1.1C2.7,1.1,0.4,1.8-1,4.2z M2.8,4.2c0,0.7,0.6,1.2,1.2,1.2
			s1.2-0.6,1.2-1.2S4.7,2.9,4,2.9S2.8,3.5,2.8,4.2z"/>
	</g>
</g>
<g id="icon_x5F_share_x5F_light_x5F_grey_x5F_smaller_x5F_16.graphic" class="st0">
	<g id="Layer_x25_202_1_" class="st1">
		<path class="st3" d="M4.8,1.1c0,0.2,0.1,0.3,0.1,0.5L2.1,3.2C1.9,3.1,1.6,2.9,1.3,2.9C0.6,2.9,0,3.6,0,4.2s0.6,1.3,1.3,1.3
			c0.4,0,0.8-0.2,1-0.4l2.5,1.5c0,0.1,0,0.2,0,0.2c0,0.8,0.6,1.3,1.3,1.3s1.3-0.6,1.3-1.3S6.8,5.6,6.1,5.6c-0.4,0-0.8,0.2-1,0.4
			L2.6,4.5c0-0.1,0-0.2,0-0.2c0-0.2-0.1-0.4-0.1-0.5l2.8-1.6c0.2,0.2,0.5,0.3,0.8,0.3c0.7,0,1.3-0.6,1.3-1.3S6.8-0.2,6.1-0.2
			S4.8,0.4,4.8,1.1z"/>
	</g>
</g>
<g id="Layer_x25_201">
	<path class="st3" d="M8.5,3.4l0.8-0.8c0.2-0.2,0.2-0.5,0-0.7L8.1,0.8c-0.2-0.2-0.5-0.2-0.7,0L6.6,1.5L8.5,3.4z M7.6,4.3l0.5-0.5
		L6.2,1.9L5.7,2.4L7.6,4.3z M2.9,9l4.4-4.4L5.4,2.7L1,7.1h0.5v0.7h0.7v0.7h0.7V9z M0.5,7.6v1.9h1.9l0.2-0.2V8.8H1.9V8.1H1.2V7.4H0.7
		L0.5,7.6z"/>
</g>
</svg>
