<?xml version="1.0" encoding="utf-8"?>
<!-- Generator: Adobe Illustrator 18.1.1, SVG Export Plug-In . SVG Version: 6.00 Build 0)  -->
<!DOCTYPE svg PUBLIC "-//W3C//DTD SVG 1.1//EN" "http://www.w3.org/Graphics/SVG/1.1/DTD/svg11.dtd">
<svg version="1.1" id="assets" xmlns="http://www.w3.org/2000/svg" xmlns:xlink="http://www.w3.org/1999/xlink" x="0px" y="0px"
	 width="78px" height="94px" viewBox="0 0 78 94" enable-background="new 0 0 78 94" xml:space="preserve">
<g>
	<path fill="#0C5089" d="M0,0v94h78V20H58V0H0z"/>
	<path fill="#FFFFFF" d="M4,5h54v15h16v50H4V5z"/>
	<path fill="#1273C5" d="M58,0l20,20H58V0z"/>
	<path opacity="0.2" fill="#1B3F63" enable-background="new    " d="M58,20h20v20L58,20z"/>
</g>
<g>
	<path fill="#073761" d="M36.8,22.8c0.3-0.1,4.8,1.5,4.8,1.5L42,39l-7.8-6.8L36.8,22.8z"/>
	<polygon fill="#1273C5" points="30,61.8 20.3,60.5 22.8,43.3 32,49.5 	"/>
	<polygon fill="#1273C5" points="32,47.5 54,62 56.5,55.5 42,37 32.3,37.8 	"/>
	<polygon fill="#1273C5" points="52.5,28.3 51.3,37 42,39 40.8,23.3 	"/>
	<polygon fill="#0A4170" points="26.5,19.8 37.5,22.3 35.5,33 	"/>
	<path fill="#075291" d="M32,49.5c0.1-0.3,1.8-8.5,1.8-8.5l8.3-2L26.5,19.8l-3.8,23.5L32,49.5z"/>
	<path fill="#075291" d="M26.5,19.8c0.3-0.2,12.8-5.5,12.8-5.5l13.3,14L26.5,19.8z"/>
</g>
</svg>
