<?xml version="1.0" encoding="utf-8"?>
<!-- Generator: Adobe Illustrator 18.1.1, SVG Export Plug-In . SVG Version: 6.00 Build 0)  -->
<!DOCTYPE svg PUBLIC "-//W3C//DTD SVG 1.1//EN" "http://www.w3.org/Graphics/SVG/1.1/DTD/svg11.dtd">
<svg version="1.1" id="assets" xmlns="http://www.w3.org/2000/svg" xmlns:xlink="http://www.w3.org/1999/xlink" x="0px" y="0px"
	 width="16px" height="16px" viewBox="0 0 16 16" enable-background="new 0 0 16 16" xml:space="preserve">
<g>
	<g id="fileIconBG_55_">
		<path id="foldedCorner_151_" fill="#1273C5" d="M11,0l5,5h-5V0z"/>
		<path id="background_151_" fill="#0C5089" d="M0,0v16h16V5h-5V0H0z"/>
		<path id="white_101_" fill="#FFFFFF" d="M1,1v8h14V5h-4V1H1z"/>
		<path id="shadow_126_" opacity="0.2" fill="#1B3F63" enable-background="new    " d="M16,10l-5-5h5V10z"/>
	</g>
	<g>
		<path fill="#FFFFFF" d="M3,11h1c0.3,0,0.5,0.2,0.5,0.5S4.3,12,4,12H3V11z M2,10v5h1v-2h0.7L5,15h1l-1.4-2.1
			c0.5-0.2,0.9-0.8,0.9-1.4C5.5,10.7,4.8,10,4,10H2z"/>
		<path fill="#FFFFFF" d="M13,11h1.3v-1h-3.7v1H12v4h1V11z"/>
		<path fill="#FFFFFF" d="M9,15l2-5h-1l-1.5,4L7,10H6l2,5H9z"/>
	</g>
</g>
</svg>
