<?xml version="1.0" encoding="utf-8"?>
<!-- Generator: Adobe Illustrator 18.1.1, SVG Export Plug-In . SVG Version: 6.00 Build 0)  -->
<!DOCTYPE svg PUBLIC "-//W3C//DTD SVG 1.1//EN" "http://www.w3.org/Graphics/SVG/1.1/DTD/svg11.dtd">
<svg version="1.1" xmlns="http://www.w3.org/2000/svg" xmlns:xlink="http://www.w3.org/1999/xlink" x="0px" y="0px" width="16px"
	 height="16px" viewBox="0 0 16 16" enable-background="new 0 0 16 16" xml:space="preserve">
<g id="canvasPlaceholders">
	<rect display="none" opacity="0.1" width="16" height="16"/>
</g>
<g id="assets">
	<g id="fileIconBG_2_">
		<path id="foldedCorner_5_" fill="#1273C5" d="M11,0l5,5h-5V0z"/>
		<path id="background_5_" fill="#0C5089" d="M0,0v16h16V5h-5V0H0z"/>
		<path id="white_2_" fill="#FFFFFF" d="M1,1v8h14V5h-4V1H1z"/>
		<path id="shadow_2_" opacity="0.2" fill="#1B3F63" enable-background="new    " d="M16,10l-5-5h5V10z"/>
	</g>
	<path fill="#FFFFFF" d="M3.5,15C4.9,15,5,14,5,13.5c0-0.5-0.2-1-0.6-1c0.4,0,0.6-0.5,0.6-1C5,11,4.8,10,3.5,10C2.2,10,2,10.8,2,11
		l0.7,0.3c0.1-0.2,0.3-0.5,0.7-0.5c0.5,0,0.6,0.2,0.6,0.7c0,0.6-0.5,0.7-0.9,0.7c0,0.4,0,0.6,0,0.6c0.4,0,0.9,0.1,0.9,0.7
		c0,0.3-0.2,0.7-0.6,0.7c-0.5,0-0.6-0.1-0.8-0.4L2,14C2,14.2,2.2,15,3.5,15z"/>
	<path fill="#FFFFFF" d="M7.7,10C6.6,10,6,10.8,6,12.5C6,13.4,6.3,15,7.5,15C8.6,15,9,14.2,9,13.5c0-1.1-0.5-1.8-1.3-1.8
		c-0.3,0-0.5,0.1-0.7,0.4c0-0.6,0.2-1.2,0.7-1.2c0.6,0,0.6,0.5,0.6,0.5l0.8,0C9,10.4,8.4,10,7.7,10z M7.5,12.5
		c0.3,0,0.5,0.3,0.5,0.8s-0.2,0.8-0.5,0.8c-0.3,0-0.5-0.3-0.5-0.8C7,12.8,7.2,12.5,7.5,12.5z"/>
	<path fill="#FFFFFF" d="M10,12.5c0,0.9,0.3,2.5,1.5,2.5c1.3,0,1.5-1.6,1.5-2.5c0-0.9-0.3-2.5-1.5-2.5C10.3,10,10,11.6,10,12.5z
		 M12,12.5c0,0.6,0,1.8-0.5,1.8c-0.5,0-0.5-1.2-0.5-1.8c0-0.6,0-1.8,0.5-1.8C12,10.7,12,11.9,12,12.5z"/>
</g>
<g id="measure" display="none">
</g>
</svg>
