<?xml version="1.0" encoding="utf-8"?>
<!-- Generator: Adobe Illustrator 18.1.1, SVG Export Plug-In . SVG Version: 6.00 Build 0)  -->
<!DOCTYPE svg PUBLIC "-//W3C//DTD SVG 1.1//EN" "http://www.w3.org/Graphics/SVG/1.1/DTD/svg11.dtd">
<svg version="1.1" id="assets" xmlns="http://www.w3.org/2000/svg" xmlns:xlink="http://www.w3.org/1999/xlink" x="0px" y="0px"
	 width="26px" height="30px" viewBox="0 0 26 30" enable-background="new 0 0 26 30" xml:space="preserve">
<g>
	<path id="foldedCorner_19_" fill="#1273C5" d="M19,0l7,7h-7V0z"/>
	<path id="background_12_" fill="#0C5089" d="M0,0v30h26V7h-7V0H0z"/>
	<path id="white_54_" fill="#FFFFFF" d="M1,1v20h24V7h-6V1H1z"/>
	<path id="shadow_1_" opacity="0.2" fill="#1B3F63" enable-background="new    " d="M26,14l-7-7h7V14z"/>
</g>
<g>
	<path fill="#073761" d="M12.5,5.8c0.1,0,1.6,0.5,1.6,0.5l0.2,4.9L11.7,9L12.5,5.8z"/>
	<polygon fill="#1273C5" points="10.3,18.9 7,18.5 7.8,12.7 10.9,14.8 	"/>
	<polygon fill="#1273C5" points="10.9,14.1 18.3,19 19.1,16.8 14.3,10.6 11,10.9 	"/>
	<polygon fill="#1273C5" points="17.8,7.7 17.4,10.6 14.3,11.3 13.9,6 	"/>
	<polygon fill="#0A4170" points="9.1,4.8 12.8,5.7 12.1,9.3 	"/>
	<path fill="#075291" d="M10.9,14.8c0-0.1,0.6-2.8,0.6-2.8l2.8-0.7L9.1,4.8l-1.3,7.9L10.9,14.8z"/>
	<path fill="#075291" d="M9.1,4.8C9.2,4.8,13.4,3,13.4,3l4.4,4.7L9.1,4.8z"/>
</g>
<path fill="#FFFFFF" d="M8.5,28c1.4,0,1.5-1,1.5-1.5c0-0.5-0.2-1-0.6-1c0.4,0,0.6-0.5,0.6-1C10,24,9.8,23,8.5,23C7.2,23,7,23.8,7,24
	l0.7,0.3c0.1-0.2,0.3-0.5,0.7-0.5c0.5,0,0.6,0.2,0.6,0.7c0,0.6-0.5,0.7-0.9,0.7c0,0.4,0,0.6,0,0.6c0.4,0,0.9,0.1,0.9,0.7
	c0,0.3-0.2,0.7-0.6,0.7c-0.5,0-0.6-0.1-0.7-0.4L7,27C7,27.2,7.2,28,8.5,28z"/>
<path fill="#FFFFFF" d="M12.7,23c-1.1,0-1.7,0.8-1.7,2.5c0,0.9,0.3,2.5,1.5,2.5c1.1,0,1.5-0.8,1.5-1.5c0-1.1-0.5-1.8-1.3-1.8
	c-0.3,0-0.5,0.1-0.7,0.4c0-0.6,0.2-1.2,0.7-1.2c0.6,0,0.6,0.5,0.6,0.5l0.8,0C14,23.4,13.4,23,12.7,23z M12.5,25.5
	c0.3,0,0.5,0.3,0.5,0.8c0,0.6-0.2,0.8-0.5,0.8c-0.3,0-0.5-0.3-0.5-0.8C12,25.8,12.2,25.5,12.5,25.5z"/>
<path fill="#FFFFFF" d="M15,25.5c0,0.9,0.3,2.5,1.5,2.5c1.3,0,1.5-1.6,1.5-2.5c0-0.9-0.3-2.5-1.5-2.5C15.3,23,15,24.6,15,25.5z
	 M17,25.5c0,0.6,0,1.8-0.5,1.8c-0.5,0-0.5-1.2-0.5-1.8c0-0.6,0-1.8,0.5-1.8C17,23.7,17,24.9,17,25.5z"/>
</svg>
