<?xml version="1.0" encoding="utf-8"?>
<!-- Generator: Adobe Illustrator 18.1.0, SVG Export Plug-In . SVG Version: 6.00 Build 0)  -->
<svg version="1.1" id="Layer_1" xmlns="http://www.w3.org/2000/svg" xmlns:xlink="http://www.w3.org/1999/xlink" x="0px" y="0px"
	 viewBox="0 0 16 16" style="enable-background:new 0 0 16 16;" xml:space="preserve">
<g id="Layer_x25_201">
	<path style="fill:#010101;" d="M2.5,1.5h11c0.6,0,1,0.4,1,1v9c0,0.6-0.4,1-1,1h-11c-0.6,0-1-0.4-1-1v-9C1.5,1.9,1.9,1.5,2.5,1.5z
		 M0.5,1.5v13c0,0.6,0.4,1,1,1h13c0.6,0,1-0.4,1-1v-13c0-0.6-0.4-1-1-1h-13C0.9,0.5,0.5,0.9,0.5,1.5z M10.5,5c0,0.8,0.7,1.5,1.5,1.5
		s1.5-0.7,1.5-1.5S12.8,3.5,12,3.5S10.5,4.2,10.5,5z M2.5,11.5h10l-6-6l-4,4V11.5z"/>
</g>
</svg>
