<?xml version="1.0" standalone="no"?>
<!-- Generator: Adobe Fireworks 10, Export SVG Extension by Aaron Beall (http://fireworks.abeall.com) . Version: 0.6.1  -->
<!DOCTYPE svg PUBLIC "-//W3C//DTD SVG 1.1//EN" "http://www.w3.org/Graphics/SVG/1.1/DTD/svg11.dtd">
<svg id="secret_16-Page%201" viewBox="0 0 16 16" style="background-color:#ffffff00" version="1.1"
	xmlns="http://www.w3.org/2000/svg" xmlns:xlink="http://www.w3.org/1999/xlink" xml:space="preserve"
	x="0px" y="0px" width="16px" height="16px"
>
	<g id="Layer%201">
		<path d="M 5.435 12.565 C 6.3898 12.876 7.2844 13 8 13 C 10.1334 13 13.9 11.8889 16 8 C 15.2234 6.5953 14.242 5.5534 13.205 4.795 L 10.87 7.13 C 10.9536 7.4058 11 7.6969 11 8 C 11 9.6569 9.6569 11 8 11 C 7.6969 11 7.4058 10.9536 7.13 10.87 L 5.435 12.565 ZM 0 8 C 0.7706 9.4109 1.7525 10.4522 2.79 11.21 L 5.13 8.87 C 5.0463 8.5943 5 8.3031 5 8 C 5 6.3431 6.3431 5 8 5 C 8.3031 5 8.5943 5.0463 8.87 5.13 L 10.56 3.44 C 9.6072 3.127 8.7155 3 8 3 C 5.9 3 2.15 4.1111 0 8 Z" fill="#000000"/>
		<path d="M 14 1 L 15 2 L 2 15 L 1 14 L 14 1 Z" fill="#000000"/>
	</g>
</svg>