<?xml version="1.0" encoding="utf-8"?>
<!-- Generator: Adobe Illustrator 19.1.0, SVG Export Plug-In . SVG Version: 6.00 Build 0)  -->
<svg version="1.1" id="Layer_1" xmlns="http://www.w3.org/2000/svg" xmlns:xlink="http://www.w3.org/1999/xlink" x="0px" y="0px"
	 viewBox="-471 273 16 16" style="enable-background:new -471 273 16 16;" xml:space="preserve">
<path class="st0" d="M-455,282.4v-2.9h-1.6c-0.2-0.7-0.4-1.4-0.8-1.9l1.1-1.1l-2-2l-1.1,1.1c-0.6-0.4-1.2-0.6-1.9-0.8v-1.6h-2.9v1.6
	c-0.7,0.2-1.4,0.4-1.9,0.8l-1.1-1.1l-2,2l1.1,1.1c-0.4,0.6-0.6,1.2-0.8,1.9h-1.6v2.9h1.6c0.2,0.7,0.4,1.4,0.8,1.9l-1.1,1.1l2,2
	l1.1-1.1c0.6,0.4,1.2,0.6,1.9,0.8v1.6h2.9v-1.6c0.7-0.2,1.4-0.4,1.9-0.8l1.1,1.1l2-2l-1.1-1.1c0.4-0.6,0.6-1.2,0.8-1.9H-455z
	 M-462.8,284.2c-1.8,0-3.2-1.4-3.2-3.2s1.4-3.2,3.2-3.2s3.2,1.4,3.2,3.2S-461.1,284.2-462.8,284.2z"/>
</svg>
