<?xml version="1.0" encoding="utf-8"?>
<!-- Generator: Adobe Illustrator 18.1.1, SVG Export Plug-In . SVG Version: 6.00 Build 0)  -->
<svg version="1.1" xmlns="http://www.w3.org/2000/svg" xmlns:xlink="http://www.w3.org/1999/xlink" x="0px" y="0px"
	 viewBox="-1 -1 16 16" style="enable-background:new -1 -1 16 16;" xml:space="preserve">
<style type="text/css">
	.st0{}
	.st1{display:inline;}
	.st2{fill:#86BB40;}
	.st3{fill:#CFCCCC;}
	.st4{fill:#7F7F7F;}
	.st5{display:inline;fill:#CFCCCC;}
</style>
<g id="icon_x5F_checkmark_x5F_green_x5F_smaller_x5F_16.graphic" class="st0" style="display: none;">
	<g id="Layer_x25_201_14_" class="st1">
		<path class="st2" d="M0.7,8.1l1.4-1.4l2.6,2.6L11.9,2l1.4,1.4l-8.6,8.8L0.7,8.1z"/>
	</g>
</g>
<g id="icon_x5F_checkmark_x5F_light_x5F_grey_x5F_smaller_x5F_16.graphic" class="st0" style="display: none;">
	<g id="Layer_x25_201_1_" class="st1">
		<path class="st3" d="M0.7,8.1l1.4-1.4l2.6,2.6L11.9,2l1.4,1.4l-8.6,8.8L0.7,8.1z"/>
	</g>
</g>
<g id="icon_x5F_delete_x5F_light_x5F_grey_x5F_smaller_x5F_16.graphic" class="st0" style="display: none;">
	<g id="Layer_x25_201_21_" class="st1">
		<path class="st3" d="M10.7,2.4L7,6.1L3.3,2.4L2.1,3.7l3.7,3.7L2.1,11l1.2,1.2L7,8.5l3.7,3.7l1.2-1.2L8.2,7.3l3.7-3.7L10.7,2.4z"/>
	</g>
</g>
<g id="icon_x5F_delete_x5F_dark_x5F_grey_x5F_smaller_x5F_16.graphic" class="st0" style="display: none;">
	<g id="Layer_x25_201_2_" class="st1">
		<path class="st4" d="M10.7,2.4L7,6.1L3.3,2.4L2.1,3.7l3.7,3.7L2.1,11l1.2,1.2L7,8.5l3.7,3.7l1.2-1.2L8.2,7.3l3.7-3.7L10.7,2.4z"/>
	</g>
</g>
<g id="icon_x5F_eye_x5F_light_x5F_grey_x5F_smaller_x5F_16.graphic" class="st0" style="display: none;">
	<g id="Layer_x25_201_46_" class="st1">
		<path class="st3" d="M4,7.3c0-1.7,1.3-3,3-3s3,1.3,3,3s-1.3,3-3,3S4,9,4,7.3z M-1,7.3c2.1,3.9,5.9,5,8,5s5.9-1.1,8-5
			c-2.1-3.9-5.9-5-8-5C4.9,2.3,1.2,3.4-1,7.3z M5,7.3c0,1.1,0.9,2,2,2s2-0.9,2-2s-0.9-2-2-2S5,6.2,5,7.3z"/>
	</g>
</g>
<g id="icon_x5F_arrowp_x5F_light_x5F_grey_x5F_smaller_x5F_16.graphic" class="st0" style="display: none;">
	<polygon class="st5" points="12.4,5.3 7,0 1.6,5.3 3,6.5 6,3.7 6,14 8,14 8,3.7 11.1,6.5 	"/>
</g>
<g id="icon_x5F_share_x5F_light_x5F_grey_x5F_smaller_x5F_16.graphic">
	<g id="Layer_x25_202_1_">
		<path class="st3" d="M8.2,2.3c0,0.3,0.1,0.5,0.2,0.8L4,5.7C3.7,5.5,3.2,5.3,2.7,5.3c-1.2,0-2.1,1-2.1,2.1s1,2.1,2.1,2.1
			c0.6,0,1.2-0.3,1.6-0.7l4,2.4c0,0.1,0,0.3,0,0.4c0,1.2,1,2.1,2.1,2.1s2.1-1,2.1-2.1s-1-2.1-2.1-2.1c-0.6,0-1.2,0.3-1.6,0.7l-4-2.4
			c0-0.1,0-0.3,0-0.4c0-0.3-0.1-0.6-0.2-0.8L9.1,4c0.4,0.3,0.8,0.5,1.3,0.5c1.2,0,2.1-1,2.1-2.1s-1-2.1-2.1-2.1S8.2,1.2,8.2,2.3z"/>
	</g>
</g>
</svg>
