<?xml version="1.0" standalone="no"?>
<!-- Generator: Adobe Fireworks 10, Export SVG Extension by Aaron Beall (http://fireworks.abeall.com) . Version: 0.6.1  -->
<!DOCTYPE svg PUBLIC "-//W3C//DTD SVG 1.1//EN" "http://www.w3.org/Graphics/SVG/1.1/DTD/svg11.dtd">
<svg id="share_social-Page%201" viewBox="0 0 16 16" style="background-color:#ffffff00" version="1.1"
	xmlns="http://www.w3.org/2000/svg" xmlns:xlink="http://www.w3.org/1999/xlink" xml:space="preserve"
	x="0px" y="0px" width="16px" height="16px"
>
	<g id="Layer%202">
		<path d="M 10 2.5 C 10 2.8315 10.063 3.1456 10.18 3.435 L 5.03 6.525 C 4.6072 6.1973 4.0758 6 3.5 6 C 2.1193 6 1 7.1193 1 8.5 C 1 9.8807 2.1193 11 3.5 11 C 4.2372 11 4.9023 10.6828 5.36 10.175 L 10.055 12.985 C 10.0204 13.1508 10 13.3239 10 13.5 C 10 14.8807 11.1193 16 12.5 16 C 13.8807 16 15 14.8807 15 13.5 C 15 12.1193 13.8807 11 12.5 11 C 11.7582 11 11.0922 11.3222 10.635 11.835 L 5.945 9.025 C 5.9812 8.8556 6 8.6803 6 8.5 C 6 8.1647 5.9347 7.8472 5.815 7.555 L 10.96 4.47 C 11.3843 4.802 11.9194 5 12.5 5 C 13.8807 5 15 3.8807 15 2.5 C 15 1.1193 13.8807 0 12.5 0 C 11.1193 0 10 1.1193 10 2.5 Z" fill="#000000"/>
	</g>
</svg>