<?xml version="1.0" encoding="utf-8"?>
<!-- Generator: Adobe Illustrator 18.1.1, SVG Export Plug-In . SVG Version: 6.00 Build 0)  -->
<!DOCTYPE svg PUBLIC "-//W3C//DTD SVG 1.1//EN" "http://www.w3.org/Graphics/SVG/1.1/DTD/svg11.dtd">
<svg version="1.1" id="assets" xmlns="http://www.w3.org/2000/svg" xmlns:xlink="http://www.w3.org/1999/xlink" x="0px" y="0px"
	 width="16px" height="16px" viewBox="0 0 16 16" enable-background="new 0 0 16 16" xml:space="preserve">
<g>
	<g id="fileIconBG_53_">
		<path id="foldedCorner_112_" fill="#FFD52B" d="M11,0l5,5h-5V0z"/>
		<path id="background_112_" fill="#FFBE26" d="M0,0v16h16V5h-5V0H0z"/>
		<path id="white_105_" fill="#FFFFFF" d="M1,1v8h14V5h-4V1H1z"/>
		<path id="shadow_119_" opacity="0.2" fill="#1B3F63" enable-background="new    " d="M16,10l-5-5h5V10z"/>
	</g>
	<path fill="#FFFFFF" d="M8,15v-5H7v5H8L8,15z"/>
	<path fill="#FFFFFF" d="M10,15v-2.7l1,2.7h1l1-2.7V15h1v-5h-1l-1.5,3L10,10H9v5H10z"/>
	<path fill="#FFFFFF" d="M4,15c2.3,0,2.8-2.4,0-2.9c-1.5-0.3-1.3-1.4,0-1.4c1,0,1.2,0.4,1.2,0.9c0.3,0,0.4,0,0.8,0
		c0-1-0.7-1.6-2-1.6c-2.5,0-2.6,2.3,0,2.9c1.8,0.4,1.1,1.4,0,1.4c-0.8,0-1.3-0.4-1.3-1c-0.3,0-0.4,0-0.7,0C2,14.5,2.8,15,4,15z"/>
</g>
</svg>
