<?xml version="1.0" encoding="utf-8"?>
<!-- Generator: Adobe Illustrator 18.1.1, SVG Export Plug-In . SVG Version: 6.00 Build 0)  -->
<!DOCTYPE svg PUBLIC "-//W3C//DTD SVG 1.1//EN" "http://www.w3.org/Graphics/SVG/1.1/DTD/svg11.dtd">
<svg version="1.1" id="assets" xmlns="http://www.w3.org/2000/svg" xmlns:xlink="http://www.w3.org/1999/xlink" x="0px" y="0px"
	 width="26px" height="30px" viewBox="0 0 26 30" enable-background="new 0 0 26 30" xml:space="preserve">
<g>
	<g>
		<path id="foldedCorner_148_" fill="#FFD52B" d="M19,0l7,7h-7V0z"/>
		<path id="background_148_" fill="#FFBE26" d="M0,0v30h26V7h-7V0H0z"/>
		<path id="white_116_" fill="#FFFFFF" d="M1,1v20h24V7h-6V1H1z"/>
		<path id="shadow_133_" opacity="0.2" fill="#1B3F63" enable-background="new    " d="M26,14l-7-7h7V14z"/>
	</g>
	<path fill="#FFFFFF" d="M13,28v-5h-1v5H13L13,28z"/>
	<path fill="#FFFFFF" d="M15,28v-2.7l1,2.7h1l1-2.7V28h1v-5h-1l-1.5,3L15,23h-1v5H15z"/>
	<path fill="#FFFFFF" d="M9,28c2.3,0,2.8-2.4,0-2.9c-1.5-0.3-1.3-1.4,0-1.4c1,0,1.2,0.4,1.2,0.9c0.3,0,0.4,0,0.8,0
		c0-1-0.7-1.6-2-1.6c-2.5,0-2.6,2.3,0,2.9c1.8,0.4,1.1,1.4,0,1.4c-0.8,0-1.3-0.4-1.3-1c-0.3,0-0.4,0-0.7,0C7,27.5,7.8,28,9,28z"/>
	<g>
		<polygon fill="#FFD52B" points="19,8 11,8 11.7,5.1 13.7,3 		"/>
		<polygon fill="#D98900" points="8,8.6 8.1,7 9.5,7.1 11,8.5 9.5,9 		"/>
		<polygon fill="#F29900" points="8,6.4 11.2,8 14,3 		"/>
		<polygon fill="#F29900" points="18,12 13.2,12.6 8,14 10.8,16.9 14,19 		"/>
		<polygon fill="#FFBE26" points="11.2,8 18,11.6 8,14 9.2,10 		"/>
		<polygon fill="#F29900" points="8,8.1 11,8 8,14 		"/>
		<path fill="#FFD52B" d="M4,15c0.2,0,4-1,4-1l5.9,4.9L4,15z"/>
	</g>
</g>
</svg>
