<?xml version="1.0" encoding="utf-8"?>
<!-- Generator: Adobe Illustrator 18.1.0, SVG Export Plug-In . SVG Version: 6.00 Build 0)  -->
<svg version="1.1" id="Layer_1" xmlns="http://www.w3.org/2000/svg" xmlns:xlink="http://www.w3.org/1999/xlink" x="0px" y="0px"
	 viewBox="0 0 16 16" style="enable-background:new 0 0 16 16;" xml:space="preserve">
<g>
	<path d="M8,15c-3.9,0-7-3.1-7-7c0-3.8,3.1-6.9,6.8-7V0C3.5,0.1,0,3.6,0,8c0,4.4,3.6,8,8,8c4.4,0,7.9-3.5,8-7.8h-1
		C14.9,11.9,11.8,15,8,15z"/>
	<path d="M8,10.5c-1.4,0-2.5-1.1-2.5-2.5c0-1.3,1-2.4,2.3-2.5V2.8c-2.8,0.1-5,2.4-5,5.1c0,2.9,2.3,5.2,5.2,5.2c2.8,0,5.1-2.2,5.1-5
		h-2.7C10.4,9.5,9.3,10.5,8,10.5z"/>
</g>
</svg>
