<?xml version="1.0" encoding="utf-8"?>
<!-- Generator: Adobe Illustrator 18.1.1, SVG Export Plug-In . SVG Version: 6.00 Build 0)  -->
<!DOCTYPE svg PUBLIC "-//W3C//DTD SVG 1.1//EN" "http://www.w3.org/Graphics/SVG/1.1/DTD/svg11.dtd">
<svg version="1.1" id="assets" xmlns="http://www.w3.org/2000/svg" xmlns:xlink="http://www.w3.org/1999/xlink" x="0px" y="0px"
	 width="78px" height="94px" viewBox="0 0 78 94" enable-background="new 0 0 78 94" xml:space="preserve">
<g>
	<path fill="#74A137" d="M0,0v94h78V20H58V0H0z"/>
	<path fill="#FFFFFF" d="M4,5h54v15h16v50H4V5z"/>
	<path fill="#86BB40" d="M58,0l20,20H58V0z"/>
	<path opacity="0.2" fill="#1B3F63" enable-background="new    " d="M58,20h20v20L58,20z"/>
</g>
<g>
	<rect x="13" y="21" fill="#86BB40" width="52" height="37"/>
	<rect x="24" y="22" fill="#FFFFFF" width="20" height="8"/>
	<rect x="45" y="22" fill="#FFFFFF" width="19" height="8"/>
	<rect x="24" y="31" fill="#FFFFFF" width="20" height="8"/>
	<rect x="45" y="31" fill="#FFFFFF" width="19" height="8"/>
	<rect x="24" y="40" fill="#FFFFFF" width="20" height="8"/>
	<rect x="45" y="40" fill="#FFFFFF" width="19" height="8"/>
	<rect x="24" y="49" fill="#FFFFFF" width="20" height="8"/>
	<rect x="45" y="49" fill="#FFFFFF" width="19" height="8"/>
	<rect x="14" y="30" fill="#FFFFFF" width="9" height="1"/>
	<rect x="14" y="39" fill="#FFFFFF" width="9" height="1"/>
	<rect x="14" y="48" fill="#FFFFFF" width="9" height="1"/>
</g>
</svg>
