<?xml version="1.0" encoding="utf-8"?>
<!-- Generator: Adobe Illustrator 18.1.1, SVG Export Plug-In . SVG Version: 6.00 Build 0)  -->
<!DOCTYPE svg PUBLIC "-//W3C//DTD SVG 1.1//EN" "http://www.w3.org/Graphics/SVG/1.1/DTD/svg11.dtd">
<svg version="1.1" id="assets" xmlns="http://www.w3.org/2000/svg" xmlns:xlink="http://www.w3.org/1999/xlink" x="0px" y="0px"
	 width="26px" height="30px" viewBox="0 0 26 30" enable-background="new 0 0 26 30" xml:space="preserve">
<path id="background_70_" fill="#74A137" d="M0,0v30h26V7h-7V0H0z"/>
<path id="white_37_" fill="#FFFFFF" d="M1,1v20h24V7h-6V1H1z"/>
<path fill="#86BB40" d="M5,5v13h16V5H5z M14,17H9v-2h5V17z M14,14H9v-2h5V14z M14,11H9V9h5V11z M14,8H9V6h5V8z M20,17h-5v-2h5V17z
	 M20,14h-5v-2h5V14z M20,11h-5V9h5V11z M20,8h-5V6h5V8z"/>
<path id="foldedCorner_70_" fill="#86BB40" d="M19,0l7,7h-7V0z"/>
<path id="shadow_31_" opacity="0.2" fill="#1B3F63" enable-background="new    " d="M26,14l-7-7h7V14z"/>
</svg>
