<svg id="Layer_1" data-name="Layer 1" xmlns="http://www.w3.org/2000/svg" viewBox="0 0 62 62"><defs><style>.cls-1{fill:none;}.cls-2{fill:#2a313d;}.cls-3{fill:#323947;}.cls-4{fill:#fff;}.cls-5{fill:#c4c6cb;}</style></defs><title>new</title><path class="cls-1" d="M37.06,36.5c0.2,0,.6-1.28,1.15-1.81l-6-9.74a4.16,4.16,0,0,1-1.44.35V36.5h6.31Z"/><path class="cls-2" d="M21.37,41.85a4.08,4.08,0,0,1-4.15-4.08,4.05,4.05,0,0,1,5.12-4l5.47-9.66a4.19,4.19,0,0,1,2.89-7.19h0V1.74A29.72,29.72,0,0,0,1.23,31.26,29.72,29.72,0,0,0,30.75,60.79V38.5H25.39A4.15,4.15,0,0,1,21.37,41.85Z"/><path class="cls-2" d="M29.46,25.12l-5.34,9.45c0.61,0.55,1.07,1.93,1.28,1.93h5.36V25.31h0A4.1,4.1,0,0,1,29.46,25.12Z"/><path class="cls-3" d="M38.2,34.69l-6-9.65a4.09,4.09,0,0,1-1.44.27V36.5h6.31C37.25,36.5,37.66,35.22,38.2,34.69Z"/><path class="cls-3" d="M30.75,1.74V16.94a4.19,4.19,0,0,1,3,7l6.17,9.9a4.08,4.08,0,1,1-2.88,4.65H30.75V60.79A29.08,29.08,0,0,0,60.27,31.26,29.08,29.08,0,0,0,30.75,1.74Z"/><path class="cls-4" d="M41.07,41.85a4.08,4.08,0,1,0-1.14-8l-6.17-9.9a4.19,4.19,0,0,0-3-7v8.37A4.09,4.09,0,0,0,32.19,25l6,9.65c-0.55.53-1,1.81-1.15,1.81H30.75v2h6.31A4.15,4.15,0,0,0,41.07,41.85Z"/><path class="cls-5" d="M25.39,36.5c-0.21,0-.66-1.39-1.28-1.93L29.46,25a4.12,4.12,0,0,0,1.25.24s0,0,0,0V16.94h0a4.2,4.2,0,0,0-2.89,7.2L22.34,33.8a4.12,4.12,0,0,0-1-.12,4.17,4.17,0,0,0-4.15,4.19,4,4,0,0,0,4.15,4,4.15,4.15,0,0,0,4-3.35h5.36v-2H25.39Z"/></svg>