<svg id="Layer_1" data-name="Layer 1" xmlns="http://www.w3.org/2000/svg" width="62" height="62" viewBox="0 0 62 62">
  <title>new</title>
  <path d="M15,37.92V34.77c0-1.24.85-1.77,2.09-1.77H31V31H17.34a3.57,3.57,0,0,0-1.72.52L18.27,26a6.67,6.67,0,0,1,.54-0.93L21,20.56A4.38,4.38,0,0,1,24.54,18H31V1.48H30.74a29.52,29.52,0,0,0,0,59H31V40H17.09A2,2,0,0,1,15,37.92Z" fill="#2a313d"/>
  <g>
    <circle cx="42.18" cy="36.35" r="1.78" fill="none"/>
    <circle cx="36.85" cy="36.35" r="1.78" fill="none"/>
    <g>
      <circle cx="42.18" cy="36.35" r="1.78" fill="#323947"/>
      <circle cx="36.85" cy="36.35" r="1.78" fill="#323947"/>
      <path d="M31,1.48V18h7.08a4.37,4.37,0,0,1,3.63,2.74l2.71,6.44,2.13,4.39A3.62,3.62,0,0,0,44.83,31H31v2H44.58c1.24,0,2.42.53,2.42,1.77v3.16A2.27,2.27,0,0,1,44.58,40H31V60.5A29.51,29.51,0,0,0,31,1.48Z" fill="#323947"/>
      <path d="M47,37.92V34.77C47,33.53,45.82,33,44.58,33H31v7H44.58A2.27,2.27,0,0,0,47,37.92Zm-10.15.2a1.78,1.78,0,1,1,1.78-1.78A1.78,1.78,0,0,1,36.85,38.12Zm5.33,0A1.78,1.78,0,1,1,44,36.35,1.78,1.78,0,0,1,42.18,38.12Z" fill="#fff"/>
      <path d="M46.55,31.57l-2.13-4.39-2.71-6.44A4.37,4.37,0,0,0,38.08,18H31V31H44.83A3.62,3.62,0,0,1,46.55,31.57Z" fill="#fff"/>
    </g>
    <path d="M17.09,33c-1.24,0-2.09.53-2.09,1.77v3.16A2,2,0,0,0,17.09,40H31V33H17.09Z" fill="#c4c6cb"/>
    <path d="M21,20.56l-2.19,4.49a6.67,6.67,0,0,0-.54.93l-2.65,5.53A3.57,3.57,0,0,1,17.34,31H31V18H24.54A4.38,4.38,0,0,0,21,20.56Z" fill="#c4c6cb"/>
  </g>
</svg>
