<?xml version="1.0" standalone="no"?>
<!-- Generator: Adobe Fireworks 10, Export SVG Extension by Aaron Beall (http://fireworks.abeall.com) . Version: 0.6.1  -->
<!DOCTYPE svg PUBLIC "-//W3C//DTD SVG 1.1//EN" "http://www.w3.org/Graphics/SVG/1.1/DTD/svg11.dtd">
<svg id="translationFailed_64-Page%201" viewBox="0 0 64 64" style="background-color:#ffffff00" version="1.1"
	xmlns="http://www.w3.org/2000/svg" xmlns:xlink="http://www.w3.org/1999/xlink" xml:space="preserve"
	x="0px" y="0px" width="64px" height="64px"
>
	<g id="Layer%201">
		<path d="M 22.071 4.1005 L 24.8995 6.929 L 7.929 23.8994 L 5.1005 21.071 L 22.071 4.1005 Z" fill="#a5b8c1"/>
		<path d="M 7.929 4.1005 L 5.1005 6.929 L 22.071 23.8994 L 24.8995 21.071 L 7.929 4.1005 Z" fill="#a5b8c1"/>
		<path d="M 54.071 3.1005 L 56.8995 5.929 L 39.929 22.8994 L 37.1005 20.071 L 54.071 3.1005 Z" fill="#a5b8c1"/>
		<path d="M 39.929 3.1005 L 37.1005 5.929 L 54.071 22.8994 L 56.8995 20.071 L 39.929 3.1005 Z" fill="#a5b8c1"/>
		<path id="Ellipse" d="M 11 49.5 C 11 41.4918 21.5211 35 34.5 35 C 47.4789 35 58 41.4918 58 49.5 C 52.458 47.1223 48.401 45 35.4221 45 C 22.4432 45 14.0887 47.9664 11 49.5 Z" fill="#7b8c95"/>
		<g>
			<path id="Ellipse2" d="M 16 53 C 16 48.0294 20.0293 44 25 44 C 29.9707 44 34 48.0294 34 53 C 34 57.9707 29.9707 62 25 62 C 20.0293 62 16 57.9707 16 53 Z" fill="#a5b8c1"/>
			<path d="M 18 45 C 26.25 40.5 35 43 35 43 C 33.1666 47.6667 34 54 34 54 L 16 54 C 16 54 15 48.5 18 45 Z" fill="#a5b8c1"/>
		</g>
	</g>
</svg>