<?xml version="1.0" standalone="no"?>
<!-- Generator: Adobe Fireworks 10, Export SVG Extension by Aaron Beall (http://fireworks.abeall.com) . Version: 0.6.1  -->
<!DOCTYPE svg PUBLIC "-//W3C//DTD SVG 1.1//EN" "http://www.w3.org/Graphics/SVG/1.1/DTD/svg11.dtd">
<svg id="trashCan-Page%201" viewBox="0 0 16 16" style="background-color:#ffffff00" version="1.1"
	xmlns="http://www.w3.org/2000/svg" xmlns:xlink="http://www.w3.org/1999/xlink" xml:space="preserve"
	x="0px" y="0px" width="16px" height="16px"
>
	<g id="Layer%201">
		<path d="M 10 2 L 6 2 L 6 1.5 C 6 1.2239 6.2239 1 6.5 1 L 9.5 1 C 9.7761 1 10 1.2239 10 1.5 L 10 2 ZM 2.6 2 C 2.2686 2 2 2.2686 2 2.6 L 2 4 L 14 4 L 14 2.6 C 14 2.2686 13.7314 2 13.4 2 L 11 2 L 11 1.5 C 11 0.6716 10.3284 0 9.5 0 L 6.5 0 C 5.6716 0 5 0.6716 5 1.5 L 5 2 L 2.6 2 ZM 3 4.6563 L 3 14.5 C 3 15.3284 3.6716 16 4.5 16 L 11.5 16 C 12.3284 16 13 15.3284 13 14.5 L 13 4.6563 L 12 4.6563 L 12 14 L 11.4063 14 L 11.4063 4.6563 L 10 4.6563 L 10 14 L 9 14 L 9 4.6563 L 7 4.6563 L 7 14 L 6 14 L 6 4.6563 L 4.6563 4.6563 L 4.6563 14 L 4 14 L 4 4.6563 L 3 4.6563 Z" fill="#000000"/>
	</g>
</svg>