<?xml version="1.0" standalone="no"?>
<!-- Generator: Adobe Fireworks 10, Export SVG Extension by Aaron Beall (http://fireworks.abeall.com) . Version: 0.6.1  -->
<!DOCTYPE svg PUBLIC "-//W3C//DTD SVG 1.1//EN" "http://www.w3.org/Graphics/SVG/1.1/DTD/svg11.dtd">
<svg id="updated-Page%201" viewBox="0 0 16 16" style="background-color:#ffffff00" version="1.1"
	xmlns="http://www.w3.org/2000/svg" xmlns:xlink="http://www.w3.org/1999/xlink" xml:space="preserve"
	x="0px" y="0px" width="16px" height="16px"
>
	<g id="Layer%201">
		<path d="M 8 0 C 3.9203 0 0.5521 3.0536 0.06 7 L 2.39 7 C 2.8652 4.335 5.2023 2.3 8 2.3 C 9.583 2.3 11.0208 2.9515 12.055 4 L 10 4 L 10 6 L 16 6 L 16 0 L 14 0 L 14 2.705 C 12.5336 1.0451 10.3886 0 8 0 ZM 8 16 C 12.0797 16 15.4479 12.9464 15.94 9 L 13.61 9 C 13.1348 11.665 10.7977 13.7 8 13.7 C 6.417 13.7 4.9792 13.0485 3.945 12 L 6 12 L 6 10 L 0 10 L 0 16 L 2 16 L 2 13.295 C 3.4664 14.9549 5.6114 16 8 16 Z" fill="#cfcccc"/>
	</g>
</svg>