<?xml version="1.0" encoding="utf-8"?>
<!-- Generator: Adobe Illustrator 18.1.0, SVG Export Plug-In . SVG Version: 6.00 Build 0)  -->
<svg version="1.1" id="Layer_1" xmlns="http://www.w3.org/2000/svg" xmlns:xlink="http://www.w3.org/1999/xlink" x="0px" y="0px"
	 viewBox="-589 351 100 100" style="enable-background:new -589 351 100 100;" xml:space="preserve">
<g id="Your_Icon">
	<path d="M-527,394h26v-26l-9,9c-0.7-0.8-1.4-1.6-2.2-2.3c-14.9-14.9-39-14.8-53.8,0.2c-14.8,15-14.7,39.2,0.2,54
		c14.9,14.9,39,14.8,53.8-0.2c0,0,4.9-5.9,6.6-9l-8.2-3.6c-1.2,2.1-4.7,6.3-4.7,6.3c-11.3,11.5-29.7,11.5-41.2,0.2
		c-11.4-11.3-11.5-29.8-0.2-41.3c11.3-11.5,29.7-11.5,41.2-0.2c0.8,0.8,1.5,1.5,2.1,2.4L-527,394z"/>
</g>
</svg>
