<?xml version="1.0" standalone="no"?>
<!-- Generator: Adobe Fireworks 10, Export SVG Extension by Aaron Beall (http://fireworks.abeall.com) . Version: 0.6.1  -->
<!DOCTYPE svg PUBLIC "-//W3C//DTD SVG 1.1//EN" "http://www.w3.org/Graphics/SVG/1.1/DTD/svg11.dtd">
<svg id="compositeDesign_assemblyFile-Page%201" viewBox="0 0 82 70" style="background-color:#ffffff00" version="1.1"
	xmlns="http://www.w3.org/2000/svg" xmlns:xlink="http://www.w3.org/1999/xlink" xml:space="preserve"
	x="0px" y="0px" width="82px" height="70px"
>
	<defs>
		<!-- Library -->
		<symbol id="icon_file_32" overflow="visible">
			<g id="Layer%2012">
				<path d="M -10 -12 L -10 12 L 10 12 L 10 -4 L 2 -4 L 2 -12 L -10 -12 ZM 3 -12 L 3 -5 L 10 -5 L 3 -12 Z" fill="#000000"/>
			</g>

		</symbol>
		<!-- End Library -->

	</defs>
	<g id="Layer%201">
		<g id="%5Bbackground%20%5D">
			<path d="M 0 0 L 72 0 L 72 64 L 0 64 L 0 0 Z" fill="#bcbcbc"/>
			<path d="M 0.8 8 L 71.2 8 L 71.2 63.2 L 0.8 63.2 L 0.8 8 Z" fill="#f3f3f3"/>
		</g>
		<g id="%5B360_chrome%20%5D">
			<g>
				<path d="M 1 1 L 71 1 L 71 9 L 1 9 L 1 1 Z" fill="#ffffff"/>
				<path id="Ellipse" opacity="0.502" d="M 3 5 C 3 3.8954 3.8954 3 5 3 C 6.1046 3 7 3.8954 7 5 C 7 6.1046 6.1046 7 5 7 C 3.8954 7 3 6.1046 3 5 Z" fill="#666666"/>
			</g>
			<g>
				<path d="M 1 9 L 9 9 L 9 63 L 1 63 L 1 9 Z" fill="#666666"/>
				<path id="Ellipse2" opacity="0.502" d="M 3 14 C 3 12.8954 3.8954 12 5 12 C 6.1046 12 7 12.8954 7 14 C 7 15.1046 6.1046 16 5 16 C 3.8954 16 3 15.1046 3 14 Z" fill="#ffffff"/>
				<path id="Ellipse3" opacity="0.502" d="M 3 21 C 3 19.8954 3.8954 19 5 19 C 6.1046 19 7 19.8954 7 21 C 7 22.1046 6.1046 23 5 23 C 3.8954 23 3 22.1046 3 21 Z" fill="#ffffff"/>
				<path id="Ellipse4" opacity="0.502" d="M 3 28 C 3 26.8954 3.8954 26 5 26 C 6.1046 26 7 26.8954 7 28 C 7 29.1046 6.1046 30 5 30 C 3.8954 30 3 29.1046 3 28 Z" fill="#ffffff"/>
			</g>
		</g>
		<g>
			<path opacity="0.4" d="M 47.6066 34.6512 L 47.6291 34.6436 L 47.629 34.6539 L 47.6066 34.6512 ZM 47.6342 34.6769 L 47.8769 36.456 L 48.1602 36.3553 L 56.8069 36.7239 C 57.6329 36.8384 60.2726 40.3698 60.7687 40.6143 C 61.166 40.72 64.6207 42.8556 64.7306 42.9485 C 65.693 43.7606 67.6462 46.9532 67.1077 46.8388 C 67.1077 46.8388 65.9978 50.096 64.7306 50.7291 C 62.0079 52.089 58.5362 52.2144 52.9974 50.567 L 49.5976 49.5576 L 49.4839 49.6314 C 48.7166 50.1008 47.5919 50.3365 46.2195 50.2552 C 46.5601 51.9373 46.4308 53.4864 45.919 53.7226 C 44.8375 54.2214 35.6423 58.5732 35.6423 58.5732 L 32.9613 57.256 L 32.8099 57.0838 C 32.7399 58.3679 32.3235 59.4544 31.4057 59.9499 C 29.562 60.9453 28.2234 61.5283 27.2465 61.825 C 24.4919 63.1679 20.588 62.2365 17.6092 58.2054 C 15.0936 54.8016 15.5086 50.1373 18.9867 48.7563 C 19.4979 48.0079 20.788 47.6025 22.2758 46.9771 C 23.2209 46.5798 24.269 46.6211 25.3123 46.9142 C 25.399 46.6323 25.4162 46.3921 25.254 46.3326 L 24.4017 46.0194 L 25.2367 43.056 L 32.3665 40.9982 L 32.8253 38.7586 L 45.5406 34.4 L 47.6066 34.6512 L 47.629 34.6539 L 47.6342 34.6769 ZM 47.6814 34.6599 L 47.6342 34.6769 L 47.629 34.6539 L 47.6814 34.6599 Z" fill="#4675a8"/>
			<path d="M 27.2921 36.1792 L 40.9074 26.476 L 57.9772 36.0341 L 44 48 L 27.2921 36.1792 Z" fill="#7ab4f3"/>
			<path d="M 27 36 L 44 46 L 44 49 L 27 39 L 27 36 Z" fill="#6f99c8"/>
			<path d="M 58 36 L 44 46 L 44 49 L 58 39 L 58 36 Z" fill="#4675a8"/>
			<path d="M 36 32 L 36 41 L 42 45 L 55 36 L 47 30 L 36 32 Z" fill="#365981"/>
			<path d="M 40.8412 17.8871 C 38.6408 18.9025 34.9736 21.3684 34.9736 24.8497 C 34.9736 28.331 35 37 35 37 L 43 42 L 44 38 L 52 33 L 53 35 C 53 31.875 53 26.4375 53 25 C 53 23.8125 52.5795 23.0023 51 22 C 49.375 20.9688 45.2621 18.5198 44.5938 18.125 C 43.8442 17.6823 41.8702 17.4123 40.8412 17.8871 Z" fill="#7ab4f3"/>
			<path d="M 53 35 L 43 42 C 43 42 43 33.1875 43 29.5 C 43 25.8707 46.1055 23.6945 48.3058 22.6792 C 50.5062 21.6638 53 22.6792 53 25 C 53 27.3209 53 35 53 35 Z" fill="#4675a8"/>
			<path d="M 33.1243 34.1457 C 31.9374 30.2716 33.0165 27.9041 34.8507 27.2585 C 36.6852 26.6128 39.9454 29.6719 40.8934 31.563 C 41.8644 33.5 42.8356 37.8044 40.8934 39.3111 C 38.2474 41.3634 34.3112 38.0197 33.1243 34.1457 Z" fill="#333333"/>
			<path d="M 20.8913 34.1331 L 20.8913 31.8122 C 20.8913 31.8122 28.4216 28.1859 29.3018 27.7508 C 30.1818 27.3156 36.4406 30.2166 37.3207 32.9727 C 38.2008 35.7287 39.0809 41.3857 38.4941 43.4165 C 37.9074 45.4472 29.106 48.6384 29.106 48.0582 C 29.106 47.4779 26.759 46.8978 26.759 46.8978 L 20.8913 34.1331 Z" fill="#7ab4f3"/>
			<path d="M 14.217 38.122 C 13.9236 37.2517 11.6499 36.3814 17.9576 33.7704 C 20.3969 32.7607 25.4702 37.3862 26.759 39.9352 C 28.0792 42.5462 29.692 48.7885 26.759 50.379 C 24.6698 51.512 23.2379 52.7056 21.6248 51.1768 C 20.3822 49.9992 14.5104 38.9924 14.217 38.122 Z" fill="#999999"/>
			<path opacity="0.502" d="M 18.553 46.3048 C 19.8824 48.6519 21.1263 50.7044 21.6248 51.1768 C 23.2379 52.7056 24.6698 51.512 26.759 50.379 C 27.7643 49.8339 28.2374 48.7436 28.3695 47.4391 C 28.7802 47.6256 29.106 47.8413 29.106 48.0582 C 29.106 48.6384 37.9074 45.4472 38.4941 43.4165 C 38.9916 41.6949 38.4328 37.3687 37.7156 34.4117 C 33.511 37.0894 24.5418 42.5725 18.553 46.3048 Z" fill="#000000"/>
			<path d="M 28.4015 46.897 C 28.5003 46.8359 28.5993 46.7673 28.6953 46.6944 C 30.9622 44.974 29.8287 40.0587 28.6953 37.8469 C 27.5887 35.6874 23.7834 32.1942 21.6421 32.9315 C 21.0708 33.1283 20.5634 33.4658 20.1511 33.938 C 22.6729 34.9194 25.7884 38.0157 26.759 39.9352 C 27.5652 41.5297 28.4791 44.4804 28.4015 46.897 Z" fill="#333333"/>
			<path d="M 29 42 L 34 45 L 34 52 L 29 49 L 29 42 Z" fill="#6f99c8"/>
			<path d="M 41 41 L 34 45 L 34 52 L 41 47 L 41 41 Z" fill="#4675a8"/>
			<path d="M 29 42 L 36 38 L 41 41 L 34 45 L 29 42 Z" fill="#7ab4f3"/>
			<path id="Ellipse5" d="M 46.7088 32.3745 C 46.7088 30.9022 47.4969 29.1972 48.4691 28.5662 C 49.4412 27.9352 50.2294 28.6172 50.2294 30.0895 C 50.2294 31.5619 49.4412 33.2668 48.4691 33.8978 C 47.4969 34.5288 46.7088 33.8468 46.7088 32.3745 Z" fill="#333333"/>
			<path d="M 12.6768 44.5769 C 11.0631 39.355 12.5301 36.1638 15.0238 35.2935 C 17.5175 34.4232 21.9495 38.5467 23.2385 41.0956 C 24.5586 43.7065 25.8788 49.5087 23.2385 51.5395 C 19.6413 54.3058 14.2903 49.7988 12.6768 44.5769 Z" fill="#666666"/>
		</g>
		<g>
			<path d="M 61 45 L 72 45 L 72 64 L 61 64 L 61 45 Z" fill="#e6e6e6"/>
			<use id="icon_file_322" xlink:href="#icon_file_32" transform="matrix(1, 0, 0, 1, 72, 58)"/>
		</g>
		<g>
			<path d="M 62 46 L 62 70 L 82 70 L 82 54 L 74 54 L 74 46 L 62 46 Z" fill="#aeaeae"/>
			<path opacity="0.502" d="M 82 62 L 82 54 L 74 54 L 82 62 Z" fill="#666666"/>
			<path d="M 75 46 L 75 53 L 82 53 L 75 46 Z" fill="#666666"/>
		</g>
	</g>
</svg>