<?xml version="1.0" encoding="UTF-8" standalone="no"?>
<svg width="16px" height="16px" viewBox="0 0 16 16" version="1.1" xmlns="http://www.w3.org/2000/svg" xmlns:xlink="http://www.w3.org/1999/xlink" xmlns:sketch="http://www.bohemiancoding.com/sketch/ns">
    <g id="Page-1" stroke="none" stroke-width="1" fill="none" fill-rule="evenodd" sketch:type="MSPage">
        <g id="uploadAssemblyFiles_16" sketch:type="MSLayerGroup" fill="#7B8FA6">
            <g id="Layer_x25_201_3_" sketch:type="MSShapeGroup">
                <path d="M8.5,7.5 L8.5,2.5 L13.5,2.5 L13.5,7.5 L8.5,7.5 L8.5,7.5 Z M2.5,7.5 L2.5,2.5 L7.5,2.5 L7.5,7.5 L2.5,7.5 L2.5,7.5 Z M8.5,13.5 L8.5,8.5 L13.5,8.5 L13.5,13.5 L8.5,13.5 L8.5,13.5 Z M2.5,13.5 L2.5,8.5 L7.5,8.5 L7.5,13.5 L2.5,13.5 L2.5,13.5 Z M15.5,15.5 L10.5,15.5 L10.5,14.5 L14.5,14.5 L14.5,1.5 L10.5,1.5 L10.5,0.5 L15.5,0.5 L15.5,15.5 L15.5,15.5 Z M0.5,15.5 L0.5,0.5 L5.5,0.5 L5.5,1.5 L1.5,1.5 L1.5,14.5 L5.5,14.5 L5.5,15.5 L0.5,15.5 L0.5,15.5 Z" id="Shape"></path>
            </g>
        </g>
    </g>
</svg>
