<?xml version="1.0" encoding="utf-8"?>
<!-- Generator: Adobe Illustrator 18.1.1, SVG Export Plug-In . SVG Version: 6.00 Build 0)  -->
<!DOCTYPE svg PUBLIC "-//W3C//DTD SVG 1.1//EN" "http://www.w3.org/Graphics/SVG/1.1/DTD/svg11.dtd">
<svg version="1.1" id="assets" xmlns="http://www.w3.org/2000/svg" xmlns:xlink="http://www.w3.org/1999/xlink" x="0px" y="0px"
	 width="26px" height="28px" viewBox="0 0 26 28" enable-background="new 0 0 26 28" xml:space="preserve">
<g>
	<path opacity="0.9" fill="#294769" d="M0,0v28h26V0H0z M4,27H1v-2h3V27z M4,23H1v-2h3V23z M4,19H1v-2h3V19z M4,15H1v-2h3V15z M4,11
		H1V9h3V11z M4,7H1V5h3V7z M4,3H1V1h3V3z M25,27h-3v-2h3V27z M25,23h-3v-2h3V23z M25,19h-3v-2h3V19z M25,15h-3v-2h3V15z M25,11h-3V9
		h3V11z M25,7h-3V5h3V7z M25,3h-3V1h3V3z"/>
	<rect x="5" y="1" fill="#BECBD9" width="16" height="12"/>
	<rect x="5" y="15" fill="#BECBD9" width="16" height="12"/>
</g>
</svg>
