<?xml version="1.0" encoding="utf-8"?>
<!-- Generator: Adobe Illustrator 18.1.1, SVG Export Plug-In . SVG Version: 6.00 Build 0)  -->
<!DOCTYPE svg PUBLIC "-//W3C//DTD SVG 1.1//EN" "http://www.w3.org/Graphics/SVG/1.1/DTD/svg11.dtd">
<svg version="1.1" id="assets" xmlns="http://www.w3.org/2000/svg" xmlns:xlink="http://www.w3.org/1999/xlink" x="0px" y="0px"
	 width="16px" height="15px" viewBox="0 0 16 15" enable-background="new 0 0 16 15" xml:space="preserve">
<path fill="#7B8FA6" d="M1,11h1v1H1V11z M1,7h1v1H1V7z M1,3h1v1H1V3z M1,13h1v1H1V13z M1,9h1v1H1V9z M1,5h1v1H1V5z M1,1h1v1H1V1z
	 M14,11h1v1h-1V11z M14,7h1v1h-1V7z M14,3h1v1h-1V3z M14,13h1v1h-1V13z M14,9h1v1h-1V9z M14,5h1v1h-1V5z M14,1h1v1h-1V1z M3,8h10v6
	H3V8z M3,1h10v6H3V1z M0,0v15h16V0H0z"/>
</svg>
