<?xml version="1.0" encoding="utf-8"?>
<!-- Generator: Adobe Illustrator 18.1.1, SVG Export Plug-In . SVG Version: 6.00 Build 0)  -->
<!DOCTYPE svg PUBLIC "-//W3C//DTD SVG 1.1//EN" "http://www.w3.org/Graphics/SVG/1.1/DTD/svg11.dtd">
<svg version="1.1" id="assets" xmlns="http://www.w3.org/2000/svg" xmlns:xlink="http://www.w3.org/1999/xlink" x="0px" y="0px"
	 width="78px" height="84px" viewBox="0 0 78 84" enable-background="new 0 0 78 84" xml:space="preserve">
<g>
	<path opacity="0.9" fill="#294769" d="M0,0v84h78V0H0z M11.5,81h-8C3.2,81,3,80.8,3,80.5v-5C3,75.2,3.2,75,3.5,75h8
		c0.3,0,0.5,0.2,0.5,0.5v5C12,80.8,11.8,81,11.5,81z M11.5,69h-8C3.2,69,3,68.8,3,68.5v-5C3,63.2,3.2,63,3.5,63h8
		c0.3,0,0.5,0.2,0.5,0.5v5C12,68.8,11.8,69,11.5,69z M11.5,57h-8C3.2,57,3,56.8,3,56.5v-5C3,51.2,3.2,51,3.5,51h8
		c0.3,0,0.5,0.2,0.5,0.5v5C12,56.8,11.8,57,11.5,57z M11.5,45h-8C3.2,45,3,44.8,3,44.5v-5C3,39.2,3.2,39,3.5,39h8
		c0.3,0,0.5,0.2,0.5,0.5v5C12,44.8,11.8,45,11.5,45z M11.5,33h-8C3.2,33,3,32.8,3,32.5v-5C3,27.2,3.2,27,3.5,27h8
		c0.3,0,0.5,0.2,0.5,0.5v5C12,32.8,11.8,33,11.5,33z M11.5,21h-8C3.2,21,3,20.8,3,20.5v-5C3,15.2,3.2,15,3.5,15h8
		c0.3,0,0.5,0.2,0.5,0.5v5C12,20.8,11.8,21,11.5,21z M11.5,9h-8C3.2,9,3,8.8,3,8.5v-5C3,3.2,3.2,3,3.5,3h8C11.8,3,12,3.2,12,3.5v5
		C12,8.8,11.8,9,11.5,9z M74.5,81h-8c-0.3,0-0.5-0.2-0.5-0.5v-5c0-0.3,0.2-0.5,0.5-0.5h8c0.3,0,0.5,0.2,0.5,0.5v5
		C75,80.8,74.8,81,74.5,81z M74.5,69h-8c-0.3,0-0.5-0.2-0.5-0.5v-5c0-0.3,0.2-0.5,0.5-0.5h8c0.3,0,0.5,0.2,0.5,0.5v5
		C75,68.8,74.8,69,74.5,69z M74.5,57h-8c-0.3,0-0.5-0.2-0.5-0.5v-5c0-0.3,0.2-0.5,0.5-0.5h8c0.3,0,0.5,0.2,0.5,0.5v5
		C75,56.8,74.8,57,74.5,57z M74.5,45h-8c-0.3,0-0.5-0.2-0.5-0.5v-5c0-0.3,0.2-0.5,0.5-0.5h8c0.3,0,0.5,0.2,0.5,0.5v5
		C75,44.8,74.8,45,74.5,45z M74.5,33h-8c-0.3,0-0.5-0.2-0.5-0.5v-5c0-0.3,0.2-0.5,0.5-0.5h8c0.3,0,0.5,0.2,0.5,0.5v5
		C75,32.8,74.8,33,74.5,33z M74.5,21h-8c-0.3,0-0.5-0.2-0.5-0.5v-5c0-0.3,0.2-0.5,0.5-0.5h8c0.3,0,0.5,0.2,0.5,0.5v5
		C75,20.8,74.8,21,74.5,21z M74.5,9h-8C66.2,9,66,8.8,66,8.5v-5C66,3.2,66.2,3,66.5,3h8C74.8,3,75,3.2,75,3.5v5
		C75,8.8,74.8,9,74.5,9z"/>
	<path fill="#BECBD9" d="M61,39H17c-1.1,0-2-0.9-2-2V5c0-1.1,0.9-2,2-2h44c1.1,0,2,0.9,2,2v32C63,38.1,62.1,39,61,39z"/>
	<path fill="#BECBD9" d="M61,81H17c-1.1,0-2-0.9-2-2V47c0-1.1,0.9-2,2-2h44c1.1,0,2,0.9,2,2v32C63,80.1,62.1,81,61,81z"/>
</g>
</svg>
