<?xml version="1.0" encoding="utf-8"?>
<!-- Generator: Adobe Illustrator 18.1.1, SVG Export Plug-In . SVG Version: 6.00 Build 0)  -->
<!DOCTYPE svg PUBLIC "-//W3C//DTD SVG 1.1//EN" "http://www.w3.org/Graphics/SVG/1.1/DTD/svg11.dtd">
<svg version="1.1" id="assets" xmlns="http://www.w3.org/2000/svg" xmlns:xlink="http://www.w3.org/1999/xlink" x="0px" y="0px"
	 width="364px" height="299.2px" viewBox="0 0 364 299.2" enable-background="new 0 0 364 299.2" xml:space="preserve">
<g>
	
		<line id="line_x5F_blue_2_" fill="#23B0FF" stroke="#23B0FF" stroke-width="6" stroke-miterlimit="10" x1="65" y1="186.7" x2="89.5" y2="148.7"/>
	
		<line id="line_x5F_orange_2_" fill="none" stroke="#FAB11C" stroke-width="6" stroke-miterlimit="10" x1="288.5" y1="193.7" x2="262" y2="145.7"/>
	<g id="avatar_x5F_female_2_">
		<defs>
			<circle id="SVGID_1_" cx="307.5" cy="225.2" r="49.5"/>
		</defs>
		<clipPath id="SVGID_2_">
			<use xlink:href="#SVGID_1_"  overflow="visible"/>
		</clipPath>
		<circle id="background_6_" clip-path="url(#SVGID_2_)" fill="#FAB11C" cx="307.5" cy="225.2" r="56.5"/>
		<path id="hair_x5F_back_2_" clip-path="url(#SVGID_2_)" fill="#EC8A0B" d="M330.2,215.7c0,6.2,0,23,0,23h-22.5h-23.5
			c0,0,0-10.3,0-23s10.3-23,23-23S330.2,203,330.2,215.7z"/>
		<g clip-path="url(#SVGID_2_)">
			<defs>
				<circle id="shirtMask_5_" cx="307.2" cy="267.2" r="32"/>
			</defs>
			<clipPath id="shirtMask_1_">
				<use xlink:href="#shirtMask_5_"  overflow="visible"/>
			</clipPath>
			<g id="stripes_2_" clip-path="url(#shirtMask_1_)">
				<rect x="272.2" y="264.2" fill="#EC8A0B" width="71" height="3"/>
				<rect x="272.2" y="271.2" fill="#EC8A0B" width="71" height="3.5"/>
				<rect x="272.2" y="257.2" fill="#EC8A0B" width="71" height="3"/>
				<rect x="272.2" y="250.2" fill="#EC8A0B" width="71" height="3"/>
				<rect x="272.2" y="243.2" fill="#EC8A0B" width="71" height="3"/>
			</g>
			<polygon id="neckCutout_2_" clip-path="url(#shirtMask_1_)" fill="#FDD88E" points="307.2,228.7 286.7,235.7 307.2,256.2 
				327.7,235.7 			"/>
			<path id="shadow_2_" clip-path="url(#shirtMask_1_)" fill="#F7AD4C" d="M307.2,225.5l-13.2,6.3c3,5.5,7.8,9.1,13.2,9.1
				s10.2-3.6,13.2-9.1L307.2,225.5z"/>
		</g>
		<polygon id="neck_5_" clip-path="url(#SVGID_2_)" fill="#F7AD4C" points="315.8,236.2 298.5,236.5 300.5,232.7 313.4,232 		"/>
		<ellipse id="head_8_" clip-path="url(#SVGID_2_)" fill="#FDD88E" cx="307.2" cy="215.7" rx="17.8" ry="19"/>
		<g id="facialFeatures_2_" clip-path="url(#SVGID_2_)">
			<circle fill="#EC8A0B" cx="301.4" cy="214" r="2.8"/>
			<circle fill="#EC8A0B" cx="312.4" cy="214" r="2.8"/>
			<path fill="#EC8A0B" d="M301.4,224.2c0.7,2.3,2.9,4,5.5,4s4.8-1.7,5.5-4c0,0-2.8,1.1-5.6,1.1
				C304.2,225.3,301.4,224.2,301.4,224.2z"/>
		</g>
		<g id="hair_x5F_front_2_" clip-path="url(#SVGID_2_)">
			<path fill="#EC8A0B" d="M321.1,197.4c-3.9-3-8.7-4.7-14-4.7c-12.7,0-23,10.3-23,23c0,1.7,0,3.4,0,5.2
				C293.9,210.5,310.3,207.2,321.1,197.4z"/>
			<path fill="#EC8A0B" d="M316.8,194.8c0.7,16.3,8.7,16.7,13.4,43.4c0-7.7,0-18.4,0-22.5C330.2,206.4,324.7,198.4,316.8,194.8z"/>
		</g>
		<g id="hairHighlights_2_" clip-path="url(#SVGID_2_)">
			<defs>
				<path id="SVGID_3_" d="M332.4,197.2c-6.3,1.1-15.3,1.8-25.2,1.8s-18.9-0.7-25.2-1.8c-5.7,1-9.3,2.3-9.3,3.8
					c0,3,15.4,5.5,34.5,5.5s34.5-2.5,34.5-5.5C341.7,199.5,338.1,198.2,332.4,197.2z"/>
			</defs>
			<clipPath id="SVGID_4_">
				<use xlink:href="#SVGID_3_"  overflow="visible"/>
			</clipPath>
			<g clip-path="url(#SVGID_4_)">
				<path fill="#FAB31D" d="M286.2,215.7c0-11.6,9.4-21,21-21c3.8,0,7.4,1,10.7,2.9c-4.5,3.5-9.9,6.3-15.2,8.9
					c-5.7,2.9-11.6,5.8-16.5,9.8V215.7z"/>
				<path fill="#FAB31D" d="M328.2,223.1c-1.6-4.7-3.2-8.1-4.6-11.2c-2.1-4.4-3.8-8.1-4.5-13.5c5.6,3.9,9.1,10.3,9.1,17.3V223.1z"/>
			</g>
		</g>
	</g>
	<g id="avatar_x5F_male_2_">
		<defs>
			<circle id="SVGID_5_" cx="56.5" cy="225.2" r="49.5"/>
		</defs>
		<clipPath id="SVGID_6_">
			<use xlink:href="#SVGID_5_"  overflow="visible"/>
		</clipPath>
		<circle id="background_5_" clip-path="url(#SVGID_6_)" fill="#23B0FF" cx="56.5" cy="224.7" r="56.5"/>
		<g id="jacket_2_" clip-path="url(#SVGID_6_)">
			<defs>
				<circle id="shirtMask_4_" cx="58" cy="266.7" r="32"/>
			</defs>
			<clipPath id="shirtMask_2_">
				<use xlink:href="#shirtMask_4_"  overflow="visible"/>
			</clipPath>
			<path id="neck_4_" clip-path="url(#shirtMask_2_)" fill="#95DAFF" d="M56.6,231.7L44,239.2c2.8,4.9,7.7,6,12.6,6s9.6-2.1,12.4-7
				L56.6,231.7z"/>
			<polygon id="jacket_x5F_right_2_" clip-path="url(#shirtMask_2_)" fill="#0979BD" points="41,234.7 51,243.7 55,276.7 36,274.2 
				17,259.7 			"/>
			<path id="jacket_x5F_left_2_" clip-path="url(#shirtMask_2_)" fill="#0979BD" d="M70.5,234.2c-0.8,1.5-7,9-7,9L63,277.7l17-4
				l17-14.5l-13.5-23L70.5,234.2z"/>
		</g>
		<g id="head_6_" clip-path="url(#SVGID_6_)">
			<path id="head_7_" fill="#95DAFF" d="M75,215.2c0,10.5-8.5,19-19,19s-19-8.5-19-19s5.3-23,19-23C69.5,192.2,75,204.7,75,215.2z"
				/>
			
				<ellipse id="ear_x5F_right_2_" transform="matrix(0.9643 -0.2649 0.2649 0.9643 -56.1515 17.0115)" fill="#95DAFF" cx="35" cy="216.7" rx="2.5" ry="6"/>
			
				<ellipse id="ear_x5F_left_2_" transform="matrix(-0.9643 -0.2649 0.2649 -0.9643 94.0683 446.0963)" fill="#95DAFF" cx="77.1" cy="216.7" rx="2.5" ry="6"/>
			<circle id="eye_x5F_right_2_" fill="#0979BD" cx="50.3" cy="213.5" r="2.8"/>
			<g>
				<circle id="eye_x5F_left_2_" fill="#0979BD" cx="61.3" cy="213.5" r="2.8"/>
			</g>
		</g>
		<g id="hair_2_" clip-path="url(#SVGID_6_)">
			<path fill="#0979BD" d="M73.5,206.7c0,6.7,0,8,0,9.9c0,4.4-2.4,8.4-6,11.2c-0.7,0.5-1.7,0.2-1.9-0.6c-0.7-2.1-1.6-5.5-3.5-6.5
				c-3.3,0.9-8.4,0.9-13,0c-1.8,1.6-2,4.6-2.5,6.4c-0.3,0.8-1.3,1.1-1.9,0.6c-3.6-2.8-6-6.7-6-11.2c0-0.3,0-6.9,0-8l-2.4,4.6
				c0,0.9,0,2.2,0,5.5c0,8.7,8.9,19,19.9,19s19.9-10.3,19.9-19c0-4.8,0-5.5,0-5.5L73.5,206.7z M51,224.2c1.1,0.6,8.3,0.8,10,0
				c1.3,1.1,0.5,5.5,0.5,5.5c-4.4,2.6-6.4,2.8-11,0C50.5,229.7,49.7,225.3,51,224.2z"/>
			<path fill="#0979BD" d="M67.4,195.3c-3.2-2.2-7.1-3.5-11.4-3.5c-11,0-20,9-20,20c0,0.9,0.1,1.9,0.2,2.8
				C40.9,205.3,57,205.3,67.4,195.3C67.4,195.3,67.4,195.3,67.4,195.3z"/>
			<path fill="#0979BD" d="M64.6,193.7c0,0-0.1,0-0.1,0c0,6.1,2.2,8.2,7,13c2.2,2.2,2,8,2,8l2,1.6c0.3-1.5,0.5-3,0.5-4.6
				C76,203.8,71.4,196.9,64.6,193.7z"/>
			<path id="hairHighlight_2_" fill="#23B0FF" d="M56,197.5c-3.7,0-7.1-0.3-10-0.7c-1.8,1.2-3.4,2.8-4.7,4.6
				c2.3,0.7,5.3,1.2,8.6,1.5c0,0,0.1,0,0.1,0c3.9-1.6,8-3.2,11.6-5.6C59.8,197.5,57.9,197.5,56,197.5z"/>
		</g>
		<g id="collar_2_" clip-path="url(#SVGID_6_)">
			<polygon id="collarLine_x5F_right_2_" fill="#23B0FF" points="40.8,252.7 36.5,233.4 38.5,233 42.2,249.7 51,244.2 52,246.6 			
				"/>
			<polygon id="collarLine_x5F_left_2_" fill="#23B0FF" points="76.4,251.2 62,245.7 63.5,243.7 74.6,248.2 75.5,234.6 77.5,234.8 
							"/>
		</g>
	</g>
	<g id="pump_2_">
		<g id="orange_2_">
			<g id="outline_x5F_orange_4_">
				<path fill="#FAB11C" d="M213.5,6.2c3.9,0,6.7,0.6,9.3,0.9c4.3,0.4,37,5.9,41.7,6.6c2.6,0.4,5,1.3,7.2,2.5
					c7.3,3.5,12.5,10.9,11.8,24.9c-0.9,17.3-3.3,51.1-4.5,67.3l25,11.3l-1.1,12.9l-86.4,24.6l-54.7-37.9l-0.2-12.6l20.5-3.9
					c0-14.2-0.1-50.9-0.1-64c0-21.7,14-29.6,22-31.5C207.7,6.5,210.8,6.2,213.5,6.2 M213.5,0c-3.5,0-7.2,0.4-11.2,1.3
					c-12.4,2.8-26.8,14.3-26.8,37.5c0,11.7,0.1,42,0.1,58.8l-15.5,3l-5.1,1l0.1,5.2l0.2,12.6l0.1,3.2l2.6,1.8l54.7,37.9l2.4,1.7
					l2.8-0.8l86.4-24.6l4.1-1.2l0.4-4.3l1.1-12.9l0.4-4.4l-4-1.8l-21-9.5c1.3-18.4,3.4-47.4,4.2-63.1c1-18.9-7.6-27.1-15.1-30.8
					c-2.8-1.6-5.8-2.6-9-3.1c-2.9-0.5-37.4-6.2-42.1-6.7c-0.6-0.1-1.4-0.2-2.1-0.3C219.2,0.4,216.7,0,213.5,0L213.5,0z"/>
			</g>
			<polygon id="base_x5F_left_2_" fill="#C85224" points="161.3,106.8 161.5,119.4 216.3,157.3 230.9,133.8 			"/>
			<polygon id="base_x5F_right_2_" fill="#D6813C" points="216.5,142.7 216.3,157.3 302.7,132.7 303.8,119.8 253.3,120.1 			"/>
			<polygon id="base_x5F_top_2_" fill="#CF6B30" points="161.3,106.8 216.5,142.7 303.8,119.8 241.3,91.5 			"/>
			<path id="lightSide_2_" fill="#E7BC5A" d="M220.1,131.8l-38.3-23.2c0,0-0.1-53.3-0.1-69.7c0-21.7,14-29.6,22-31.5
				c9.8-2.2,14.8-0.7,19.1-0.3c4.3,0.4,37,5.9,41.7,6.6c11.7,2,19.9,13.3,16,20.7C276.4,41.8,220.1,131.8,220.1,131.8z"/>
			<path id="castShadow_14_" fill="#C85323" d="M190.9,114.1l29.2,17.7c0,0,1.4-2.3,3.8-6.1c1.2-12.5,2.5-30.2,2.5-30.2
				s-10.6-25-10.9-26.6L190.9,114.1z"/>
			<g id="highlgiht_5_">
				<defs>
					<path id="SVGID_7_" d="M220.1,131.8l-38.3-23.2c0,0-0.1-53.3-0.1-69.7c0-21.7,14-29.6,22-31.5c9.8-2.2,14.8-0.7,19.1-0.3
						c4.3,0.4,37,5.9,41.7,6.6c11.7,2,19.9,13.3,16,20.7C276.4,41.8,220.1,131.8,220.1,131.8z"/>
				</defs>
				<clipPath id="SVGID_8_">
					<use xlink:href="#SVGID_7_"  overflow="visible"/>
				</clipPath>
				<path clip-path="url(#SVGID_8_)" fill="#EFD163" d="M180.6,27.4c0.7-0.2,49.2,12.2,49.2,12.2l12.4-17.3l-54.5-10.4L180.6,27.4z"
					/>
			</g>
			<path id="darkSide_2_" fill="#D6813C" d="M220.1,131.8l58.1-14.3c0,0,4-53,5.2-76.2S269.8,13,255.6,13.6
				c-18.3,0.8-32.1,15.2-32.8,36.5C222.2,67.2,220.1,131.8,220.1,131.8z"/>
			<g id="hole_2_">
				<path id="holeBase_2_" fill="#B34B1D" d="M254.2,57.2c8.5-0.4,12.4,8.3,11.4,16.1c-1,7.4-6.6,15.5-14,16.8
					c-6.9,1.2-13.6-4.4-12.7-15.4C239.6,67,246.1,57.5,254.2,57.2z"/>
				<g id="holeHighlight_2_">
					<defs>
						<path id="SVGID_9_" d="M254.2,57.2c8.5-0.4,12.4,8.3,11.4,16.1c-1,7.4-6.6,15.5-14,16.8c-6.9,1.2-13.6-4.4-12.7-15.4
							C239.6,67,246.1,57.5,254.2,57.2z"/>
					</defs>
					<clipPath id="SVGID_10_">
						<use xlink:href="#SVGID_9_"  overflow="visible"/>
					</clipPath>
					<polygon clip-path="url(#SVGID_10_)" fill="#C25D21" points="233.8,77.5 261.7,88.6 269.7,77.3 235.1,64.9 					"/>
				</g>
			</g>
		</g>
		<g id="connector_x5F_right_2_">
			<path id="connector_x5F_right_x5F_base_2_" fill="#1B2E38" d="M180.1,47.8c0,0,12.4-1.8,15.7-2.2c1.9-0.2,7,1.4,8.7,3.6
				c1.8,2.3,10.4,8.8,12.9,27.7c2.7,21.3-4.3,29.4-6.1,32.2c-1.1,1.6-2.8,2.4-5,2.9c-4.2,0.9-11.9,2-11.9,2L180.1,47.8z"/>
			<path id="connector_x5F_right_x5F_dark_2_" fill="#101F26" d="M194.3,113.9c0,0,7.7-1.1,11.9-2c2.2-0.5,4-1.3,5-2.9
				c1.9-2.8,8.9-10.9,6.1-32.2c-0.5-3.9-1.3-7.2-2.2-10.2L185,70.9L194.3,113.9z"/>
		</g>
		<g id="center_2_">
			<path id="center_x5F_base_2_" fill="#D8E1E6" d="M114.9,46.6c0.9-1.3,1.9-1.7,4-1.9c2-0.3,50.7-5.7,53.2-5.8
				c2.5-0.1,7.6,2,10.3,4.5c4,3.8,12.9,11.3,16.4,35.5c3.3,23.1-5,38.5-6.9,42.3c-1.9,3.8-3.7,3.7-6.5,4.5
				c-2.8,0.8-46.8,10.7-48.4,11c-1.7,0.4-5.4,1.3-7.4-1.3C127.5,132.8,114.9,46.6,114.9,46.6z"/>
			<path id="center_x5F_dark_2_" fill="#84A6BD" d="M129.5,135.4c2,2.6,5.8,1.7,7.4,1.3c1.7-0.4,45.6-10.3,48.4-11s4.6-0.7,6.5-4.5
				c1.9-3.8,10.2-19.2,6.9-42.3c-0.8-5.4-1.8-10-3.1-13.9l-76.5,10.4C123,100.6,128.2,133.8,129.5,135.4z"/>
			<path id="castShadow_10_" fill="#385770" d="M191.9,121.2c0.8-1.7,2.9-5.6,4.7-11.4l-44,7.9l13.8,12.4c9.4-2.1,17.8-4.1,19-4.4
				C188.2,124.9,190,125,191.9,121.2z"/>
			<path id="front_x5F_base_2_" fill="#9FB9CC" d="M120.1,44.7c10.2-0.2,19.7,22.6,23,46.3c2.6,18.6,0.7,51.4-13.1,45.4
				c-13.9-6.1-21-44.8-21.6-54.3S107.5,45,120.1,44.7z"/>
			<path id="front_x5F_dark_2_" fill="#4D738C" d="M112.5,85.7c0,0-0.3,7.1-0.7,16.1c3.4,14.2,9.5,30.8,18.2,34.6
				c12.2,5.3,15.1-19.8,13.8-38.6c-3.2-6.4-6.9-13.7-7.1-14.4L112.5,85.7z"/>
		</g>
		<g id="sidePart_2_">
			<path id="mid_2_" fill="#9FB9CC" d="M166.3,127.7l-13.7-10c0,0,1.3-6.9,1.2-14.8c-0.1-8.9-2.5-19.2-2.5-19.2l26.4,0.9
				L166.3,127.7z"/>
			<polygon id="light_5_" fill="#D8E1E6" points="151.3,83.6 171.2,94 204.9,84.2 189.9,77.5 			"/>
			<polygon id="dark_9_" fill="#84A6BD" points="165.9,91.3 204.9,84.2 204.7,119.2 166.3,127.7 			"/>
			<path id="castShadow_6_" fill="#4D738C" d="M162.5,124.8l-11-41.2l-0.2,0c0,0,2.4,10.3,2.5,19.2c0.1,7.8-1.2,14.8-1.2,14.8
				L162.5,124.8z"/>
		</g>
		<g id="connector_x5F_left_2_">
			<path id="connector_x5F_left_x5F_base_2_" fill="#1B2E38" d="M100.7,56.7c0,0,13.8-2,17.5-2.5c2.1-0.3,6.1,1.4,8,4
				c2,2.6,9.4,10.9,12.2,32c3.1,23.7-0.9,31.7-3,34.8c-1.2,1.8-3.1,2.7-5.6,3.3c-4.7,1-13.3,2.2-13.3,2.2L100.7,56.7z"/>
			<path id="connector_x5F_left_x5F_dark_2_" fill="#101F26" d="M116.5,130.5c0,0,8.6-1.2,13.3-2.2c2.5-0.5,4.4-1.5,5.6-3.3
				c2.1-3.1,6.1-11.1,3-34.8c-0.6-4.8-1.5-8.9-2.5-12.4l-29.9,4.2L116.5,130.5z"/>
		</g>
		<g id="blue_2_">
			<path id="light_4_" fill="#0F8DBD" d="M74.4,50.7c1-1.5,2.2-1.9,4.6-2.2c2.4-0.3,12.1-1.5,15.1-1.6c2.8-0.1,6.6,1.4,9.2,4.7
				c2.7,3.4,11.7,14.3,15.7,42.3c3.8,26.7,0,39.5-2.2,43.9c-2.2,4.4-4.3,4.3-7.5,5.2c-3.3,0.9-9.2,2.2-11.1,2.7
				c-1.9,0.4-6.2,1.5-8.6-1.5C87.1,141.1,74.4,50.7,74.4,50.7z"/>
			<path id="dark_7_" fill="#0A5FA3" d="M89.5,144.1c2.4,3,6.6,1.9,8.6,1.5c1.9-0.4,7.8-1.8,11.1-2.7c3.3-0.9,5.3-0.8,7.5-5.2
				c2.2-4.4,6.1-17.1,2.2-43.9c-1-7-2.3-13-3.8-18l-31.8,4.3l9.8,49.4l-4.5,11.3C88.9,142.7,89.3,143.8,89.5,144.1z"/>
			<path id="front_2_" fill="#0C76B0" d="M79.5,49.6c6.6,2.3,18.4,33.5,19.9,56.5c1,15.1,2.7,45.7-9.8,38.8
				c-11-6.1-17.7-45-18.6-54.7C70.2,80.4,66.9,45.1,79.5,49.6z"/>
		</g>
		<g id="outline_x5F_transparent_3_" opacity="0.7">
			<defs>
				<path id="maskShape_5_" opacity="0.7" d="M114.9,46.6c0.9-1.3,1.9-1.7,4-1.9c2-0.3,50.7-5.7,53.2-5.8c2.5-0.1,7.6,2,10.3,4.5
					c4,3.8,12.9,11.3,16.4,35.5c3.3,23.1-5,38.5-6.9,42.3c-1.9,3.8-3.7,3.7-6.5,4.5c-2.8,0.8-46.8,10.7-48.4,11
					c-1.7,0.4-5.4,1.3-7.4-1.3C127.5,132.8,114.9,46.6,114.9,46.6z"/>
			</defs>
			<clipPath id="maskShape_1_">
				<use xlink:href="#maskShape_5_"  overflow="visible"/>
			</clipPath>
			<g clip-path="url(#maskShape_1_)">
				<path fill="#FAB11C" d="M213.5,6.2c3.9,0,6.7,0.6,9.3,0.9c4.3,0.4,37,5.9,41.7,6.6c2.6,0.4,5,1.3,7.2,2.5
					c7.3,3.5,12.5,10.9,11.8,24.9c-0.9,17.3-3.3,51.1-4.5,67.3l25,11.3l-1.1,12.9l-86.4,24.6l-54.7-37.9l-0.2-12.6l20.5-3.9
					c0-14.2-0.1-50.9-0.1-64c0-21.7,14-29.6,22-31.5C207.7,6.5,210.8,6.2,213.5,6.2 M213.5,0c-3.5,0-7.2,0.4-11.2,1.3
					c-12.4,2.8-26.8,14.3-26.8,37.5c0,11.7,0.1,42,0.1,58.8l-15.5,3l-5.1,1l0.1,5.2l0.2,12.6l0.1,3.2l2.6,1.8l54.7,37.9l2.4,1.7
					l2.8-0.8l86.4-24.6l4.1-1.2l0.4-4.3l1.1-12.9l0.4-4.4l-4-1.8l-21-9.5c1.3-18.4,3.4-47.4,4.2-63.1c1-18.9-7.6-27.1-15.1-30.8
					c-2.8-1.6-5.8-2.6-9-3.1c-2.9-0.5-37.4-6.2-42.1-6.7c-0.6-0.1-1.4-0.2-2.1-0.3C219.2,0.4,216.7,0,213.5,0L213.5,0z"/>
			</g>
		</g>
		<g id="outline_x5F_blue_4_">
			<g>
				<path fill="#23B0FF" d="M94.4,46.8c2.8,0,6.3,1.5,8.8,4.7c2,2.5,7.5,9.3,11.9,24.3l0,0c0,0.1,0.1,0.2,0.1,0.3
					c0.2,0.5,0.3,1.1,0.5,1.7c0,0.1,0,0.2,0.1,0.3c0.2,0.6,0.3,1.2,0.5,1.8c0,0.1,0,0.2,0.1,0.2c0.2,0.6,0.3,1.2,0.5,1.9
					c0,0.1,0,0.1,0,0.2c0.2,0.7,0.3,1.3,0.4,2c0,0,0,0.1,0,0.1c0.1,0.7,0.3,1.4,0.4,2.1c0,0,0,0.1,0,0.1c0.1,0.7,0.3,1.5,0.4,2.3
					c0,0,0,0,0,0.1c0.1,0.8,0.3,1.6,0.4,2.4c0,0,0,0,0,0c0.1,0.8,0.3,1.7,0.4,2.5c1.2,8.4,1.7,15.3,1.6,21.1
					c0,12.7-2.3,19.7-3.9,22.7c-0.4,0.8-0.8,1.5-1.2,2c-0.1,0.2-0.3,0.3-0.4,0.5c-0.1,0.1-0.1,0.2-0.2,0.2c-0.3,0.3-0.6,0.5-0.9,0.7
					c-0.2,0.2-0.4,0.3-0.7,0.4c-0.3,0.2-0.6,0.3-0.9,0.4s-0.7,0.2-1,0.3c-0.2,0-0.3,0.1-0.5,0.1c-0.1,0-0.2,0-0.3,0.1
					c-0.2,0-0.4,0.1-0.6,0.1c-0.3,0.1-0.6,0.1-0.9,0.2c-3.3,0.9-9.2,2.2-11.1,2.7c-0.9,0.2-2.3,0.5-3.8,0.5c-0.3,0-0.6,0-0.9,0
					c-0.4,0-0.8-0.1-1.2-0.2c0,0-0.1,0-0.1,0c-0.7-0.1-1.5-0.4-2.3-0.9c-11-6.1-17.7-45-18.6-54.7c-0.8-8.4-3.3-35.7,4.1-40.3
					c0.9-0.8,2-1.1,3.9-1.4c2.4-0.3,12.1-1.5,15.1-1.6C94.2,46.8,94.3,46.8,94.4,46.8 M94.4,40.6c-0.2,0-0.5,0-0.7,0
					c-3.6,0.2-15.4,1.7-15.5,1.7c-2.3,0.3-4.7,0.8-6.8,2.6c-7.1,4.9-9,18.2-6.5,45.5l0,0.3c0.5,5.1,2.4,17.6,5.7,29.8
					c6,22,12,27.6,16.1,29.8c1.2,0.7,2.5,1.2,3.7,1.5l0,0l0,0c0.7,0.2,1.5,0.4,2.3,0.4c0.5,0.1,1,0.1,1.6,0.1c2.2,0,4-0.4,5.1-0.7
					l0.1,0l1-0.2c2.6-0.6,7.4-1.7,10.3-2.5c0.3-0.1,0.5-0.1,0.7-0.2l0.4-0.1l0.2,0l0.1,0l0.1,0c0.2-0.1,0.5-0.1,0.7-0.2
					c0.5-0.1,1-0.3,1.5-0.5c0.6-0.2,1.2-0.5,1.7-0.8c0.5-0.3,0.9-0.5,1.4-0.8c0.6-0.4,1.2-0.9,1.7-1.5c0.1-0.1,0.3-0.3,0.4-0.4
					c0.2-0.3,0.5-0.6,0.7-0.9c0.7-0.9,1.3-1.9,1.8-3c1.7-3.3,4.5-11.1,4.5-25.5c0-6.7-0.6-14.1-1.7-22c-0.1-0.9-0.3-1.8-0.4-2.6l0,0
					l0,0c-0.1-0.8-0.3-1.7-0.4-2.5l0,0l0-0.1c-0.1-0.8-0.3-1.6-0.4-2.4l0,0l0-0.1c-0.2-0.8-0.3-1.5-0.5-2.3l0-0.2
					c-0.2-0.7-0.3-1.4-0.5-2.1l0-0.1l0-0.1c-0.2-0.7-0.3-1.3-0.5-2l0-0.1l0-0.2c-0.2-0.6-0.3-1.2-0.5-1.9l0-0.1l0-0.2
					c-0.2-0.6-0.3-1.2-0.5-1.7l0-0.1l0,0l-0.1-0.2c-4.6-15.7-10.5-23.3-12.8-26.1l-0.2-0.2C104.7,43.4,99.4,40.6,94.4,40.6
					L94.4,40.6z"/>
			</g>
		</g>
	</g>
</g>
</svg>
