<?xml version="1.0" encoding="utf-8"?>
<!-- Generator: Adobe Illustrator 18.1.1, SVG Export Plug-In . SVG Version: 6.00 Build 0)  -->
<!DOCTYPE svg PUBLIC "-//W3C//DTD SVG 1.1//EN" "http://www.w3.org/Graphics/SVG/1.1/DTD/svg11.dtd">
<svg version="1.1" id="assets" xmlns="http://www.w3.org/2000/svg" xmlns:xlink="http://www.w3.org/1999/xlink" x="0px" y="0px"
	 width="311.5px" height="263.4px" viewBox="0 0 311.5 263.4" enable-background="new 0 0 311.5 263.4" xml:space="preserve">
<g>
	<g id="back_2_">
		<defs>
			<path id="backMask_2_" d="M23.3,15.7c47.4-1.5,195.4-6,249.9-8c11.1-0.4,24.4,1.7,23.9,12.8l-23.5,140.1L24.5,214.5
				c0,0-7.7-9.7-7.7-18L9.1,31.1C8.7,22.9,15.1,16,23.3,15.7z"/>
		</defs>
		<clipPath id="backMask_1_">
			<use xlink:href="#backMask_2_"  overflow="visible"/>
		</clipPath>
		<polygon id="back_x5F_side_3_" clip-path="url(#backMask_1_)" fill="#84A6BD" points="4,11.5 311.5,0 297,193 12,224.5 		"/>
		<path id="backHighlight_3_" clip-path="url(#backMask_1_)" fill="#DDDFE2" d="M0,19c1.5,1,27,17.5,27,17.5L31.5,23l-25-9.5L0,19z"
			/>
	</g>
	<path id="base_1_" fill="#D8E1E6" d="M109.9,214.3c-1.2,6.6,0,13.4,3.3,19.2l16.8,29.1c0.3,0.5,0.9,0.8,1.5,0.7l87.5-13.2
		c0.5-0.1,1-0.6,1-1.1v-1c0-0.6-0.4-1.2-0.8-1.5l-35.5-22.8c-5.9-3.8-9.2-10.6-8.4-17.5l1.3-12.1l-64.5,8.5L109.9,214.3z"/>
	<path id="baseShadow_2_" fill="#5F859F" d="M220,248c0-0.1,0-0.2,0-0.2l-87.9,13.6c-0.4,0.1-0.8-0.1-1-0.5L119,240.5l74.5-10.5
		l-9.8-6.3c-5.9-3.8-9.2-10.6-8.4-17.5l1.3-12.1l-64.5,8.5l-2.1,11.8c-1.2,6.6,0,13.4,3.3,19.2l16.8,29.1c0.3,0.5,0.9,0.8,1.5,0.7
		l87.5-13.2c0.5-0.1,1-0.6,1-1.1V248z"/>
	<path id="front_7_" fill="#0F0F0F" d="M28.5,18.1c50.1-1.6,211.2-7.5,257.2-9.2c6.6-0.2,12.1,5.2,11.8,11.9l-7,155.6
		c-0.3,6.4-5.1,11.6-11.5,12.5L36.2,220.4c-6.9,0.9-13-4.3-13.3-11.2L14.2,33.6C13.8,25.3,20.2,18.4,28.5,18.1z"/>
	<path id="logoCircle_2_" fill="#434343" d="M166.3,182.4c3.9-0.1,6,3.1,5.9,6c-0.2,2.8-2.4,5.8-5.8,6.4c-3.1,0.5-6.4-1.6-6.4-5.8
		C160,186.1,162.6,182.6,166.3,182.4z"/>
	<g id="testPattern_2_">
		<g id="colorBars_2_">
			<path fill="#384758" d="M181,129l68.1-6.3l-1.1,39.5l-67.2,7.6L181,129z"/>
			<path fill="#959595" d="M249.1,122.7l13-1.2l-1.2,39.2l-12.9,1.4L249.1,122.7z"/>
			<path fill="#384758" d="M262.1,121.5l24.4-2.3L285,158l-24.1,2.7L262.1,121.5z"/>
			<path fill="#269AC2" d="M264.4,21.1l26.1-1.1l-3.4,86l-25.4,2.2L264.4,21.1z"/>
			<path fill="#CDCDCE" d="M261.7,108.3l25.4-2.2l-0.5,13.2l-25.3,2.4L261.7,108.3z"/>
			<path fill="#FF9B0D" d="M225.6,22.8l38.8-1.7l-2.7,87.1l-37.7,3.3L225.6,22.8z"/>
			<path fill="#246897" d="M223.9,111.5l37.7-3.3l-0.4,13.3l-37.6,3.5L223.9,111.5z"/>
			<path fill="#EB4D4D" d="M185.4,24.6l40.3-1.7l-1.7,88.7l-39.2,3.4L185.4,24.6z"/>
			<path fill="#269AC2" d="M184.8,114.9l39.2-3.4l-0.3,13.5l-39,3.6L184.8,114.9z"/>
			<path fill="#9A5FB8" d="M143.5,26.4l41.9-1.8l-0.6,90.4l-40.7,3.5L143.5,26.4z"/>
			<path fill="#269AC2" d="M144.1,118.4l40.7-3.5l-0.1,13.8l-40.5,3.8L144.1,118.4z"/>
			<path fill="#26B2E3" d="M99.8,28.3l43.6-1.9l0.7,92.1l-42.3,3.7L99.8,28.3z"/>
			<path fill="#86BB40" d="M101.8,122.1l42.3-3.7l0.1,14l-42.1,3.9L101.8,122.1z"/>
			<path fill="#FFC73F" d="M54.4,30.2l45.4-2l2,93.8l-44,3.8L54.4,30.2z"/>
			<path fill="#384758" d="M57.8,125.9l44-3.8l0.3,14.3l-43.8,4.1L57.8,125.9z"/>
			<path fill="#CECECE" d="M25,31.5l29.4-1.3l3.4,95.7l-28.4,2.5L25,31.5z"/>
			<path fill="#015087" d="M29.4,128.4l28.4-2.5l0.5,14.6L30,143.1L29.4,128.4z"/>
			<path fill="#246897" d="M128,134l53-4.9l-0.2,40.7l-52.3,5.9L128,134z"/>
			<path fill="#BDBDBD" d="M69.4,139.4L128,134l0.5,41.6l-57.7,6.5L69.4,139.4z"/>
			<path fill="#249AE9" d="M30,143.1l39.4-3.7l1.4,42.7L32,186.5L30,143.1z"/>
		</g>
		<g id="browser_2_">
			<path id="browserBG2_2_" fill="#C4C4C4" d="M25,31.5L290.5,20l-1.1,27.7l-263,15.1L25,31.5z"/>
			<path id="toolbar2_2_" fill="#ECEAEC" d="M29.7,38l-2,6.2c-0.1,0.4-0.5,1-0.7,1.3l-0.8,0.8c-0.2,0.3-0.5,0.9-0.5,1.3l0.7,15.2
				l263-15.1l0.6-14.8l-186.1,9.3c-0.3,0-0.8-0.3-1-0.6l-2.9-6.9c-0.2-0.5-0.9-1-1.5-0.9l-67.4,3.1C30.6,36.9,29.9,37.4,29.7,38z"/>
			<path id="inputField2_2_" fill="#FFFFFF" d="M92.2,47.1c0-0.4,0.3-0.7,0.7-0.8l193.8-10c0.3,0,0.6,0.3,0.6,0.6l-0.3,6.9
				c0,0.3-0.3,0.7-0.6,0.7L93.1,55.3c-0.3,0-0.7-0.3-0.7-0.7L92.2,47.1z"/>
			<path id="Ellipse4_2_" fill="#CCCCCC" d="M35.6,53.9c-0.1-2.3,1.7-4.3,4-4.5c2.3-0.1,4.3,1.7,4.4,4c0.1,2.3-1.7,4.3-4,4.5
				C37.7,58.1,35.7,56.3,35.6,53.9z"/>
			<path id="Ellipse5_2_" fill="#CCCCCC" d="M51.2,53.1c-0.1-2.3,1.7-4.3,4-4.4c2.3-0.1,4.2,1.7,4.3,4c0.1,2.3-1.7,4.3-4,4.4
				C53.2,57.2,51.3,55.4,51.2,53.1z"/>
			<path id="Ellipse6_2_" fill="#CCCCCC" d="M66.6,52.3c-0.1-2.3,1.7-4.3,4-4.4c2.3-0.1,4.1,1.7,4.2,4c0.1,2.3-1.7,4.3-3.9,4.4
				C68.6,56.3,66.7,54.6,66.6,52.3z"/>
		</g>
		<g id="balloons_2_">
			<g opacity="0.502">
				<path d="M146.2,96.9l0.3,52.5l40.5-4.1l15.1,14.4l0.2-15.9l7.9-0.8l0.8-51L146.2,96.9z"/>
				<path d="M181.3,63.5l-0.3,52.7l-41.1,3.6l-16.1,18.3l-0.2-16.8l-8.6,0.8L114,67.6L181.3,63.5z"/>
			</g>
			<path fill="#FFFFFF" d="M176.8,68.5l-58,3.7l0.7,44.6l8.6-0.7l0.1,10.1l9.7-11l8.5-0.7l-0.1-17.6l30.5-2.3L176.8,68.5z"/>
			<path fill="#FFFFFF" d="M150.8,101.3l0.2,43.1l37.9-3.8l9.1,8.7l0.1-9.6l7.9-0.8l0.6-42L150.8,101.3z"/>
		</g>
	</g>
</g>
</svg>
