<?xml version="1.0" encoding="utf-8"?>
<!-- Generator: Adobe Illustrator 18.1.1, SVG Export Plug-In . SVG Version: 6.00 Build 0)  -->
<!DOCTYPE svg PUBLIC "-//W3C//DTD SVG 1.1//EN" "http://www.w3.org/Graphics/SVG/1.1/DTD/svg11.dtd">
<svg version="1.1" id="assets" xmlns="http://www.w3.org/2000/svg" xmlns:xlink="http://www.w3.org/1999/xlink" x="0px" y="0px"
	 width="250.6px" height="253px" viewBox="0 0 250.6 253" enable-background="new 0 0 250.6 253" xml:space="preserve">
<g>
	<g id="circle_2_">
		<path id="highlight_x5F_back_2_" fill="#FF5E5E" d="M20,195.5C11.2,177,4.2,162,2.5,149.5C0.2,132.9-7.7,99.4,25,50.5
			C53.7,7.5,108,0,120.5,0s39,2.5,55.5,9.5C162.7,36,128.5,142,128.5,142L20,195.5z"/>
		<path id="whiteBG_2_" fill="#FFFFFF" d="M133.4,17.6c70.5-2.7,108.7,55.7,105.7,109c-2.8,50.6-43.9,105.3-104.6,114.7
			C78.4,250,18.4,211.5,19,136.9C19.4,84.7,66.1,20.1,133.4,17.6z"/>
		<path id="castShadow_15_" fill="#D2DDE7" d="M37,157.1C37.3,108.7,80.7,49,143,46.6c54.5-2.1,88.2,35.3,96.3,76.4
			c1.1-52.3-37-108.1-105.9-105.4C66.1,20.1,19.4,84.7,19,136.9c-0.3,39.7,16.5,69.1,40.7,86.7C45.7,207.3,36.8,184.9,37,157.1z"/>
		<path id="frontHighlight_2_" fill="#FF5E5E" d="M133.4,17.6C66.1,20.1,19.4,84.7,19,136.9C18.4,211.5,78.4,250,134.5,241.3
			c60.8-9.4,101.8-64.1,104.6-114.7C242.1,73.3,203.9,14.9,133.4,17.6z M223.5,122c-2.5,45.4-39.4,94.5-93.9,102.9
			C79.3,232.7,25.5,198.2,26,131.2c0.3-46.8,42.3-104.7,102.6-107C191.9,21.8,226.2,74.2,223.5,122z"/>
		<path id="dark_x5F_front_2_" opacity="0.9" fill="#A82525" d="M222.9,63.5c-17.9-13.3-45.8-34.1-57.7-42.7
			c-1.9-0.5-3.8-0.9-5.7-1.3c-0.1,2-0.4,5-0.8,8c39.8,11.1,62.6,47.3,64.7,83.5l15,6.4l0.1-8.9C236.8,92.8,231.5,77.2,222.9,63.5z"
			/>
		<path id="dark_x5F_back_2_" opacity="0.9" fill="#BB3737" d="M26.5,145L0.1,128.5c0.4,8.7,1.7,15.7,2.4,21
			c1.7,12.5,8.8,27.5,17.5,46l6.9-3.4C26.8,171.1,26.5,145,26.5,145z"/>
		<path id="front_10_" fill="#D63E3E" d="M133.3,3.9C58.8,6.7,7,78.2,6.6,136C6,218.7,72.4,261.3,134.5,251.7
			c67.3-10.4,112.8-71,115.9-127.1C253.8,65.6,211.4,0.9,133.3,3.9z M233,127.3c-2.6,46.9-40.6,97.5-97,106.2
			c-52,8-107.5-27.6-107-96.7C29.3,88.4,72.7,28.7,135,26.3C200.3,23.8,235.7,77.9,233,127.3z"/>
	</g>
	<g id="exclamation_2_">
		<path id="castShadow_13_" fill="#D2DDE7" d="M146.5,80.7l8,14l-5.3,79.2l-4.7,0.7l6.7,11.2v19.7l-19.5,2.2l-9.5-17.5l-0.2-4.3
			l6.8-21.3c0,0-3.7-4.5-3.7-5.2c0-0.7-3.5-79.5-3.5-79.5L146.5,80.7z"/>
		<polygon fill="#EE4545" points="119.2,165 119.5,184.8 125.8,191.7 136.7,184.2 130.8,167.8 		"/>
		<polygon fill="#EE4545" points="116.7,73 121.7,152.7 128.5,158.5 134.8,152.5 127.7,75.7 		"/>
		<path fill="#FF6464" d="M116.7,73c0.5,0.2,9.8,5.8,9.8,5.8l22-2.3l-7.3-4L116.7,73z"/>
		<polygon fill="#FF6464" points="119.2,165 129.8,175.2 145.5,169.5 138.5,163.3 		"/>
		<polygon id="castShadow_x5F_square_2_" opacity="0.6" fill="#BC3737" points="130.2,164 139,172.5 145.5,169.5 138.5,163.3 		"/>
		<polygon fill="#D63E3E" points="124,77.5 148.5,76.5 143.5,157.5 128.5,158.5 		"/>
		<polygon fill="#D63E3E" points="125.8,171.8 145.5,169.5 145.3,189.2 125.8,191.7 		"/>
	</g>
</g>
</svg>
