<?xml version="1.0" encoding="utf-8"?>
<!-- Generator: Adobe Illustrator 18.1.1, SVG Export Plug-In . SVG Version: 6.00 Build 0)  -->
<!DOCTYPE svg PUBLIC "-//W3C//DTD SVG 1.1//EN" "http://www.w3.org/Graphics/SVG/1.1/DTD/svg11.dtd">
<svg version="1.1" id="assets" xmlns="http://www.w3.org/2000/svg" xmlns:xlink="http://www.w3.org/1999/xlink" x="0px" y="0px"
	 width="299.5px" height="250.5px" viewBox="0 0 299.5 250.5" enable-background="new 0 0 299.5 250.5" xml:space="preserve">
<g>
	<g id="dottedLine_4_" opacity="0.5">
		<path fill="#647A99" d="M0.3,39.5L0.3,39.5L0.3,39.5L0.3,39.5L0.3,39.5L0.3,39.5L0.3,39.5C0.3,39.5,0.3,39.5,0.3,39.5L0.3,39.5
			L0.3,39.5L0.3,39.5L0.3,39.5L0.3,39.5c-0.1,0.3-0.2,3.5-0.2,9c0,0,0,0,0,0c0,0,0,0,0,0c0,0,0,0,0,0c0,0,0,0,0,0c0,0,0,0,0,0
			c0,0,0,0,0,0c0,0,0,0,0,0c0,0,0,0.1,0,0.1c0,0,0,0,0,0c0,0,0,0,0,0.1c0,0,0,0,0,0c0,0,0,0,0,0c0,0,0,0,0,0c0,0,0,0,0,0.1
			c0,0,0,0,0,0c0,0,0,0,0,0.1c0,0,0,0,0,0c0,0,0,0,0,0c0,0,0,0,0,0c0,0,0,0,0,0c0,0,0,0,0,0c0,0.1,0,0.2,0,0.3c0,0,0,0,0,0
			c0,0,0,0,0,0c0,0,0,0,0,0c0,0.1,0,0.2,0,0.2c0,0,0,0,0,0c0,0,0,0,0,0c0,0,0,0,0,0c0,0,0,0,0,0c0,0,0,0,0,0c0,0,0,0,0,0
			c0,0,0,0,0,0c0,0,0,0,0,0c0,0,0,0,0,0c0,0,0,0,0,0.1c0,0,0,0,0,0c0,0,0,0,0,0c0,0,0,0,0,0c0,0,0,0,0,0c0,0,0,0,0,0.1
			c0,0,0,0.1,0,0.1c0,0,0,0,0,0c0,0,0,0,0,0c0,0,0,0,0,0c0,0,0,0,0,0c0,0,0,0,0,0c0,0,0,0,0,0c0,0,0,0,0,0c0,0,0,0,0,0c0,0,0,0,0,0
			c0,0,0,0,0,0c0,0,0,0,0,0c0,0,0,0,0,0c0,0,0,0,0,0c0,0,0,0,0,0c0,0,0,0,0,0c0,0,0,0,0,0c0,0,0,0,0,0s0,0,0,0c0,0.1,0,0.1,0,0.2
			c0,0,0,0,0,0c0,0,0,0,0,0.1c0,0,0,0,0,0c0,0.1,0,0.2,0,0.4c0,0,0,0,0,0c0,0,0,0.1,0,0.1c0,0,0,0,0,0c0,0,0,0.1,0,0.1c0,0,0,0,0,0
			c0,2,0,4.2,0,6.6v0c0,0.1,0,0.1,0,0.2c0,0,0,0,0,0c0,0.4,0,0.9,0,1.3c0,0,0,0,0,0c0,0.1,0,0.2,0,0.3v0c0,0.3,0,0.6,0,0.8v0
			c0,0,0,0.1,0,0.1c0,0,0,0,0,0c0,0.1,0,0.1,0,0.2c0,0,0,0,0,0C0,61,0,61,0,61v0c0,0.4,0,0.7,0,1.1v0c0,0.2,0,0.5,0,0.7c0,0,0,0,0,0
			c0,0.1,0,0.2,0,0.3c0,0,0,0,0,0c0,0,0,0.1,0,0.1c0,0,0,0,0,0c0,0,0,0,0,0.1c0,0,0,0,0,0c0,0,0,0,0,0c0,0,0,0,0,0.1
			c0,0.2,0,0.5,0,0.7v0c0,0.1,0,0.1,0,0.2c0,0,0,0,0,0c0,0.2,0,0.3,0,0.5c0,0,0,0,0,0c0,0.2,0,0.5,0,0.7c0,0,0,0,0,0
			c0,0.1,0,0.1,0,0.2v0c0,0,0,0,0,0c0,0,0,0,0,0c0,0,0,0.1,0,0.1c0,0,0,0,0,0c0,0,0,0,0,0c0,0,0,0,0,0c0,0,0,0,0,0c0,0,0,0,0,0
			c0,0,0,0,0,0.1c0,0,0,0,0,0.1c0,0,0,0,0,0c0,0,0,0,0,0.1c0,0,0,0,0,0c0,0,0,0.1,0,0.1c0,0,0,0,0,0c0,0,0,0,0,0c0,0,0,0.1,0,0.1v0
			c0,0,0,0,0,0c0,0,0,0,0,0c0,0,0,0,0,0c0,0,0,0,0,0C0,66.9,0,67,0,67c0,0,0,0,0,0c0,0.1,0,0.1,0,0.2l0,0c0,0.1,0,0.2,0,0.3
			c0,0,0,0,0,0c0,0,0,0.1,0,0.1c0,0,0,0,0,0c0,0,0,0,0,0c0,0,0,0.1,0,0.1c0,0,0,0,0,0c0,0,0,0.1,0,0.1c0,0,0,0,0,0.1v0
			c0,0,0,0,0,0.1c0,0,0,0.1,0,0.1c0,0,0,0,0,0c0,0,0,0.1,0,0.1c0,0,0,0,0,0c0,0,0,0,0,0.1c0,0,0,0,0,0.1c0,0,0,0,0,0
			c0,0.1,0,0.2,0,0.2v0c0,0,0,0,0,0c0,0,0,0,0,0c0,0.1,0,0.1,0,0.2c0,0,0,0,0,0c0,0,0,0,0,0.1c0,0,0,0,0,0c0,0,0,0.1,0,0.1
			c0,0,0,0.1,0,0.1c0,0,0,0,0,0c0,0,0,0,0,0c0,0,0,0,0,0c0,0.1,0,0.1,0,0.2l7,0c0-11.7,0.1-18.7,0.1-23l6.5,0l0-7l-11.8,0h0H1.8
			c0,0,0,0,0,0h0h0h0c0,0,0,0,0,0l-0.1,0c0,0,0,0,0,0h0c0,0,0,0,0,0h0c0,0,0,0,0,0h0c0,0,0,0,0,0l0,0c0,0,0,0,0,0h0c0,0,0,0,0,0h0
			c0,0,0,0,0,0H1.5c0,0,0,0,0,0h0c0,0,0,0,0,0h0c0,0,0,0,0,0h0c0,0,0,0,0,0h0c0,0,0,0,0,0h0c0,0,0,0,0,0h0c0,0,0,0,0,0h0
			c0,0,0,0,0,0h0c0,0,0,0,0,0h0c0,0,0,0,0,0h0c0,0,0,0,0,0h0c0,0,0,0-0.1,0h0c0,0,0,0,0,0h0c0,0,0,0,0,0h0c0,0,0,0,0,0h0
			c0,0,0,0,0,0h0c0,0,0,0,0,0h0c0,0,0,0,0,0h0c0,0,0,0,0,0h0c0,0,0,0,0,0h0c0,0,0,0,0,0h0c0,0,0,0,0,0h0c0,0,0,0,0,0h0
			c0,0,0,0-0.1,0h0c0,0,0,0,0,0h0c0,0-0.1,0-0.1,0h0c0,0,0,0-0.1,0h0c0,0,0,0-0.1,0h0C0.5,39.5,0.3,39.5,0.3,39.5L0.3,39.5L0.3,39.5
			L0.3,39.5L0.3,39.5L0.3,39.5L0.3,39.5L0.3,39.5L0.3,39.5L0.3,39.5L0.3,39.5L0.3,39.5L0.3,39.5L0.3,39.5L0.3,39.5z M0,84.5
			c0,9.2,0,19.4,0,30l7,0c0-10.6,0-20.8,0-30L0,84.5L0,84.5z M7,129.5l-7,0c0,2,0,4,0,6c0,0.1,0,0.1,0,0.2c0,0,0,0,0,0
			c0,7.9,0,15.9,0,23.8l7,0C7.1,149.5,7,139.4,7,129.5L7,129.5z M7.1,174.5l-7,0c0,4.5,0,8.9,0,13.2c0,0,0,0,0,0c0,0,0,0,0,0.1
			c0,0,0,0,0,0c0,0.1,0,0.3,0,0.4v0c0,0,0,0,0,0.1c0,0.1,0,0.2,0,0.3c0,0,0,0.1,0,0.1c0,2.9,0,5.8,0,8.5c0,0,0,0,0,0c0,0,0,0,0,0v0
			c0,0,0,0.1,0,0.1c0,0.1,0,0.1,0,0.2c0,0,0,0,0,0.1c0,0.1,0,0.1,0,0.2c0,0,0,0,0,0c0,2.3,0,4.5,0,6.7l7,0
			C7.2,195.2,7.1,185.1,7.1,174.5L7.1,174.5z M7.2,219.5l-7,0c0,3.5,0,6.9,0,9.9c0,0,0,0,0,0c0,0,0,0,0,0.1c0,0,0,0,0,0c0,0,0,0,0,0
			c0,0,0,0,0,0c0,0.2,0,0.4,0,0.6c0,0,0,0,0,0c0,0,0,0,0,0c0,0,0,0,0,0c0,0,0,0,0,0c0,0,0,0,0,0c0,0,0,0.1,0,0.1c0,0.1,0,0.1,0,0.2
			c0,0,0,0,0,0c0,0,0,0,0,0c0,0,0,0,0,0c0,3.1,0,6,0,8.4v0c0,0,0,0,0,0c0,0,0,0,0,0c0,0.2,0,0.3,0,0.5c0,0,0,0,0,0c0,0,0,0,0,0
			c0,0,0,0,0,0c0,0.1,0,0.1,0,0.2c0,0,0,0,0,0c0,0.1,0,0.1,0,0.2v0c0,0,0,0,0,0v0c0,0,0,0,0,0v0c0,0.1,0,0.1,0,0.2v0
			c0,0,0,0.1,0,0.1c0,0,0,0,0,0c0,0,0,0.1,0,0.1c0,0,0,0.1,0,0.1c0,0,0,0,0,0c0,0.1,0,0.2,0,0.3c0,0,0,0,0,0c0,0.1,0,0.2,0,0.3
			c0,0,0,0,0,0c0,0,0,0,0,0.1v0c0,0,0,0,0,0c0,0,0,0.1,0,0.1c0,0,0,0,0,0c0,0.1,0,0.1,0,0.2c0,0,0,0,0,0c0,0,0,0,0,0c0,0,0,0,0,0
			c0,0,0,0,0,0c0,0.1,0,0.2,0,0.2c0,0,0,0,0,0c0,3.6,0,6.2,0,7.5l7,0C7.3,246.2,7.3,235,7.2,219.5L7.2,219.5z M44.3,243.5h-30v7h30
			V243.5L44.3,243.5z M89.3,243.5h-30v7h30V243.5L89.3,243.5z M134.3,243.5h-30v7h30V243.5L134.3,243.5z M179.3,243.5h-30v7h30
			V243.5L179.3,243.5z M194,220.2h-7v30h7V220.2L194,220.2z M194,175.2h-7v30h7V175.2L194,175.2z M194,130.2h-7v30h7V130.2
			L194,130.2z M189.2,87.2l-4.9,5l2.8,2.8v20.3h7V92l0,0l0,0l0,0l0,0l0,0l0,0l0,0l0,0l0,0l0,0l0,0l0,0c0,0-0.1-0.1-0.2-0.2l0,0
			c0,0,0,0,0-0.1l0,0c0,0,0,0-0.1-0.1l0,0c0,0,0,0-0.1-0.1l0,0c0,0,0,0,0,0l0,0c0,0,0,0,0,0l0,0l0,0l0,0c0,0,0,0,0,0l0,0
			c0,0,0,0,0,0l0,0c0,0,0,0,0,0l0,0l0,0l0,0c0,0,0,0,0,0l0,0c0,0,0,0,0,0l0,0c0,0,0,0,0,0l0,0c0,0,0,0,0,0l0,0c0,0,0,0,0,0l0,0
			c0,0,0,0,0,0l0,0c0,0,0,0,0,0l0,0c0,0,0,0,0,0l0,0l0,0l0,0l0,0l0,0c0,0,0,0,0,0l0,0c0,0,0,0,0,0l0,0c0,0,0,0,0,0l-0.2-0.2
			c0,0,0,0,0,0L193,91c0,0,0,0,0,0L189.2,87.2L189.2,87.2z M157.3,55.4l-4.9,5l21.2,21.2l4.9-5c0,0-4.6-4.6-9.5-9.5l0,0c0,0,0,0,0,0
			L157.3,55.4L157.3,55.4z M118.7,39.9l0,7L139,47l2.7,2.7l4.9-5L142,40l0,0l0,0l0,0l0,0l0,0l0,0l0,0l0,0l0,0l0,0l0,0l0,0l0,0
			L118.7,39.9L118.7,39.9z M73.7,39.8l0,7l30,0.1l0-7c0,0-8.2,0-16-0.1h0c0,0,0,0-0.1,0h0c0,0,0,0-0.1,0L73.7,39.8L73.7,39.8z
			 M28.7,39.6l0,7l30,0.1l0-7L28.7,39.6L28.7,39.6z"/>
	</g>
	<g id="magnifyingGlass_2_">
		<g id="lens_3_">
			<path id="bottom_x5F_baseColor_2_" fill="#84A6BD" d="M239.5,90.7c0,0,3.4,10.6,0,20.3c-14.5,41.9-47.7,60.5-82.5,60.5
				c-42.4,0-77.3-31.4-82-71.5c-0.4-3-2-16.5-2-16.5L88.5,120c0,0,21.5,32.5,71,37.5c44.5-2.3,69.5-35,69.5-35L239.5,90.7z"/>
			<path id="inner_x5F_baseColor_2_" fill="#84A6BD" d="M81.5,98.1C81.5,57.8,114.7,26,156,26c39.2,0,75,31.8,75,72.1
				c0,9.5-1.4,18.2-4.1,26c8.9-12.1,14.1-27.4,14.1-45.3c0-41.8-39.1-74.7-82.1-74.7c-45.2,0-81.6,32.9-81.6,74.7
				c0,8.5,1.5,16.7,4.3,24.3C81.6,101.5,81.5,99.8,81.5,98.1z"/>
			<path id="inner_x5F_dark_2_" fill="#5C829C" d="M163.8,4.2c-1.6-0.1-3.2-0.1-4.8-0.1c-1.6,0-3.1,0-4.7,0.1l-13.2,1.7
				c-7.6,1.5-14.9,4-21.5,7.4l-18.1,12.3c-2.3,2.1-4.4,4.2-6.4,6.5l1.1,22.7C109.8,37.2,131.5,26,156,26c1.6,0,3.2,0.1,4.8,0.2
				L163.8,4.2z"/>
			<path id="bottom_x5F_dark_2_" fill="#5C829C" d="M134.4,168.4c7.2,2,14.7,3.1,22.6,3.1c34.8,0,68-18.6,82.5-60.5
				c0.3-0.8,0.5-1.5,0.7-2.3l-13.7,17.8l-25.5,22l-30,8.5l-34.7-4.3L134.4,168.4z"/>
			<path id="lens_6_" opacity="0.6" fill="#E3F1FF" d="M235.2,88.1c0,44.8-35.2,68.4-77.7,68.4s-76-29.2-76-68.4
				s34.2-70.2,76.6-70.2C198.4,17.9,235.2,48.8,235.2,88.1z"/>
			<path id="front_5_" fill="#D8E1E6" d="M159,0c-47.6,0-86,34.7-86,78.8s38.4,80.8,86,80.8s86.5-30.5,86.5-80.8
				C245.5,34.7,204.2,0,159,0z M159,152.6c-43.5,0-78.6-33.5-78.6-73.8s35.1-72,78.6-72c41.4,0,79.1,31.7,79.1,72
				C238.1,124.8,202.6,152.6,159,152.6z"/>
		</g>
		<g id="connector_3_">
			<path fill="#D8E1E6" d="M221,141.6c0.3,0.3,4.7,5.7,4.7,5.7l-17.6,14.8c0,0-4-5-4.6-5.7c-0.6-0.7,2.8-4.6,7.6-8.7
				S220.4,140.9,221,141.6z"/>
			<path fill="#FFFFFF" d="M214.4,145l5.9,6.8l2.1-1.8l-5.7-6.6C216,143.9,215.2,144.4,214.4,145z"/>
			<path fill="#84A6BD" d="M205.8,152.6c-1.8,1.9-2.7,3.4-2.4,3.8c0.6,0.7,4.6,5.7,4.6,5.7l3.4-2.9L205.8,152.6z"/>
			
				<ellipse transform="matrix(0.7656 -0.6433 0.6433 0.7656 -48.6537 175.7391)" fill="#84A6BD" cx="216.9" cy="154.6" rx="11.5" ry="1.8"/>
			<path fill="#4D738C" d="M215.9,153.1c-0.1,0.1-0.2,0.1-0.2,0.2c-4.9,4.1-8.3,8-7.7,8.8c0.6,0.7,5.1-2,10-6.1
				c0.2-0.2,0.4-0.3,0.5-0.5C217.8,154.9,216.8,153.9,215.9,153.1z"/>
			<path fill="#D8E1E6" d="M223.8,150.5c0.2,0.3,7.7,9,7.7,9l-12,10.5c0,0-7.3-8.8-7.8-9.3s1.9-3.3,5.2-6.1
				C220.3,151.8,223.3,150,223.8,150.5z"/>
			<path fill="#FFFFFF" d="M218.7,153.2l8.7,9.9l1.6-1.4l-8.5-9.8C219.9,152.3,219.3,152.7,218.7,153.2z"/>
			<path fill="#84A6BD" d="M221.7,168.1l-8.5-9.9c-1.1,1.2-1.7,2.2-1.4,2.5c0.5,0.5,7.8,9.3,7.8,9.3L221.7,168.1z"/>
		</g>
		<g id="handle_2_">
			<defs>
				<path id="maskShape_2_" d="M242.1,161.1c-1.2-1.5-3-2.4-5-2.5l-3.4-0.2c-0.7,0-1.4,0.1-2.1,0.4c-1.4,0.7-4.1,2.1-6.7,4.2
					c-2.6,2.2-4.4,4.5-5.3,5.8c-0.4,0.6-0.7,1.3-0.8,2l-0.3,3.6c-0.2,1.9,0.4,3.7,1.6,5.1l53.2,63c1,1.1,2.3,1.9,3.8,2.1l3.6,0.5
					c1.4,0.2,2.7-0.1,3.9-0.8c1.5-0.8,3.5-2.1,5.6-3.9c2.1-1.8,3.8-3.6,4.8-4.9c0.9-1,1.4-2.3,1.4-3.7c0.1-1.1,0.1-2.4,0.2-3.6
					c0.1-1.5-0.4-3-1.4-4.2L242.1,161.1z"/>
			</defs>
			<clipPath id="maskShape_1_">
				<use xlink:href="#maskShape_2_"  overflow="visible"/>
			</clipPath>
			<polygon id="base_4_" clip-path="url(#maskShape_1_)" fill="#015087" points="215.5,175 237.5,156 299.5,226 276,247.5 			"/>
			<path id="highlgiht_2_" clip-path="url(#maskShape_1_)" fill="#018AE6" d="M232,167l55.3,64.9c0.7,0.9,2,0.9,2.9,0.2
				c0.7-0.7,1.4-1.3,2-1.9c0.8-0.7,0.8-1.9,0.1-2.7l-55.1-64.6c-0.7-0.8-1.8-0.9-2.7-0.4c-0.7,0.5-1.5,1-2.2,1.6
				C231.4,164.8,231.2,166.1,232,167z"/>
			<polygon id="dark_2_" clip-path="url(#maskShape_1_)" fill="#01406B" points="216,176.5 224,168 285,240.5 275,247 			"/>
			<path id="bottom_2_" clip-path="url(#maskShape_1_)" fill="#014473" d="M297,226.1c-0.1,1.1-4.4,5.5-10.1,10.3
				c-5.6,4.7-10.5,8.1-11.8,8.2l5.7,0.7c1.4,0.2,2.7-0.1,3.9-0.8c1.5-0.8,3.5-2.1,5.6-3.9c2.1-1.8,3.8-3.6,4.8-4.9
				c0.9-1,1.3-2.3,1.4-3.6L297,226.1L297,226.1z"/>
			<path id="top_2_" clip-path="url(#maskShape_1_)" fill="#015C9C" d="M227.9,166.5c5.6-4.7,10.8-8,12.2-7.7l0,0l-6.4-0.4
				c-0.7,0-1.4,0.1-2.1,0.4c-1.4,0.7-4.1,2.1-6.7,4.2c-2.6,2.2-4.4,4.5-5.3,5.8c-0.4,0.6-0.7,1.3-0.8,2l-0.6,6
				C218.6,175.3,222.6,171,227.9,166.5z"/>
		</g>
	</g>
</g>
</svg>
