<?xml version="1.0" encoding="utf-8"?>
<!-- Generator: Adobe Illustrator 18.1.1, SVG Export Plug-In . SVG Version: 6.00 Build 0)  -->
<!DOCTYPE svg PUBLIC "-//W3C//DTD SVG 1.1//EN" "http://www.w3.org/Graphics/SVG/1.1/DTD/svg11.dtd">
<svg version="1.1" id="assets" xmlns="http://www.w3.org/2000/svg" xmlns:xlink="http://www.w3.org/1999/xlink" x="0px" y="0px"
	 width="246.5px" height="269.7px" viewBox="0 0 246.5 269.7" enable-background="new 0 0 246.5 269.7" xml:space="preserve">
<g>
	<g id="cover_2_">
		<defs>
			<path id="coverMask_2_" d="M54.5,189.5l30.3-4.3l1.8-1l1,1.5L216,213c5.3,1.1,10.4-2.7,10.8-8.1l14.4-179.8
				c0.5-6.2-4.2-11.7-10.5-12L84.8,5.3L47.3,6.7l-34.8,21c-4.7,2.8-5.6,6.7-5.3,12.2L19.1,263c0.1,0.9,0.8,1.7,1.8,1.7h1.8
				c1,0,1.9-0.6,2.3-1.6L54.5,189.5z"/>
		</defs>
		<clipPath id="coverMask_1_">
			<use xlink:href="#coverMask_2_"  overflow="visible"/>
		</clipPath>
		<path id="coverFill_3_" clip-path="url(#coverMask_1_)" fill="#2E99E4" d="M15.5,267.3c0,0,10,1,10,0.3S56.3,191,56.3,191l29.5-4
			l144,32.5L246.5,9l-160-9L43.8,2.3L0,31.5L15.5,267.3z"/>
		<path id="castShadow_x5F_cover_2_" clip-path="url(#coverMask_1_)" fill="#1083D1" d="M81.5,12.8l2.6,3.9l1.7,5.1
			c0,0,1.5,1.3,5.3,4c4.3,3.1,4,13.8-3.8,9.9c0.2,3.6,0,9.5,0,18c12.9,5.5,14.1,14.6,13.3,18.8c3.3,4.9,46.5,69.4,64.1,95.8
			c4.8,7.2,7.6,16.8,7.5,25.5l-0.2,14L54,192.3L49,6.5L56.8,17L81.5,12.8z"/>
		<polygon id="coverCrease_11_" clip-path="url(#coverMask_1_)" fill="#0573BD" points="49,4 83.8,4.5 86.3,191.5 53,191 		"/>
		<path id="cover_x5F_darkSide_2_" clip-path="url(#coverMask_1_)" fill="#04548A" d="M48.8,7.2L16,27.6c-3.4,2.1-5.3,5.9-5.1,9.8
			l11.8,231.9l1.8,0.3L54.8,192L48.8,7.2z"/>
		<polygon id="coverCrease_3_" display="none" clip-path="url(#coverMask_1_)" fill="#0573BD" points="82.4,3.6 83.8,4.5 
			86.3,191.5 84.8,188.8 		"/>
	</g>
	<g id="spine_2_">
		<defs>
			<path id="spineMask_2_" d="M52.6,13.9c0.3-0.4,28.9-1,28.9-1s1.9,166.9,1.9,169.5c-3.6,3.6-23.3,5.5-25.9,2.1
				C57.4,180.5,52.6,13.9,52.6,13.9z"/>
		</defs>
		<clipPath id="spineMask_1_">
			<use xlink:href="#spineMask_2_"  overflow="visible"/>
		</clipPath>
		<path id="spineFill_2_" clip-path="url(#spineMask_1_)" fill="#929EB0" d="M51.2,11.3c0.7,0.3,31.3-0.7,31.3-0.7l2,174L56,187.2
			L51.2,11.3z"/>
		<path id="tabCutout_2_" clip-path="url(#spineMask_1_)" fill="#1B2E38" d="M64.6,188.4c0,0,0-3.4,0.1-5.4c5.1,0,10.8-0.4,14.4-1.9
			c0,1.3,0,3.9,0,3.9L64.6,188.4z"/>
		<polygon id="sideHighlight_2_" opacity="0.5" clip-path="url(#spineMask_1_)" fill="#CAD2DE" points="54.3,10.5 59,187.5 
			55.3,184.8 51.8,10 		"/>
		<polygon id="side_x5F_dark_2_" display="none" clip-path="url(#spineMask_1_)" fill="#4D738C" points="82.8,11 87.5,188 82.3,185 
			80.3,10.5 		"/>
		<polygon id="spineHighlight_3_" clip-path="url(#spineMask_1_)" fill="#DDDFE2" points="48.7,11.8 55.8,14.8 80,13.8 83,11.8 		
			"/>
	</g>
	<g id="tab_x5F_bottom_2_">
		<defs>
			<path id="SVGID_1_" d="M65.5,186.9c0-0.5,0-1.4,0-1.9c5.3,0.3,11.3-0.8,13.1-1.8l-0.1,3.3c0,0,0.5,0.8,0.8,1.3s0.2,1.5,0.2,2.5
				c0,2.3-8,5-10.7-0.2C66.5,187.9,65.5,186.9,65.5,186.9z"/>
		</defs>
		<use xlink:href="#SVGID_1_"  overflow="visible" fill="#4D738C"/>
		<clipPath id="SVGID_2_">
			<use xlink:href="#SVGID_1_"  overflow="visible"/>
		</clipPath>
		<path id="tabFill_x5F_bottom_2_" clip-path="url(#SVGID_2_)" fill="#B1B3C2" d="M64.7,184.1c0.3,0,14.9-2,14.9-1.9
			s1.3,7.6,1.3,7.6l-9.5,3.5c0,0-7-6.3-6.9-6.7C64.5,186.3,64.7,184.1,64.7,184.1z"/>
		<path id="tabSide_x5F_bottom_2_" clip-path="url(#SVGID_2_)" fill="#4D738C" d="M68.8,188c-1.8-1.7-3.4-3.3-3.8-3.6
			c0,0-2.7,3.1-2.7,3.1l10.5,7.3l8.4-3.1c0,0-1.2-2.3-1.8-3.4C79,190.6,71.3,193.1,68.8,188z"/>
	</g>
	<g id="rivets_2_">
		<circle id="bottom_4_" fill="#395C73" cx="72" cy="170.8" r="2.3"/>
		<circle id="top_4_" fill="#395C73" cx="69.4" cy="32.4" r="2.4"/>
	</g>
	<g id="darkMiddle_2_">
		<polygon id="darkMiddle_x5F_bottom_2_" fill="#4D738C" points="74.5,158.5 78,158 78,162.5 74.5,163 		"/>
		<polygon id="darkMiddle_x5F_mid_2_" fill="#4D738C" points="74,106 77.5,105.5 77.5,110 74,110.5 		"/>
		<polygon id="darkMiddle_x5F_top_3_" fill="#4D738C" points="72.5,51.5 77,51 78.5,55 72.5,56 		"/>
	</g>
	<g id="ringHoles_2_">
		<ellipse fill="#1B2E38" cx="60.7" cy="50.6" rx="4.7" ry="4.6"/>
		<ellipse fill="#1B2E38" cx="61.8" cy="104.2" rx="4.7" ry="4.5"/>
		<ellipse fill="#1B2E38" cx="78.4" cy="102.8" rx="4.1" ry="4.5"/>
		<ellipse fill="#1B2E38" cx="79.1" cy="154" rx="3.8" ry="4.3"/>
		<ellipse fill="#1B2E38" cx="77.9" cy="49.7" rx="4.2" ry="4.7"/>
		<ellipse fill="#1B2E38" cx="63.2" cy="156" rx="4.7" ry="4.5"/>
	</g>
	<g id="ring_x5F_bottomLeft_2_">
		<defs>
			<path id="ringMask_x5F_bottomLeft_2_" d="M65.8,157.5c0-0.7-0.1-2.8-0.1-3.4s-1.5-0.9-2.6-0.8s-2.9,1.3-2.9,2.7
				c0,0.6,0,2.3,0,3.3c0,1.7,2.5,3.4,4.6,3.9c2.2,0.5,8.9,0.5,9.7,0.3s1.3-1.1,1.3-1.6s0-1.9,0-2.4s-0.5-1.3-1.6-1.2
				C73.4,158.4,68.1,158.8,65.8,157.5z"/>
		</defs>
		<clipPath id="ringMask_x5F_bottomLeft_1_">
			<use xlink:href="#ringMask_x5F_bottomLeft_2_"  overflow="visible"/>
		</clipPath>
		<path clip-path="url(#ringMask_x5F_bottomLeft_1_)" fill="#B1B3C2" d="M59.4,157.1c0,4.6,6,5.8,13.6,5.8c1.2,0,2.3-0.1,3.4-0.2
			l-0.2-4.7l-10.8,0.5l-6.1-6.9C59.4,151.6,59.4,154,59.4,157.1z"/>
		<path clip-path="url(#ringMask_x5F_bottomLeft_1_)" fill="#D7D9DB" d="M76.3,158L65,157l-1.9-3.5L61,152c0,0-1.6-0.7-1.6,2.4
			c0,4.6,6,5.8,13.6,5.8c1.1,0,2.2-0.1,3.3-0.2L76.3,158z"/>
		<path clip-path="url(#ringMask_x5F_bottomLeft_1_)" fill="#4D738C" d="M76.3,158l-6.8-0.8L68,153c-3,0.6-4.9,1.8-4.9,2.7
			c0,2.1,4.5,2.6,10.2,2.6c1,0,2,0,2.9-0.1L76.3,158z"/>
		<path clip-path="url(#ringMask_x5F_bottomLeft_1_)" fill="#4D738C" d="M67.5,156.5l-2-6.5l-5.5,3.5c1.8,0,3.6,0.9,4.5,3"/>
	</g>
	<g id="ring_x5F_bottomRight_2_">
		<defs>
			<path id="ringMask_x5F_bottomRight_2_" d="M78.3,157.7c1.1,0,2.6,0.1,3.8-0.6c0.1-0.9-0.5-1.4-1.6-1.5c-0.6,0-2.1,0-2.1,0
				c-0.5-0.1-0.9-0.5-0.9-1.1l0-2c0-0.7,0.4-1.4,1.2-1.4c5.7,0,8.2,2.4,8.2,4.5c0,0.7,0,1.6,0,2.3c0,3.1-5.5,5.2-8.3,4.8
				c-0.9-0.1-1.2-0.3-1.2-0.9c0-0.8-0.1-3.4-0.1-3.4S77.6,157.7,78.3,157.7z"/>
		</defs>
		<clipPath id="ringMask_x5F_bottomRight_1_">
			<use xlink:href="#ringMask_x5F_bottomRight_2_"  overflow="visible"/>
		</clipPath>
		<path clip-path="url(#ringMask_x5F_bottomRight_1_)" fill="#B1B3C2" d="M75.8,158l0.7,4.7c6-0.6,10.6-2.9,10.6-5.6
			c0-2.1-0.1-6.5-0.1-6.5l-5.4,5.9L75.8,158z"/>
		<path clip-path="url(#ringMask_x5F_bottomRight_1_)" fill="#D7D9DB" d="M83.9,150l-2.9-0.5l-1,6l-4,0.5l0.2,4
			c6.1-0.6,10.7-2.9,10.7-5.6C87,152.5,83.9,150,83.9,150z"/>
		<path clip-path="url(#ringMask_x5F_bottomRight_1_)" fill="#7299B3" d="M75.8,152.6l0.3,5.7c4.4-0.3,7.7-1.4,7.7-2.5
			C83.8,153.6,80.4,152.8,75.8,152.6z"/>
		<path clip-path="url(#ringMask_x5F_bottomRight_1_)" fill="#7299B3" d="M82.5,151.2c-1.5,0.9-2,2.9-2.2,3.3c-1.5,0.5-3.8,0-3.8,0
			l0.5-4.9L82.5,151.2z"/>
	</g>
	<g id="ring_x5F_midLeft_2_">
		<defs>
			<path id="ringMask_x5F_midLeft_2_" d="M64.6,105.3c0-0.7-0.2-2.2-0.2-2.8c0-0.6-1.5-0.8-2.6-0.8c-1.1,0.1-2.9,1.2-2.9,2.4
				c0,0.5,0,2.1,0,2.9c0,1.5,2.5,3,4.6,3.5c2.2,0.4,8.9,0.4,9.7,0.3s1.3-1,1.3-1.4c0-0.4,0-1.7,0-2.1c0-0.5-0.4-1.5-1.5-1.3
				C72.2,106.1,66.9,106.5,64.6,105.3z"/>
		</defs>
		<clipPath id="ringMask_x5F_midLeft_1_">
			<use xlink:href="#ringMask_x5F_midLeft_2_"  overflow="visible"/>
		</clipPath>
		<path clip-path="url(#ringMask_x5F_midLeft_1_)" fill="#B1B3C2" d="M57.9,106.6c0,2.1,6.4,3.8,14.3,3.8c1.2,0,2.4,0,3.6-0.1
			l-0.3-4.3h-8l-9.5-2.6C58,103.4,57.9,105.6,57.9,106.6z"/>
		<path clip-path="url(#ringMask_x5F_midLeft_1_)" fill="#D7D9DB" d="M75.8,105.1l-8.8,0.4l-3-0.5c0,0-2.5-2.4-3.5-4
			c-3.1,0.7-2.6,1.4-2.6,2.6c0,2.1,6.4,3.8,14.3,3.8c1.2,0,2.4,0,3.5-0.1L75.8,105.1z"/>
		<path clip-path="url(#ringMask_x5F_midLeft_1_)" fill="#4D738C" d="M65.8,105.7c-2.6-0.4-4.3-1-4.3-1.7c0-0.7,1.9-1.4,4.7-1.8
			C66.5,103.5,66.4,104.7,65.8,105.7z"/>
		<path clip-path="url(#ringMask_x5F_midLeft_1_)" fill="#4D738C" d="M65.5,104.5l-2-6.5l-5.5,3.5c1.8,0,4.5,0.3,4.5,3"/>
	</g>
	<g id="ring_x5F_midRight_2_">
		<defs>
			<path id="ringMask_x5F_midRight_2_" d="M77.4,105.5c1.1,0,1.8-0.1,2.8-0.1c0.1-0.8-0.8-0.8-0.8-0.8l-1.9-0.2c-0.5,0-1-0.3-1-0.8
				l0-2c0-0.6,0.4-1.3,1.3-1.3c5.7,0,8.6,1.9,8.6,3.6c0,0.6-0.1,2.1-0.1,2.8c0,2.6-5.9,3.7-8.6,3.4c-0.9-0.1-1.3-0.5-1.3-1.2
				s0-2.7,0-2.7S76.7,105.6,77.4,105.5z"/>
		</defs>
		<clipPath id="ringMask_x5F_midRight_1_">
			<use xlink:href="#ringMask_x5F_midRight_2_"  overflow="visible"/>
		</clipPath>
		<path clip-path="url(#ringMask_x5F_midRight_1_)" fill="#B1B3C2" d="M75.5,105.5l0.4,4.7c6.2-0.4,10.7-1.9,10.7-3.7
			c0-0.6,0.1-2.9,0.1-2.9l-4.2,0l-3,1.4L75.5,105.5z"/>
		<path clip-path="url(#ringMask_x5F_midRight_1_)" fill="#D7D9DB" d="M86.6,103.6c0-1.4-1.5-5.2-7.1-3.3c-0.4,2.6-0.5,4.2-0.5,4.2
			l-3,1l-0.6,1.8C81.8,106.9,86.6,105.4,86.6,103.6z"/>
		<path clip-path="url(#ringMask_x5F_midRight_1_)" fill="#7299B3" d="M82.8,103.6c0,1-2.7,1.8-6.6,2.2c-0.4-1.6-0.6-3-0.1-4.4
			C80,101.7,82.8,102.6,82.8,103.6z"/>
		<path clip-path="url(#ringMask_x5F_midRight_1_)" fill="#7299B3" d="M81,100c-1.4,0.6-2,1.9-2,3c-1.4,0.5-3.5,0-3.5,0l0.5-4.5
			L81,100z"/>
	</g>
	<g id="ring_x5F_topRight_2_">
		<defs>
			<path id="ringMask_x5F_topRight_2_" d="M76,51c0-0.2,0-1.9,0-2.5s0.3-1.1,1.1-1.1s6,0.3,7.1,0.6s1.6,1.4,1.6,2s-0.1,2.1-0.1,2.8
				s-0.9,2.2-2.5,2.4s-5.1,0.5-6,0.6s-1.7-0.9-1.7-1.6s0-2.5,0-2.5L76,51z"/>
		</defs>
		<clipPath id="ringMask_x5F_topRight_1_">
			<use xlink:href="#ringMask_x5F_topRight_2_"  overflow="visible"/>
		</clipPath>
		<path clip-path="url(#ringMask_x5F_topRight_1_)" fill="#B1B3C2" d="M74.5,55.3c7.9-0.3,11.8-1.5,11.8-3.1c0-0.4,0-3,0-3l-3.8,0
			l-8,2.4V55.3z"/>
		<path clip-path="url(#ringMask_x5F_topRight_1_)" fill="#D7D9DB" d="M75.5,51l-1,1.6c6.8-0.3,12-1.7,12-3.4c0-1-1.7-1.8-4.5-2.4
			C78,49.4,75.5,51,75.5,51z"/>
		<path clip-path="url(#ringMask_x5F_topRight_1_)" fill="#7299B3" d="M80.1,49.2C80.2,49.2,80.2,49.2,80.1,49.2
			c-0.1-0.8,0.6-1.7,1.3-2l-6.5-0.3l-0.3,1.8c0,0-0.1,0-0.1,0V51c4.1-0.2,7-0.7,7-1.2C81.5,49.6,81,49.4,80.1,49.2z"/>
	</g>
	<g id="ring_x5F_toplLeft_2_">
		<defs>
			<path id="ringMask_x5F_topLeft_2_" d="M63.4,51.1c0-1.6-0.7-2.7-2.7-2.8c-2.4-0.1-3.3,1.3-3.3,2.3s0,2,0,2.7
				c0,1.4,2.4,2.6,4.7,2.9c2.3,0.3,9.4,0.3,10.2,0.3S74,56,74,55c0-0.4,0-1.7,0-2.1c0-0.9-0.8-1.4-1.8-1.4
				C66.5,51.8,63.4,51.1,63.4,51.1z"/>
		</defs>
		<clipPath id="ringMask_x5F_topLeft_1_">
			<use xlink:href="#ringMask_x5F_topLeft_2_"  overflow="visible"/>
		</clipPath>
		<path clip-path="url(#ringMask_x5F_topLeft_1_)" fill="#B1B3C2" d="M56.8,52.5c0,1.9,3.8,3.3,14.3,3.3c1.2,0,2.4,0,3.6-0.1
			L74.5,51h-10l-7.6-1.7C56.9,49.3,56.8,50.6,56.8,52.5z"/>
		<path clip-path="url(#ringMask_x5F_topLeft_1_)" fill="#D7D9DB" d="M62.5,50c0,0-2.4-3-3.5-2.6c-1.4,0.5-2.2,1.1-2.2,1.8
			c0,1.9,6.7,3.4,14.9,3.4c1,0,2.1,0,3-0.1L74.5,51L62.5,50z"/>
		<path clip-path="url(#ringMask_x5F_topLeft_1_)" fill="#4D738C" d="M65.1,48.7c-0.4,0-0.8,0.1-1.2,0.1l-1.4-2.3L58.8,48
			c0.9-0.1,1.8,0.5,2.3,1.2c-0.9,0.2-1.4,0.4-1.4,0.6c0,0.7,4.9,1.3,10.9,1.3c1.5,0,2.9,0,4.1-0.1l0-0.9l-9.4-0.5L65.1,48.7z"/>
	</g>
	<g id="topTab_2_">
		<defs>
			<path id="tabMask_x5F_top_2_" d="M58.9,12.1c0.6,0,3.7,0.1,5,0c3.5-0.7,9-0.9,12.9-0.6c0,1.3,0,3.3,0,3.3l-13.1,0.6L59,15.2
				L58.9,12.1z"/>
		</defs>
		<clipPath id="tabMask_x5F_top_1_">
			<use xlink:href="#tabMask_x5F_top_2_"  overflow="visible"/>
		</clipPath>
		<rect x="56.5" y="9" clip-path="url(#tabMask_x5F_top_1_)" fill="#CAD2DE" width="23" height="8.5"/>
		<rect x="59.5" y="9" clip-path="url(#tabMask_x5F_top_1_)" fill="#E8EAED" width="4" height="8.5"/>
	</g>
</g>
</svg>
